EncodeSans-ExtendedLight.ufo
<glyph name="percent" format="2">
  <advance width="1852.0"/>
  <unicode hex="0025"/>
  <note>
450
</note>
  <outline>
    <contour>
      <point x="508.0" y="0.0" type="line"/>
      <point x="582.0" y="0.0" type="line"/>
      <point x="1344.0" y="1480.0" type="line"/>
      <point x="1270.0" y="1480.0" type="line"/>
    </contour>
    <contour>
      <point x="466.0" y="578.0" type="curve" smooth="yes"/>
      <point x="656.0" y="578.0"/>
      <point x="796.0" y="706.0"/>
      <point x="796.0" y="1038.0" type="curve" smooth="yes"/>
      <point x="796.0" y="1370.0"/>
      <point x="660.0" y="1498.0"/>
      <point x="466.0" y="1498.0" type="curve" smooth="yes"/>
      <point x="272.0" y="1498.0"/>
      <point x="136.0" y="1370.0"/>
      <point x="136.0" y="1038.0" type="curve" smooth="yes"/>
      <point x="136.0" y="706.0"/>
      <point x="276.0" y="578.0"/>
    </contour>
    <contour>
      <point x="466.0" y="642.0" type="curve" smooth="yes"/>
      <point x="310.0" y="642.0"/>
      <point x="204.0" y="750.0"/>
      <point x="204.0" y="1040.0" type="curve" smooth="yes"/>
      <point x="204.0" y="1330.0"/>
      <point x="310.0" y="1434.0"/>
      <point x="466.0" y="1434.0" type="curve" smooth="yes"/>
      <point x="620.0" y="1434.0"/>
      <point x="728.0" y="1330.0"/>
      <point x="728.0" y="1036.0" type="curve" smooth="yes"/>
      <point x="728.0" y="742.0"/>
      <point x="620.0" y="642.0"/>
    </contour>
    <contour>
      <point x="1386.0" y="-18.0" type="curve" smooth="yes"/>
      <point x="1576.0" y="-18.0"/>
      <point x="1716.0" y="110.0"/>
      <point x="1716.0" y="442.0" type="curve" smooth="yes"/>
      <point x="1716.0" y="774.0"/>
      <point x="1580.0" y="902.0"/>
      <point x="1386.0" y="902.0" type="curve" smooth="yes"/>
      <point x="1192.0" y="902.0"/>
      <point x="1056.0" y="774.0"/>
      <point x="1056.0" y="442.0" type="curve" smooth="yes"/>
      <point x="1056.0" y="110.0"/>
      <point x="1196.0" y="-18.0"/>
    </contour>
    <contour>
      <point x="1386.0" y="46.0" type="curve" smooth="yes"/>
      <point x="1232.0" y="46.0"/>
      <point x="1124.0" y="154.0"/>
      <point x="1124.0" y="444.0" type="curve" smooth="yes"/>
      <point x="1124.0" y="734.0"/>
      <point x="1232.0" y="838.0"/>
      <point x="1386.0" y="838.0" type="curve" smooth="yes"/>
      <point x="1540.0" y="838.0"/>
      <point x="1648.0" y="734.0"/>
      <point x="1648.0" y="440.0" type="curve" smooth="yes"/>
      <point x="1648.0" y="146.0"/>
      <point x="1540.0" y="46.0"/>
    </contour>
  </outline>
</glyph>
<glyph name="quotesingle" format="2">
  <advance width="428.0"/>
  <unicode hex="0027"/>
  <outline>
    <contour>
      <point x="194.0" y="956.0" type="line"/>
      <point x="234.0" y="956.0" type="line"/>
      <point x="254.0" y="1616.0" type="line"/>
      <point x="174.0" y="1616.0" type="line"/>
    </contour>
  </outline>
</glyph>
<glyph name="asterisk" format="2">
  <advance width="908.0"/>
  <unicode hex="002A"/>
  <outline>
    <contour>
      <point x="480.0" y="1202.0" type="line"/>
      <point x="678.0" y="1250.0" type="line"/>
      <point x="878.0" y="1314.0" type="line"/>
      <point x="858.0" y="1374.0" type="line"/>
      <point x="660.0" y="1310.0" type="line"/>
      <point x="470.0" y="1232.0" type="line"/>
      <point x="486.0" y="1436.0" type="line"/>
      <point x="486.0" y="1616.0" type="line"/>
      <point x="422.0" y="1616.0" type="line"/>
      <point x="422.0" y="1436.0" type="line"/>
      <point x="438.0" y="1232.0" type="line"/>
      <point x="248.0" y="1310.0" type="line"/>
      <point x="50.0" y="1374.0" type="line"/>
      <point x="30.0" y="1314.0" type="line"/>
      <point x="230.0" y="1250.0" type="line"/>
      <point x="428.0" y="1202.0" type="line"/>
      <point x="296.0" y="1046.0" type="line"/>
      <point x="182.0" y="892.0" type="line"/>
      <point x="234.0" y="854.0" type="line"/>
      <point x="348.0" y="1008.0" type="line"/>
      <point x="454.0" y="1182.0" type="line"/>
      <point x="560.0" y="1008.0" type="line"/>
      <point x="674.0" y="854.0" type="line"/>
      <point x="726.0" y="892.0" type="line"/>
      <point x="612.0" y="1046.0" type="line"/>
    </contour>
  </outline>
</glyph>
<glyph name="hyphen" format="2">
  <advance width="920.0"/>
  <unicode hex="002D"/>
  <outline>
    <contour>
      <point x="190.0" y="528.0" type="line"/>
      <point x="730.0" y="528.0" type="line"/>
      <point x="730.0" y="592.0" type="line"/>
      <point x="190.0" y="592.0" type="line"/>
    </contour>
  </outline>
</glyph>
<glyph name="one" format="2">
  <advance width="794.0"/>
  <unicode hex="0031"/>
  <outline>
    <contour>
      <point x="500.0" y="0.0" type="line"/>
      <point x="568.0" y="0.0" type="line"/>
      <point x="568.0" y="1484.0" type="line"/>
      <point x="522.0" y="1484.0" type="line"/>
      <point x="26.0" y="1130.0" type="line"/>
      <point x="26.0" y="1050.0" type="line"/>
      <point x="522.0" y="1400.0" type="line"/>
      <point x="500.0" y="1410.0" type="line"/>
    </contour>
  </outline>
</glyph>
<glyph name="two" format="2">
  <advance width="1068.0"/>
  <unicode hex="0032"/>
  <outline>
    <contour>
      <point x="82.0" y="0.0" type="line"/>
      <point x="988.0" y="0.0" type="line"/>
      <point x="988.0" y="64.0" type="line"/>
      <point x="152.0" y="64.0" type="line"/>
      <point x="166.0" y="40.0" type="line"/>
      <point x="610.0" y="558.0" type="line" smooth="yes"/>
      <point x="816.0" y="798.0"/>
      <point x="884.0" y="932.0"/>
      <point x="884.0" y="1108.0" type="curve" smooth="yes"/>
      <point x="884.0" y="1374.0"/>
      <point x="722.0" y="1498.0"/>
      <point x="434.0" y="1498.0" type="curve" smooth="yes"/>
      <point x="288.0" y="1498.0"/>
      <point x="164.0" y="1476.0"/>
      <point x="64.0" y="1438.0" type="curve"/>
      <point x="64.0" y="1370.0" type="line"/>
      <point x="178.0" y="1412.0"/>
      <point x="298.0" y="1432.0"/>
      <point x="434.0" y="1432.0" type="curve" smooth="yes"/>
      <point x="686.0" y="1432.0"/>
      <point x="814.0" y="1330.0"/>
      <point x="814.0" y="1104.0" type="curve" smooth="yes"/>
      <point x="814.0" y="958.0"/>
      <point x="750.0" y="824.0"/>
      <point x="564.0" y="606.0" type="curve" smooth="yes"/>
      <point x="82.0" y="40.0" type="line"/>
    </contour>
  </outline>
</glyph>
<glyph name="six" format="2">
  <advance width="1234.0"/>
  <unicode hex="0036"/>
  <outline>
    <contour>
      <point x="696.0" y="-18.0" type="curve" smooth="yes"/>
      <point x="964.0" y="-18.0"/>
      <point x="1156.0" y="122.0"/>
      <point x="1156.0" y="402.0" type="curve" smooth="yes"/>
      <point x="1156.0" y="684.0"/>
      <point x="970.0" y="828.0"/>
      <point x="650.0" y="828.0" type="curve" smooth="yes"/>
      <point x="492.0" y="828.0"/>
      <point x="318.0" y="778.0"/>
      <point x="208.0" y="696.0" type="curve"/>
      <point x="208.0" y="622.0" type="line"/>
      <point x="322.0" y="720.0"/>
      <point x="510.0" y="762.0"/>
      <point x="646.0" y="762.0" type="curve" smooth="yes"/>
      <point x="930.0" y="762.0"/>
      <point x="1086.0" y="644.0"/>
      <point x="1086.0" y="400.0" type="curve" smooth="yes"/>
      <point x="1086.0" y="158.0"/>
      <point x="926.0" y="48.0"/>
      <point x="696.0" y="48.0" type="curve" smooth="yes"/>
      <point x="398.0" y="48.0"/>
      <point x="224.0" y="224.0"/>
      <point x="224.0" y="692.0" type="curve" smooth="yes"/>
      <point x="224.0" y="704.0" type="line" smooth="yes"/>
      <point x="224.0" y="1198.0"/>
      <point x="418.0" y="1432.0"/>
      <point x="798.0" y="1432.0" type="curve" smooth="yes"/>
      <point x="884.0" y="1432.0"/>
      <point x="1000.0" y="1420.0"/>
      <point x="1088.0" y="1384.0" type="curve"/>
      <point x="1088.0" y="1452.0" type="line"/>
      <point x="1002.0" y="1486.0"/>
      <point x="894.0" y="1498.0"/>
      <point x="796.0" y="1498.0" type="curve" smooth="yes"/>
      <point x="378.0" y="1498.0"/>
      <point x="154.0" y="1234.0"/>
      <point x="154.0" y="694.0" type="curve" smooth="yes"/>
      <point x="154.0" y="186.0"/>
      <point x="358.0" y="-18.0"/>
    </contour>
  </outline>
</glyph>
<glyph name="eight" format="2">
  <advance width="1360.0"/>
  <unicode hex="0038"/>
  <outline>
    <contour>
      <point x="690.0" y="-18.0" type="curve" smooth="yes"/>
      <point x="1038.0" y="-18.0"/>
      <point x="1230.0" y="132.0"/>
      <point x="1230.0" y="376.0" type="curve" smooth="yes"/>
      <point x="1230.0" y="584.0"/>
      <point x="1084.0" y="710.0"/>
      <point x="720.0" y="770.0" type="curve" smooth="yes"/>
      <point x="380.0" y="826.0"/>
      <point x="260.0" y="930.0"/>
      <point x="260.0" y="1124.0" type="curve" smooth="yes"/>
      <point x="260.0" y="1316.0"/>
      <point x="400.0" y="1432.0"/>
      <point x="672.0" y="1432.0" type="curve" smooth="yes"/>
      <point x="942.0" y="1432.0"/>
      <point x="1102.0" y="1326.0"/>
      <point x="1102.0" y="1122.0" type="curve" smooth="yes"/>
      <point x="1102.0" y="944.0"/>
      <point x="1006.0" y="834.0"/>
      <point x="780.0" y="754.0" type="curve"/>
      <point x="846.0" y="720.0" type="line"/>
      <point x="1054.0" y="792.0"/>
      <point x="1170.0" y="926.0"/>
      <point x="1170.0" y="1124.0" type="curve" smooth="yes"/>
      <point x="1170.0" y="1358.0"/>
      <point x="986.0" y="1498.0"/>
      <point x="674.0" y="1498.0" type="curve" smooth="yes"/>
      <point x="370.0" y="1498.0"/>
      <point x="188.0" y="1358.0"/>
      <point x="188.0" y="1122.0" type="curve" smooth="yes"/>
      <point x="188.0" y="900.0"/>
      <point x="332.0" y="768.0"/>
      <point x="708.0" y="704.0" type="curve" smooth="yes"/>
      <point x="1032.0" y="648.0"/>
      <point x="1158.0" y="556.0"/>
      <point x="1158.0" y="372.0" type="curve" smooth="yes"/>
      <point x="1158.0" y="162.0"/>
      <point x="994.0" y="48.0"/>
      <point x="692.0" y="48.0" type="curve" smooth="yes"/>
      <point x="374.0" y="48.0"/>
      <point x="200.0" y="162.0"/>
      <point x="200.0" y="382.0" type="curve" smooth="yes"/>
      <point x="200.0" y="558.0"/>
      <point x="318.0" y="700.0"/>
      <point x="548.0" y="758.0" type="curve"/>
      <point x="472.0" y="792.0" type="line"/>
      <point x="258.0" y="724.0"/>
      <point x="130.0" y="586.0"/>
      <point x="130.0" y="378.0" type="curve" smooth="yes"/>
      <point x="130.0" y="118.0"/>
      <point x="330.0" y="-18.0"/>
    </contour>
  </outline>
</glyph>
<glyph name="less" format="2">
  <advance width="1108.0"/>
  <unicode hex="003C"/>
  <outline>
    <contour>
      <point x="918.0" y="406.0" type="line"/>
      <point x="918.0" y="478.0" type="line"/>
      <point x="254.0" y="772.0" type="line"/>
      <point x="254.0" y="748.0" type="line"/>
      <point x="918.0" y="1042.0" type="line"/>
      <point x="918.0" y="1114.0" type="line"/>
      <point x="190.0" y="786.0" type="line"/>
      <point x="190.0" y="734.0" type="line"/>
    </contour>
  </outline>
</glyph>
<glyph name="equal" format="2">
  <advance width="1108.0"/>
  <unicode hex="003D"/>
  <outline>
    <contour>
      <point x="190.0" y="910.0" type="line"/>
      <point x="918.0" y="910.0" type="line"/>
      <point x="918.0" y="974.0" type="line"/>
      <point x="190.0" y="974.0" type="line"/>
    </contour>
    <contour>
      <point x="190.0" y="546.0" type="line"/>
      <point x="918.0" y="546.0" type="line"/>
      <point x="918.0" y="610.0" type="line"/>
      <point x="190.0" y="610.0" type="line"/>
    </contour>
  </outline>
</glyph>
<glyph name="H" format="2">
  <advance width="1576.0"/>
  <unicode hex="0048"/>
  <anchor x="788.0" y="0.0" name="bottom"/>
  <anchor x="788.0" y="1140.0" name="center"/>
  <anchor x="788.0" y="1520.0" name="top"/>
  <anchor x="46.0" y="1480.0" name="topleft"/>
  <outline>
    <contour>
      <point x="216.0" y="0.0" type="line"/>
      <point x="284.0" y="0.0" type="line"/>
      <point x="284.0" y="728.0" type="line"/>
      <point x="1292.0" y="728.0" type="line"/>
      <point x="1292.0" y="0.0" type="line"/>
      <point x="1360.0" y="0.0" type="line"/>
      <point x="1360.0" y="1480.0" type="line"/>
      <point x="1292.0" y="1480.0" type="line"/>
      <point x="1292.0" y="794.0" type="line"/>
      <point x="284.0" y="794.0" type="line"/>
      <point x="284.0" y="1480.0" type="line"/>
      <point x="216.0" y="1480.0" type="line"/>
    </contour>
  </outline>
</glyph>
<glyph name="K" format="2">
  <advance width="1326.0"/>
  <unicode hex="004B"/>
  <anchor x="676.0" y="0.0" name="bottom"/>
  <anchor x="676.0" y="1480.0" name="top"/>
  <outline>
    <contour>
      <point x="1220.0" y="0.0" type="line"/>
      <point x="1308.0" y="0.0" type="line"/>
      <point x="650.0" y="774.0" type="line"/>
      <point x="650.0" y="750.0" type="line"/>
      <point x="1266.0" y="1480.0" type="line"/>
      <point x="1180.0" y="1480.0" type="line"/>
      <point x="574.0" y="758.0" type="line"/>
    </contour>
    <contour>
      <point x="216.0" y="0.0" type="line"/>
      <point x="284.0" y="0.0" type="line"/>
      <point x="284.0" y="1480.0" type="line"/>
      <point x="216.0" y="1480.0" type="line"/>
    </contour>
    <contour>
      <point x="268.0" y="728.0" type="line"/>
      <point x="620.0" y="728.0" type="line"/>
      <point x="620.0" y="794.0" type="line"/>
      <point x="268.0" y="794.0" type="line"/>
    </contour>
  </outline>
</glyph>
<glyph name="N" format="2">
  <advance width="1606.0"/>
  <unicode hex="004E"/>
  <anchor x="804.0" y="0.0" name="bottom"/>
  <anchor x="804.0" y="1520.0" name="top"/>
  <outline>
    <contour>
      <point x="216.0" y="0.0" type="line"/>
      <point x="282.0" y="0.0" type="line"/>
      <point x="282.0" y="1420.0" type="line"/>
      <point x="252.0" y="1420.0" type="line"/>
      <point x="1316.0" y="0.0" type="line"/>
      <point x="1390.0" y="0.0" type="line"/>
      <point x="1390.0" y="1480.0" type="line"/>
      <point x="1324.0" y="1480.0" type="line"/>
      <point x="1324.0" y="60.0" type="line"/>
      <point x="1354.0" y="60.0" type="line"/>
      <point x="290.0" y="1480.0" type="line"/>
      <point x="216.0" y="1480.0" type="line"/>
    </contour>
  </outline>
</glyph>
<glyph name="Q" format="2">
  <advance width="1572.0"/>
  <unicode hex="0051"/>
  <outline>
    <contour>
      <point x="1394.0" y="-180.0" type="curve"/>
      <point x="1402.0" y="-114.0" type="line"/>
      <point x="1160.0" y="-98.0"/>
      <point x="874.0" y="-60.0"/>
      <point x="698.0" y="10.0" type="curve"/>
      <point x="688.0" y="-8.0" type="line"/>
      <point x="1166.0" y="-56.0"/>
      <point x="1434.0" y="196.0"/>
      <point x="1434.0" y="740.0" type="curve" smooth="yes"/>
      <point x="1434.0" y="1284.0"/>
      <point x="1162.0" y="1498.0"/>
      <point x="786.0" y="1498.0" type="curve" smooth="yes"/>
      <point x="410.0" y="1498.0"/>
      <point x="138.0" y="1272.0"/>
      <point x="138.0" y="740.0" type="curve" smooth="yes"/>
      <point x="138.0" y="146.0"/>
      <point x="424.0" y="-98.0"/>
    </contour>
    <contour>
      <point x="786.0" y="50.0" type="curve" smooth="yes"/>
      <point x="446.0" y="50.0"/>
      <point x="210.0" y="242.0"/>
      <point x="210.0" y="744.0" type="curve" smooth="yes"/>
      <point x="210.0" y="1238.0"/>
      <point x="446.0" y="1430.0"/>
      <point x="786.0" y="1430.0" type="curve" smooth="yes"/>
      <point x="1126.0" y="1430.0"/>
      <point x="1362.0" y="1238.0"/>
      <point x="1362.0" y="736.0" type="curve" smooth="yes"/>
      <point x="1362.0" y="242.0"/>
      <point x="1126.0" y="50.0"/>
    </contour>
  </outline>
</glyph>
<glyph name="X" format="2">
  <advance width="1368.0"/>
  <unicode hex="0058"/>
  <outline>
    <contour>
      <point x="1238.0" y="0.0" type="line"/>
      <point x="1328.0" y="0.0" type="line"/>
      <point x="726.0" y="748.0" type="line"/>
      <point x="684.0" y="802.0" type="line"/>
      <point x="138.0" y="1480.0" type="line"/>
      <point x="48.0" y="1480.0" type="line"/>
      <point x="640.0" y="746.0" type="line"/>
      <point x="682.0" y="692.0" type="line"/>
    </contour>
    <contour>
      <point x="38.0" y="0.0" type="line"/>
      <point x="126.0" y="0.0" type="line"/>
      <point x="682.0" y="692.0" type="line"/>
      <point x="726.0" y="748.0" type="line"/>
      <point x="1318.0" y="1480.0" type="line"/>
      <point x="1232.0" y="1480.0" type="line"/>
      <point x="684.0" y="802.0" type="line"/>
      <point x="640.0" y="746.0" type="line"/>
    </contour>
  </outline>
</glyph>
<glyph name="Z" format="2">
  <advance width="1256.0"/>
  <unicode hex="005A"/>
  <anchor x="628.0" y="0.0" name="bottom"/>
  <anchor x="628.0" y="1520.0" name="top"/>
  <outline>
    <contour>
      <point x="70.0" y="0.0" type="line"/>
      <point x="1186.0" y="0.0" type="line"/>
      <point x="1186.0" y="64.0" type="line"/>
      <point x="140.0" y="64.0" type="line"/>
      <point x="152.0" y="40.0" type="line"/>
      <point x="1172.0" y="1440.0" type="line"/>
      <point x="1172.0" y="1480.0" type="line"/>
      <point x="84.0" y="1480.0" type="line"/>
      <point x="84.0" y="1416.0" type="line"/>
      <point x="1102.0" y="1416.0" type="line"/>
      <point x="1090.0" y="1440.0" type="line"/>
      <point x="70.0" y="40.0" type="line"/>
    </contour>
  </outline>
</glyph>
<glyph name="bracketleft" format="2">
  <advance width="706.0"/>
  <unicode hex="005B"/>
  <outline>
    <contour>
      <point x="236.0" y="-440.0" type="line"/>
      <point x="746.0" y="-440.0" type="line"/>
      <point x="746.0" y="-376.0" type="line"/>
      <point x="304.0" y="-376.0" type="line"/>
      <point x="304.0" y="1552.0" type="line"/>
      <point x="746.0" y="1552.0" type="line"/>
      <point x="746.0" y="1616.0" type="line"/>
      <point x="236.0" y="1616.0" type="line"/>
    </contour>
  </outline>
</glyph>
<glyph name="backslash" format="2">
  <advance width="624.0"/>
  <unicode hex="005C"/>
  <outline>
    <contour>
      <point x="552.0" y="-240.0" type="line"/>
      <point x="624.0" y="-240.0" type="line"/>
      <point x="72.0" y="1616.0" type="line"/>
      <point x="0.0" y="1616.0" type="line"/>
    </contour>
  </outline>
</glyph>
<glyph name="n" format="2">
  <advance width="1244.0"/>
  <unicode hex="006E"/>
  <anchor x="16.0" y="1200.0" name="apostrophe"/>
  <anchor x="632.0" y="0.0" name="bottom"/>
  <anchor x="632.0" y="1200.0" name="top"/>
  <outline>
    <contour>
      <point x="196.0" y="0.0" type="line"/>
      <point x="264.0" y="0.0" type="line"/>
      <point x="264.0" y="856.0" type="line"/>
      <point x="382.0" y="984.0"/>
      <point x="546.0" y="1030.0"/>
      <point x="678.0" y="1030.0" type="curve" smooth="yes"/>
      <point x="876.0" y="1030.0"/>
      <point x="998.0" y="942.0"/>
      <point x="998.0" y="702.0" type="curve" smooth="yes"/>
      <point x="998.0" y="0.0" type="line"/>
      <point x="1066.0" y="0.0" type="line"/>
      <point x="1066.0" y="700.0" type="line" smooth="yes"/>
      <point x="1066.0" y="986.0"/>
      <point x="912.0" y="1096.0"/>
      <point x="678.0" y="1096.0" type="curve" smooth="yes"/>
      <point x="528.0" y="1096.0"/>
      <point x="382.0" y="1044.0"/>
      <point x="270.0" y="946.0" type="curve"/>
      <point x="262.0" y="946.0" type="line"/>
      <point x="256.0" y="1080.0" type="line"/>
      <point x="196.0" y="1080.0" type="line"/>
    </contour>
  </outline>
</glyph>
<glyph name="s" format="2">
  <advance width="988.0"/>
  <unicode hex="0073"/>
  <anchor x="498.0" y="0.0" name="bottom"/>
  <anchor x="498.0" y="1200.0" name="top"/>
  <outline>
    <contour>
      <point x="464.0" y="-18.0" type="curve" smooth="yes"/>
      <point x="760.0" y="-18.0"/>
      <point x="892.0" y="100.0"/>
      <point x="892.0" y="282.0" type="curve" smooth="yes"/>
      <point x="892.0" y="434.0"/>
      <point x="806.0" y="520.0"/>
      <point x="592.0" y="558.0" type="curve" smooth="yes"/>
      <point x="426.0" y="588.0" type="line" smooth="yes"/>
      <point x="250.0" y="620.0"/>
      <point x="204.0" y="700.0"/>
      <point x="204.0" y="802.0" type="curve" smooth="yes"/>
      <point x="204.0" y="934.0"/>
      <point x="294.0" y="1030.0"/>
      <point x="554.0" y="1030.0" type="curve" smooth="yes"/>
      <point x="648.0" y="1030.0"/>
      <point x="724.0" y="1020.0"/>
      <point x="830.0" y="990.0" type="curve"/>
      <point x="830.0" y="1058.0" type="line"/>
      <point x="738.0" y="1084.0"/>
      <point x="650.0" y="1096.0"/>
      <point x="554.0" y="1096.0" type="curve" smooth="yes"/>
      <point x="254.0" y="1096.0"/>
      <point x="132.0" y="968.0"/>
      <point x="132.0" y="800.0" type="curve" smooth="yes"/>
      <point x="132.0" y="650.0"/>
      <point x="214.0" y="554.0"/>
      <point x="422.0" y="516.0" type="curve" smooth="yes"/>
      <point x="588.0" y="486.0" type="line" smooth="yes"/>
      <point x="766.0" y="454.0"/>
      <point x="820.0" y="392.0"/>
      <point x="820.0" y="274.0" type="curve" smooth="yes"/>
      <point x="820.0" y="132.0"/>
      <point x="724.0" y="48.0"/>
      <point x="470.0" y="48.0" type="curve" smooth="yes"/>
      <point x="362.0" y="48.0"/>
      <point x="270.0" y="58.0"/>
      <point x="146.0" y="94.0" type="curve"/>
      <point x="146.0" y="26.0" type="line"/>
      <point x="248.0" y="-6.0"/>
      <point x="346.0" y="-18.0"/>
    </contour>
  </outline>
</glyph>
<glyph name="asciitilde" format="2">
  <advance width="1108.0"/>
  <unicode hex="007E"/>
  <outline>
    <contour>
      <point x="726.0" y="664.0" type="curve" smooth="yes"/>
      <point x="804.0" y="664.0"/>
      <point x="874.0" y="696.0"/>
      <point x="918.0" y="754.0" type="curve"/>
      <point x="918.0" y="836.0" type="line"/>
      <point x="864.0" y="764.0"/>
      <point x="800.0" y="728.0"/>
      <point x="724.0" y="728.0" type="curve" smooth="yes"/>
      <point x="620.0" y="728.0"/>
      <point x="514.0" y="844.0"/>
      <point x="382.0" y="844.0" type="curve" smooth="yes"/>
      <point x="304.0" y="844.0"/>
      <point x="234.0" y="812.0"/>
      <point x="190.0" y="754.0" type="curve"/>
      <point x="190.0" y="672.0" type="line"/>
      <point x="244.0" y="744.0"/>
      <point x="308.0" y="780.0"/>
      <point x="384.0" y="780.0" type="curve" smooth="yes"/>
      <point x="488.0" y="780.0"/>
      <point x="594.0" y="664.0"/>
    </contour>
  </outline>
</glyph>
<glyph name="currency" format="2">
  <advance width="1200.0"/>
  <unicode hex="00A4"/>
  <outline>
    <contour>
      <point x="376.0" y="940.0" type="line"/>
      <point x="400.0" y="962.0" type="line"/>
      <point x="300.0" y="1090.0" type="line"/>
      <point x="204.0" y="1190.0" type="line"/>
      <point x="148.0" y="1134.0" type="line"/>
      <point x="250.0" y="1038.0" type="line"/>
    </contour>
    <contour>
      <point x="824.0" y="940.0" type="line"/>
      <point x="950.0" y="1038.0" type="line"/>
      <point x="1052.0" y="1134.0" type="line"/>
      <point x="996.0" y="1190.0" type="line"/>
      <point x="900.0" y="1090.0" type="line"/>
      <point x="800.0" y="962.0" type="line"/>
    </contour>
    <contour>
      <point x="994.0" y="290.0" type="line"/>
      <point x="1050.0" y="346.0" type="line"/>
      <point x="950.0" y="442.0" type="line"/>
      <point x="834.0" y="530.0" type="line"/>
      <point x="810.0" y="504.0" type="line"/>
      <point x="898.0" y="390.0" type="line"/>
    </contour>
    <contour>
      <point x="206.0" y="290.0" type="line"/>
      <point x="302.0" y="390.0" type="line"/>
      <point x="390.0" y="504.0" type="line"/>
      <point x="366.0" y="530.0" type="line"/>
      <point x="250.0" y="442.0" type="line"/>
      <point x="150.0" y="346.0" type="line"/>
    </contour>
    <contour>
      <point x="600.0" y="408.0" type="curve" smooth="yes"/>
      <point x="788.0" y="408.0"/>
      <point x="914.0" y="540.0"/>
      <point x="914.0" y="740.0" type="curve" smooth="yes"/>
      <point x="914.0" y="938.0"/>
      <point x="788.0" y="1070.0"/>
      <point x="600.0" y="1070.0" type="curve" smooth="yes"/>
      <point x="410.0" y="1070.0"/>
      <point x="286.0" y="938.0"/>
      <point x="286.0" y="740.0" type="curve" smooth="yes"/>
      <point x="286.0" y="540.0"/>
      <point x="410.0" y="408.0"/>
    </contour>
    <contour>
      <point x="600.0" y="470.0" type="curve" smooth="yes"/>
      <point x="450.0" y="470.0"/>
      <point x="348.0" y="570.0"/>
      <point x="348.0" y="740.0" type="curve" smooth="yes"/>
      <point x="348.0" y="910.0"/>
      <point x="450.0" y="1010.0"/>
      <point x="602.0" y="1010.0" type="curve" smooth="yes"/>
      <point x="764.0" y="1010.0"/>
      <point x="852.0" y="898.0"/>
      <point x="852.0" y="740.0" type="curve" smooth="yes"/>
      <point x="852.0" y="568.0"/>
      <point x="750.0" y="470.0"/>
    </contour>
  </outline>
</glyph>
<glyph name="section" format="2">
  <advance width="1104.0"/>
  <unicode hex="00A7"/>
  <outline>
    <contour>
      <point x="494.0" y="-18.0" type="curve" smooth="yes"/>
      <point x="790.0" y="-18.0"/>
      <point x="922.0" y="100.0"/>
      <point x="922.0" y="282.0" type="curve" smooth="yes"/>
      <point x="922.0" y="434.0"/>
      <point x="836.0" y="518.0"/>
      <point x="622.0" y="556.0" type="curve" smooth="yes"/>
      <point x="456.0" y="586.0" type="line" smooth="yes"/>
      <point x="280.0" y="618.0"/>
      <point x="230.0" y="700.0"/>
      <point x="230.0" y="802.0" type="curve" smooth="yes"/>
      <point x="230.0" y="878.0"/>
      <point x="264.0" y="942.0"/>
      <point x="340.0" y="984.0" type="curve"/>
      <point x="288.0" y="1026.0" type="line"/>
      <point x="204.0" y="972.0"/>
      <point x="162.0" y="892.0"/>
      <point x="162.0" y="800.0" type="curve" smooth="yes"/>
      <point x="162.0" y="650.0"/>
      <point x="244.0" y="554.0"/>
      <point x="452.0" y="516.0" type="curve" smooth="yes"/>
      <point x="618.0" y="486.0" type="line" smooth="yes"/>
      <point x="796.0" y="454.0"/>
      <point x="850.0" y="392.0"/>
      <point x="850.0" y="274.0" type="curve" smooth="yes"/>
      <point x="850.0" y="132.0"/>
      <point x="754.0" y="48.0"/>
      <point x="500.0" y="48.0" type="curve" smooth="yes"/>
      <point x="392.0" y="48.0"/>
      <point x="300.0" y="58.0"/>
      <point x="176.0" y="94.0" type="curve"/>
      <point x="176.0" y="26.0" type="line"/>
      <point x="278.0" y="-6.0"/>
      <point x="376.0" y="-18.0"/>
    </contour>
    <contour>
      <point x="826.0" y="458.0" type="line"/>
      <point x="900.0" y="512.0"/>
      <point x="942.0" y="588.0"/>
      <point x="942.0" y="682.0" type="curve" smooth="yes"/>
      <point x="942.0" y="834.0"/>
      <point x="856.0" y="920.0"/>
      <point x="642.0" y="958.0" type="curve" smooth="yes"/>
      <point x="476.0" y="988.0" type="line" smooth="yes"/>
      <point x="300.0" y="1020.0"/>
      <point x="254.0" y="1100.0"/>
      <point x="254.0" y="1202.0" type="curve" smooth="yes"/>
      <point x="254.0" y="1334.0"/>
      <point x="344.0" y="1430.0"/>
      <point x="604.0" y="1430.0" type="curve" smooth="yes"/>
      <point x="698.0" y="1430.0"/>
      <point x="774.0" y="1420.0"/>
      <point x="880.0" y="1390.0" type="curve"/>
      <point x="880.0" y="1458.0" type="line"/>
      <point x="788.0" y="1484.0"/>
      <point x="700.0" y="1496.0"/>
      <point x="604.0" y="1496.0" type="curve" smooth="yes"/>
      <point x="304.0" y="1496.0"/>
      <point x="182.0" y="1368.0"/>
      <point x="182.0" y="1200.0" type="curve" smooth="yes"/>
      <point x="182.0" y="1050.0"/>
      <point x="264.0" y="956.0"/>
      <point x="472.0" y="918.0" type="curve" smooth="yes"/>
      <point x="638.0" y="888.0" type="line" smooth="yes"/>
      <point x="816.0" y="856.0"/>
      <point x="874.0" y="792.0"/>
      <point x="874.0" y="674.0" type="curve" smooth="yes"/>
      <point x="874.0" y="594.0"/>
      <point x="840.0" y="532.0"/>
      <point x="766.0" y="494.0" type="curve"/>
    </contour>
  </outline>
</glyph>
<glyph name="copyright" format="2">
  <advance width="1764.0"/>
  <unicode hex="00A9"/>
  <outline>
    <contour>
      <point x="882.0" y="-22.0" type="curve" smooth="yes"/>
      <point x="1328.0" y="-22.0"/>
      <point x="1626.0" y="282.0"/>
      <point x="1626.0" y="740.0" type="curve" smooth="yes"/>
      <point x="1626.0" y="1198.0"/>
      <point x="1328.0" y="1502.0"/>
      <point x="882.0" y="1502.0" type="curve" smooth="yes"/>
      <point x="436.0" y="1502.0"/>
      <point x="138.0" y="1198.0"/>
      <point x="138.0" y="740.0" type="curve" smooth="yes"/>
      <point x="138.0" y="282.0"/>
      <point x="436.0" y="-22.0"/>
    </contour>
    <contour>
      <point x="916.0" y="324.0" type="curve" smooth="yes"/>
      <point x="994.0" y="324.0"/>
      <point x="1066.0" y="336.0"/>
      <point x="1134.0" y="366.0" type="curve"/>
      <point x="1134.0" y="432.0" type="line"/>
      <point x="1052.0" y="400.0"/>
      <point x="980.0" y="390.0"/>
      <point x="922.0" y="390.0" type="curve" smooth="yes"/>
      <point x="726.0" y="390.0"/>
      <point x="604.0" y="500.0"/>
      <point x="604.0" y="738.0" type="curve" smooth="yes"/>
      <point x="604.0" y="970.0"/>
      <point x="726.0" y="1078.0"/>
      <point x="944.0" y="1078.0" type="curve" smooth="yes"/>
      <point x="1014.0" y="1078.0"/>
      <point x="1072.0" y="1068.0"/>
      <point x="1134.0" y="1050.0" type="curve"/>
      <point x="1134.0" y="1116.0" type="line"/>
      <point x="1070.0" y="1136.0"/>
      <point x="1010.0" y="1144.0"/>
      <point x="942.0" y="1144.0" type="curve" smooth="yes"/>
      <point x="678.0" y="1144.0"/>
      <point x="532.0" y="996.0"/>
      <point x="532.0" y="734.0" type="curve" smooth="yes"/>
      <point x="532.0" y="462.0"/>
      <point x="686.0" y="324.0"/>
    </contour>
    <contour>
      <point x="882.0" y="46.0" type="curve" smooth="yes"/>
      <point x="476.0" y="46.0"/>
      <point x="206.0" y="322.0"/>
      <point x="206.0" y="740.0" type="curve" smooth="yes"/>
      <point x="206.0" y="1158.0"/>
      <point x="476.0" y="1434.0"/>
      <point x="882.0" y="1434.0" type="curve" smooth="yes"/>
      <point x="1288.0" y="1434.0"/>
      <point x="1558.0" y="1158.0"/>
      <point x="1558.0" y="740.0" type="curve" smooth="yes"/>
      <point x="1558.0" y="322.0"/>
      <point x="1288.0" y="46.0"/>
    </contour>
  </outline>
</glyph>
<glyph name="ordfeminine" format="2">
  <advance width="940.0"/>
  <unicode hex="00AA"/>
  <outline>
    <contour>
      <point x="400.0" y="596.0" type="curve" smooth="yes"/>
      <point x="526.0" y="596.0"/>
      <point x="648.0" y="646.0"/>
      <point x="720.0" y="716.0" type="curve"/>
      <point x="726.0" y="716.0" type="line"/>
      <point x="732.0" y="610.0" type="line"/>
      <point x="788.0" y="610.0" type="line"/>
      <point x="788.0" y="1196.0" type="line" smooth="yes"/>
      <point x="788.0" y="1422.0"/>
      <point x="662.0" y="1492.0"/>
      <point x="440.0" y="1492.0" type="curve" smooth="yes"/>
      <point x="346.0" y="1492.0"/>
      <point x="244.0" y="1478.0"/>
      <point x="162.0" y="1448.0" type="curve"/>
      <point x="162.0" y="1384.0" type="line"/>
      <point x="262.0" y="1418.0"/>
      <point x="360.0" y="1430.0"/>
      <point x="438.0" y="1430.0" type="curve" smooth="yes"/>
      <point x="620.0" y="1430.0"/>
      <point x="724.0" y="1382.0"/>
      <point x="724.0" y="1196.0" type="curve" smooth="yes"/>
      <point x="724.0" y="788.0" type="line"/>
      <point x="636.0" y="702.0"/>
      <point x="522.0" y="658.0"/>
      <point x="404.0" y="658.0" type="curve" smooth="yes"/>
      <point x="246.0" y="658.0"/>
      <point x="176.0" y="724.0"/>
      <point x="176.0" y="832.0" type="curve" smooth="yes"/>
      <point x="176.0" y="936.0"/>
      <point x="248.0" y="994.0"/>
      <point x="440.0" y="1016.0" type="curve" smooth="yes"/>
      <point x="758.0" y="1052.0" type="line"/>
      <point x="760.0" y="1110.0" type="line"/>
      <point x="438.0" y="1074.0" type="line" smooth="yes"/>
      <point x="204.0" y="1048.0"/>
      <point x="108.0" y="970.0"/>
      <point x="108.0" y="828.0" type="curve" smooth="yes"/>
      <point x="108.0" y="684.0"/>
      <point x="216.0" y="596.0"/>
    </contour>
  </outline>
</glyph>
<glyph name="macron" format="2">
  <advance width="1200.0"/>
  <unicode hex="00AF"/>
  <anchor x="600.0" y="1200.0" name="_top"/>
  <anchor x="600.0" y="1556.0" name="top"/>
  <outline>
    <contour>
      <point x="284.0" y="1394.0" type="line"/>
      <point x="916.0" y="1394.0" type="line"/>
      <point x="916.0" y="1454.0" type="line"/>
      <point x="284.0" y="1454.0" type="line"/>
    </contour>
  </outline>
</glyph>
<glyph name="twosuperior" format="2">
  <advance width="818.0"/>
  <unicode hex="00B2"/>
  <outline>
    <contour>
      <point x="96.0" y="-136.0" type="line"/>
      <point x="746.0" y="-136.0" type="line"/>
      <point x="746.0" y="-74.0" type="line"/>
      <point x="168.0" y="-74.0" type="line"/>
      <point x="174.0" y="-96.0" type="line"/>
      <point x="482.0" y="244.0" type="line" smooth="yes"/>
      <point x="624.0" y="402.0"/>
      <point x="676.0" y="492.0"/>
      <point x="676.0" y="610.0" type="curve" smooth="yes"/>
      <point x="676.0" y="792.0"/>
      <point x="558.0" y="876.0"/>
      <point x="348.0" y="876.0" type="curve" smooth="yes"/>
      <point x="246.0" y="876.0"/>
      <point x="154.0" y="862.0"/>
      <point x="84.0" y="836.0" type="curve"/>
      <point x="84.0" y="772.0" type="line"/>
      <point x="164.0" y="800.0"/>
      <point x="250.0" y="814.0"/>
      <point x="346.0" y="814.0" type="curve" smooth="yes"/>
      <point x="520.0" y="814.0"/>
      <point x="610.0" y="748.0"/>
      <point x="610.0" y="604.0" type="curve" smooth="yes"/>
      <point x="610.0" y="510.0"/>
      <point x="562.0" y="424.0"/>
      <point x="434.0" y="282.0" type="curve" smooth="yes"/>
      <point x="96.0" y="-98.0" type="line"/>
    </contour>
  </outline>
</glyph>
<glyph name="paragraph" format="2">
  <advance width="1314.0"/>
  <unicode hex="00B6"/>
  <outline>
    <contour>
      <point x="832.0" y="0.0" type="line"/>
      <point x="900.0" y="0.0" type="line"/>
      <point x="900.0" y="1480.0" type="line"/>
      <point x="808.0" y="1488.0"/>
      <point x="698.0" y="1494.0"/>
      <point x="584.0" y="1494.0" type="curve" smooth="yes"/>
      <point x="278.0" y="1494.0"/>
      <point x="106.0" y="1346.0"/>
      <point x="106.0" y="1010.0" type="curve" smooth="yes"/>
      <point x="106.0" y="696.0"/>
      <point x="258.0" y="518.0"/>
      <point x="628.0" y="518.0" type="curve" smooth="yes"/>
      <point x="704.0" y="518.0"/>
      <point x="766.0" y="522.0"/>
      <point x="832.0" y="532.0" type="curve"/>
    </contour>
    <contour>
      <point x="1030.0" y="0.0" type="line"/>
      <point x="1098.0" y="0.0" type="line"/>
      <point x="1098.0" y="1480.0" type="line"/>
      <point x="1030.0" y="1480.0" type="line"/>
    </contour>
  </outline>
</glyph>
<glyph name="cedilla" format="2">
  <advance width="1200.0"/>
  <unicode hex="00B8"/>
  <anchor x="600.0" y="0.0" name="_bottom"/>
  <outline>
    <contour>
      <point x="614.0" y="-400.0" type="curve" smooth="yes"/>
      <point x="730.0" y="-400.0"/>
      <point x="800.0" y="-350.0"/>
      <point x="800.0" y="-256.0" type="curve" smooth="yes"/>
      <point x="800.0" y="-162.0"/>
      <point x="730.0" y="-112.0"/>
      <point x="614.0" y="-112.0" type="curve"/>
      <point x="630.0" y="-142.0" type="line"/>
      <point x="630.0" y="20.0" type="line"/>
      <point x="574.0" y="20.0" type="line"/>
      <point x="574.0" y="-164.0" type="line"/>
      <point x="612.0" y="-164.0" type="line" smooth="yes"/>
      <point x="700.0" y="-164.0"/>
      <point x="744.0" y="-192.0"/>
      <point x="744.0" y="-256.0" type="curve" smooth="yes"/>
      <point x="744.0" y="-320.0"/>
      <point x="700.0" y="-348.0"/>
      <point x="614.0" y="-348.0" type="curve" smooth="yes"/>
      <point x="556.0" y="-348.0"/>
      <point x="496.0" y="-336.0"/>
      <point x="432.0" y="-304.0" type="curve"/>
      <point x="432.0" y="-360.0" type="line"/>
      <point x="478.0" y="-386.0"/>
      <point x="552.0" y="-400.0"/>
    </contour>
  </outline>
</glyph>
<glyph name="ordmasculine" format="2">
  <advance width="1044.0"/>
  <unicode hex="00BA"/>
  <outline>
    <contour>
      <point x="522.0" y="596.0" type="curve" smooth="yes"/>
      <point x="760.0" y="596.0"/>
      <point x="928.0" y="736.0"/>
      <point x="928.0" y="1046.0" type="curve" smooth="yes"/>
      <point x="928.0" y="1356.0"/>
      <point x="760.0" y="1492.0"/>
      <point x="522.0" y="1492.0" type="curve" smooth="yes"/>
      <point x="284.0" y="1492.0"/>
      <point x="116.0" y="1356.0"/>
      <point x="116.0" y="1046.0" type="curve" smooth="yes"/>
      <point x="116.0" y="736.0"/>
      <point x="284.0" y="596.0"/>
    </contour>
    <contour>
      <point x="522.0" y="660.0" type="curve" smooth="yes"/>
      <point x="318.0" y="660.0"/>
      <point x="184.0" y="770.0"/>
      <point x="184.0" y="1046.0" type="curve" smooth="yes"/>
      <point x="184.0" y="1322.0"/>
      <point x="318.0" y="1428.0"/>
      <point x="522.0" y="1428.0" type="curve" smooth="yes"/>
      <point x="726.0" y="1428.0"/>
      <point x="860.0" y="1322.0"/>
      <point x="860.0" y="1046.0" type="curve" smooth="yes"/>
      <point x="860.0" y="770.0"/>
      <point x="726.0" y="660.0"/>
    </contour>
  </outline>
</glyph>
<glyph name="onequarter" format="2">
  <advance width="1898.0"/>
  <unicode hex="00BC"/>
  <outline>
    <contour>
      <point x="422.0" y="636.0" type="line"/>
      <point x="486.0" y="636.0" type="line"/>
      <point x="486.0" y="1620.0" type="line"/>
      <point x="442.0" y="1620.0" type="line"/>
      <point x="148.0" y="1408.0" type="line"/>
      <point x="148.0" y="1334.0" type="line"/>
      <point x="442.0" y="1546.0" type="line"/>
      <point x="422.0" y="1560.0" type="line"/>
    </contour>
    <contour>
      <point x="148.0" y="616.0" type="line"/>
      <point x="746.0" y="616.0" type="line"/>
      <point x="746.0" y="678.0" type="line"/>
      <point x="148.0" y="678.0" type="line"/>
    </contour>
    <contour>
      <point x="488.0" y="-136.0" type="line"/>
      <point x="554.0" y="-136.0" type="line"/>
      <point x="1410.0" y="1616.0" type="line"/>
      <point x="1344.0" y="1616.0" type="line"/>
    </contour>
    <contour>
      <point x="1112.0" y="116.0" type="line"/>
      <point x="1874.0" y="116.0" type="line"/>
      <point x="1874.0" y="176.0" type="line"/>
      <point x="1166.0" y="176.0" type="line"/>
      <point x="1180.0" y="154.0" type="line"/>
      <point x="1612.0" y="864.0" type="line"/>
      <point x="1544.0" y="864.0" type="line"/>
      <point x="1112.0" y="156.0" type="line"/>
    </contour>
    <contour>
      <point x="1652.0" y="-136.0" type="line"/>
      <point x="1714.0" y="-136.0" type="line"/>
      <point x="1714.0" y="526.0" type="line"/>
      <point x="1664.0" y="526.0" type="line"/>
      <point x="1652.0" y="176.0" type="line"/>
    </contour>
  </outline>
</glyph>
<glyph name="Aacute" format="2">
  <advance width="1442.0"/>
  <unicode hex="00C1"/>
  <anchor x="722.0" y="1520.0" name="_top"/>
  <anchor x="722.0" y="0.0" name="bottom"/>
  <anchor x="1394.0" y="0.0" name="ogonek"/>
  <anchor x="722.0" y="1520.0" name="top"/>
  <outline>
    <contour>
      <point x="48.0" y="0.0" type="line"/>
      <point x="122.0" y="0.0" type="line"/>
      <point x="732.0" y="1440.0" type="line"/>
      <point x="708.0" y="1440.0" type="line"/>
      <point x="1318.0" y="0.0" type="line"/>
      <point x="1394.0" y="0.0" type="line"/>
      <point x="764.0" y="1480.0" type="line"/>
      <point x="678.0" y="1480.0" type="line"/>
    </contour>
    <contour>
      <point x="322.0" y="528.0" type="line"/>
      <point x="1120.0" y="528.0" type="line"/>
      <point x="1100.0" y="594.0" type="line"/>
      <point x="342.0" y="594.0" type="line"/>
    </contour>
    <contour>
      <point x="686.0" y="1616.0" type="line"/>
      <point x="758.0" y="1616.0" type="line"/>
      <point x="994.0" y="1888.0" type="line"/>
      <point x="908.0" y="1888.0" type="line"/>
    </contour>
  </outline>
</glyph>
<glyph name="Adieresis" format="2">
  <advance width="1442.0"/>
  <unicode hex="00C4"/>
  <anchor x="722.0" y="1520.0" name="_top"/>
  <anchor x="722.0" y="0.0" name="bottom"/>
  <anchor x="1394.0" y="0.0" name="ogonek"/>
  <anchor x="722.0" y="1520.0" name="top"/>
  <outline>
    <contour>
      <point x="48.0" y="0.0" type="line"/>
      <point x="122.0" y="0.0" type="line"/>
      <point x="732.0" y="1440.0" type="line"/>
      <point x="708.0" y="1440.0" type="line"/>
      <point x="1318.0" y="0.0" type="line"/>
      <point x="1394.0" y="0.0" type="line"/>
      <point x="764.0" y="1480.0" type="line"/>
      <point x="678.0" y="1480.0" type="line"/>
    </contour>
    <contour>
      <point x="322.0" y="528.0" type="line"/>
      <point x="1120.0" y="528.0" type="line"/>
      <point x="1100.0" y="594.0" type="line"/>
      <point x="342.0" y="594.0" type="line"/>
    </contour>
    <contour>
      <point x="982.0" y="1690.0" type="curve" smooth="yes"/>
      <point x="1018.0" y="1690.0"/>
      <point x="1044.0" y="1714.0"/>
      <point x="1044.0" y="1752.0" type="curve" smooth="yes"/>
      <point x="1044.0" y="1790.0"/>
      <point x="1018.0" y="1816.0"/>
      <point x="982.0" y="1816.0" type="curve" smooth="yes"/>
      <point x="946.0" y="1816.0"/>
      <point x="920.0" y="1790.0"/>
      <point x="920.0" y="1752.0" type="curve" smooth="yes"/>
      <point x="920.0" y="1714.0"/>
      <point x="946.0" y="1690.0"/>
    </contour>
    <contour>
      <point x="462.0" y="1690.0" type="curve" smooth="yes"/>
      <point x="498.0" y="1690.0"/>
      <point x="524.0" y="1714.0"/>
      <point x="524.0" y="1752.0" type="curve" smooth="yes"/>
      <point x="524.0" y="1790.0"/>
      <point x="498.0" y="1816.0"/>
      <point x="462.0" y="1816.0" type="curve" smooth="yes"/>
      <point x="426.0" y="1816.0"/>
      <point x="400.0" y="1790.0"/>
      <point x="400.0" y="1752.0" type="curve" smooth="yes"/>
      <point x="400.0" y="1714.0"/>
      <point x="426.0" y="1690.0"/>
    </contour>
  </outline>
</glyph>
<glyph name="AE" format="2">
  <advance width="1964.0"/>
  <unicode hex="00C6"/>
  <anchor x="1050.0" y="0.0" name="bottom"/>
  <anchor x="930.0" y="1520.0" name="top"/>
  <outline>
    <contour>
      <point x="48.0" y="0.0" type="line"/>
      <point x="122.0" y="0.0" type="line"/>
      <point x="730.0" y="1414.0" type="line"/>
      <point x="916.0" y="1414.0" type="line"/>
      <point x="920.0" y="1480.0" type="line"/>
      <point x="688.0" y="1480.0" type="line"/>
    </contour>
    <contour>
      <point x="332.0" y="528.0" type="line"/>
      <point x="1014.0" y="528.0" type="line"/>
      <point x="1014.0" y="594.0" type="line"/>
      <point x="352.0" y="594.0" type="line"/>
    </contour>
    <contour>
      <point x="1018.0" y="0.0" type="line"/>
      <point x="1856.0" y="0.0" type="line"/>
      <point x="1856.0" y="66.0" type="line"/>
      <point x="1082.0" y="66.0" type="line"/>
      <point x="966.0" y="1414.0" type="line"/>
      <point x="1846.0" y="1414.0" type="line"/>
      <point x="1846.0" y="1480.0" type="line"/>
      <point x="894.0" y="1480.0" type="line"/>
    </contour>
    <contour>
      <point x="1006.0" y="728.0" type="line"/>
      <point x="1746.0" y="728.0" type="line"/>
      <point x="1746.0" y="794.0" type="line"/>
      <point x="1006.0" y="794.0" type="line"/>
    </contour>
  </outline>
</glyph>
<glyph name="Igrave" format="2">
  <advance width="500.0"/>
  <unicode hex="00CC"/>
  <anchor x="250.0" y="1520.0" name="_top"/>
  <anchor x="250.0" y="0.0" name="bottom"/>
  <anchor x="284.0" y="0.0" name="ogonek"/>
  <anchor x="250.0" y="1520.0" name="top"/>
  <outline>
    <contour>
      <point x="216.0" y="0.0" type="line"/>
      <point x="284.0" y="0.0" type="line"/>
      <point x="284.0" y="1480.0" type="line"/>
      <point x="216.0" y="1480.0" type="line"/>
    </contour>
    <contour>
      <point x="214.0" y="1616.0" type="line"/>
      <point x="286.0" y="1616.0" type="line"/>
      <point x="64.0" y="1888.0" type="line"/>
      <point x="-22.0" y="1888.0" type="line"/>
    </contour>
  </outline>
</glyph>
<glyph name="Idieresis" format="2">
  <advance width="500.0"/>
  <unicode hex="00CF"/>
  <anchor x="250.0" y="1520.0" name="_top"/>
  <anchor x="250.0" y="0.0" name="bottom"/>
  <anchor x="284.0" y="0.0" name="ogonek"/>
  <anchor x="250.0" y="1520.0" name="top"/>
  <outline>
    <contour>
      <point x="216.0" y="0.0" type="line"/>
      <point x="284.0" y="0.0" type="line"/>
      <point x="284.0" y="1480.0" type="line"/>
      <point x="216.0" y="1480.0" type="line"/>
    </contour>
    <contour>
      <point x="510.0" y="1690.0" type="curve" smooth="yes"/>
      <point x="546.0" y="1690.0"/>
      <point x="572.0" y="1714.0"/>
      <point x="572.0" y="1752.0" type="curve" smooth="yes"/>
      <point x="572.0" y="1790.0"/>
      <point x="546.0" y="1816.0"/>
      <point x="510.0" y="1816.0" type="curve" smooth="yes"/>
      <point x="474.0" y="1816.0"/>
      <point x="448.0" y="1790.0"/>
      <point x="448.0" y="1752.0" type="curve" smooth="yes"/>
      <point x="448.0" y="1714.0"/>
      <point x="474.0" y="1690.0"/>
    </contour>
    <contour>
      <point x="-10.0" y="1690.0" type="curve" smooth="yes"/>
      <point x="26.0" y="1690.0"/>
      <point x="52.0" y="1714.0"/>
      <point x="52.0" y="1752.0" type="curve" smooth="yes"/>
      <point x="52.0" y="1790.0"/>
      <point x="26.0" y="1816.0"/>
      <point x="-10.0" y="1816.0" type="curve" smooth="yes"/>
      <point x="-46.0" y="1816.0"/>
      <point x="-72.0" y="1790.0"/>
      <point x="-72.0" y="1752.0" type="curve" smooth="yes"/>
      <point x="-72.0" y="1714.0"/>
      <point x="-46.0" y="1690.0"/>
    </contour>
  </outline>
</glyph>
<glyph name="Thorn" format="2">
  <advance width="1324.0"/>
  <unicode hex="00DE"/>
  <outline>
    <contour>
      <point x="216.0" y="0.0" type="line"/>
      <point x="284.0" y="0.0" type="line"/>
      <point x="284.0" y="286.0" type="line"/>
      <point x="384.0" y="276.0"/>
      <point x="460.0" y="272.0"/>
      <point x="556.0" y="272.0" type="curve" smooth="yes"/>
      <point x="1018.0" y="272.0"/>
      <point x="1208.0" y="450.0"/>
      <point x="1208.0" y="764.0" type="curve" smooth="yes"/>
      <point x="1208.0" y="1100.0"/>
      <point x="994.0" y="1248.0"/>
      <point x="610.0" y="1248.0" type="curve" smooth="yes"/>
      <point x="468.0" y="1248.0"/>
      <point x="372.0" y="1236.0"/>
      <point x="284.0" y="1220.0" type="curve"/>
      <point x="284.0" y="1482.0" type="line"/>
      <point x="216.0" y="1482.0" type="line"/>
    </contour>
    <contour>
      <point x="556.0" y="338.0" type="curve" smooth="yes"/>
      <point x="452.0" y="338.0"/>
      <point x="370.0" y="344.0"/>
      <point x="284.0" y="356.0" type="curve"/>
      <point x="284.0" y="1154.0" type="line"/>
      <point x="380.0" y="1172.0"/>
      <point x="482.0" y="1182.0"/>
      <point x="610.0" y="1182.0" type="curve" smooth="yes"/>
      <point x="958.0" y="1182.0"/>
      <point x="1136.0" y="1054.0"/>
      <point x="1136.0" y="762.0" type="curve" smooth="yes"/>
      <point x="1136.0" y="484.0"/>
      <point x="976.0" y="338.0"/>
    </contour>
  </outline>
</glyph>
<glyph name="germandbls" format="2">
  <advance width="1448.0"/>
  <unicode hex="00DF"/>
  <outline>
    <contour>
      <point x="924.0" y="-18.0" type="curve" smooth="yes"/>
      <point x="1220.0" y="-18.0"/>
      <point x="1352.0" y="100.0"/>
      <point x="1352.0" y="282.0" type="curve" smooth="yes"/>
      <point x="1352.0" y="434.0"/>
      <point x="1270.0" y="518.0"/>
      <point x="1052.0" y="558.0" type="curve" smooth="yes"/>
      <point x="886.0" y="588.0" type="line" smooth="yes"/>
      <point x="714.0" y="620.0"/>
      <point x="664.0" y="700.0"/>
      <point x="664.0" y="802.0" type="curve" smooth="yes"/>
      <point x="664.0" y="934.0"/>
      <point x="754.0" y="1030.0"/>
      <point x="1014.0" y="1030.0" type="curve" smooth="yes"/>
      <point x="1092.0" y="1030.0"/>
      <point x="1140.0" y="1022.0"/>
      <point x="1174.0" y="1016.0" type="curve"/>
      <point x="1190.0" y="1072.0"/>
      <point x="1200.0" y="1156.0"/>
      <point x="1200.0" y="1208.0" type="curve" smooth="yes"/>
      <point x="1200.0" y="1510.0"/>
      <point x="1004.0" y="1636.0"/>
      <point x="750.0" y="1636.0" type="curve" smooth="yes"/>
      <point x="438.0" y="1636.0"/>
      <point x="262.0" y="1474.0"/>
      <point x="262.0" y="1132.0" type="curve" smooth="yes"/>
      <point x="262.0" y="0.0" type="line"/>
      <point x="330.0" y="0.0" type="line"/>
      <point x="330.0" y="1126.0" type="line" smooth="yes"/>
      <point x="330.0" y="1442.0"/>
      <point x="480.0" y="1570.0"/>
      <point x="748.0" y="1570.0" type="curve" smooth="yes"/>
      <point x="970.0" y="1570.0"/>
      <point x="1136.0" y="1476.0"/>
      <point x="1134.0" y="1204.0" type="curve" smooth="yes"/>
      <point x="1134.0" y="1168.0"/>
      <point x="1128.0" y="1110.0"/>
      <point x="1116.0" y="1066.0" type="curve"/>
      <point x="1162.0" y="1084.0" type="line"/>
      <point x="1110.0" y="1090.0"/>
      <point x="1066.0" y="1094.0"/>
      <point x="1014.0" y="1094.0" type="curve" smooth="yes"/>
      <point x="714.0" y="1094.0"/>
      <point x="592.0" y="968.0"/>
      <point x="592.0" y="796.0" type="curve" smooth="yes"/>
      <point x="592.0" y="650.0"/>
      <point x="674.0" y="554.0"/>
      <point x="882.0" y="516.0" type="curve" smooth="yes"/>
      <point x="1048.0" y="486.0" type="line" smooth="yes"/>
      <point x="1226.0" y="454.0"/>
      <point x="1280.0" y="392.0"/>
      <point x="1280.0" y="274.0" type="curve" smooth="yes"/>
      <point x="1280.0" y="132.0"/>
      <point x="1184.0" y="48.0"/>
      <point x="930.0" y="48.0" type="curve" smooth="yes"/>
      <point x="822.0" y="48.0"/>
      <point x="730.0" y="58.0"/>
      <point x="606.0" y="94.0" type="curve"/>
      <point x="606.0" y="26.0" type="line"/>
      <point x="708.0" y="-6.0"/>
      <point x="806.0" y="-18.0"/>
    </contour>
    <contour>
      <point x="22.0" y="1014.0" type="line"/>
      <point x="312.0" y="1014.0" type="line"/>
      <point x="312.0" y="1080.0" type="line"/>
      <point x="22.0" y="1080.0" type="line"/>
    </contour>
  </outline>
</glyph>
<glyph name="eth" format="2">
  <advance width="1204.0"/>
  <unicode hex="00F0"/>
  <guideline x="1090.0" y="770.0" angle="90.0"/>
  <outline>
    <contour>
      <point x="604.0" y="-18.0" type="curve" smooth="yes"/>
      <point x="882.0" y="-18.0"/>
      <point x="1074.0" y="164.0"/>
      <point x="1074.0" y="570.0" type="curve" smooth="yes"/>
      <point x="1074.0" y="982.0"/>
      <point x="826.0" y="1402.0"/>
      <point x="502.0" y="1616.0" type="curve"/>
      <point x="400.0" y="1616.0" type="line"/>
      <point x="706.0" y="1408.0"/>
      <point x="860.0" y="1178.0"/>
      <point x="948.0" y="920.0" type="curve"/>
      <point x="1018.0" y="820.0" type="line"/>
      <point x="928.0" y="1032.0"/>
      <point x="776.0" y="1096.0"/>
      <point x="602.0" y="1096.0" type="curve" smooth="yes"/>
      <point x="322.0" y="1096.0"/>
      <point x="128.0" y="926.0"/>
      <point x="128.0" y="540.0" type="curve" smooth="yes"/>
      <point x="128.0" y="146.0"/>
      <point x="318.0" y="-18.0"/>
    </contour>
    <contour>
      <point x="604.0" y="48.0" type="curve" smooth="yes"/>
      <point x="358.0" y="48.0"/>
      <point x="200.0" y="184.0"/>
      <point x="200.0" y="542.0" type="curve" smooth="yes"/>
      <point x="200.0" y="896.0"/>
      <point x="358.0" y="1030.0"/>
      <point x="602.0" y="1030.0" type="curve" smooth="yes"/>
      <point x="846.0" y="1030.0"/>
      <point x="1004.0" y="896.0"/>
      <point x="1004.0" y="538.0" type="curve" smooth="yes"/>
      <point x="1004.0" y="194.0"/>
      <point x="846.0" y="48.0"/>
    </contour>
    <contour>
      <point x="244.0" y="1236.0" type="line"/>
      <point x="1052.0" y="1362.0" type="line"/>
      <point x="1044.0" y="1420.0" type="line"/>
      <point x="236.0" y="1294.0" type="line"/>
    </contour>
  </outline>
</glyph>
<glyph name="ntilde" format="2">
  <advance width="1244.0"/>
  <unicode hex="00F1"/>
  <anchor x="632.0" y="1200.0" name="_top"/>
  <anchor x="16.0" y="1200.0" name="apostrophe"/>
  <anchor x="632.0" y="0.0" name="bottom"/>
  <anchor x="632.0" y="1200.0" name="top"/>
  <outline>
    <contour>
      <point x="196.0" y="0.0" type="line"/>
      <point x="264.0" y="0.0" type="line"/>
      <point x="264.0" y="856.0" type="line"/>
      <point x="382.0" y="984.0"/>
      <point x="546.0" y="1030.0"/>
      <point x="678.0" y="1030.0" type="curve" smooth="yes"/>
      <point x="876.0" y="1030.0"/>
      <point x="998.0" y="942.0"/>
      <point x="998.0" y="702.0" type="curve" smooth="yes"/>
      <point x="998.0" y="0.0" type="line"/>
      <point x="1066.0" y="0.0" type="line"/>
      <point x="1066.0" y="700.0" type="line" smooth="yes"/>
      <point x="1066.0" y="986.0"/>
      <point x="912.0" y="1096.0"/>
      <point x="678.0" y="1096.0" type="curve" smooth="yes"/>
      <point x="528.0" y="1096.0"/>
      <point x="382.0" y="1044.0"/>
      <point x="270.0" y="946.0" type="curve"/>
      <point x="262.0" y="946.0" type="line"/>
      <point x="256.0" y="1080.0" type="line"/>
      <point x="196.0" y="1080.0" type="line"/>
    </contour>
    <contour>
      <point x="782.0" y="1380.0" type="curve" smooth="yes"/>
      <point x="852.0" y="1380.0"/>
      <point x="908.0" y="1400.0"/>
      <point x="948.0" y="1440.0" type="curve"/>
      <point x="948.0" y="1508.0" type="line"/>
      <point x="900.0" y="1460.0"/>
      <point x="848.0" y="1438.0"/>
      <point x="782.0" y="1438.0" type="curve" smooth="yes"/>
      <point x="690.0" y="1438.0"/>
      <point x="596.0" y="1512.0"/>
      <point x="482.0" y="1512.0" type="curve" smooth="yes"/>
      <point x="412.0" y="1512.0"/>
      <point x="356.0" y="1492.0"/>
      <point x="316.0" y="1452.0" type="curve"/>
      <point x="316.0" y="1384.0" type="line"/>
      <point x="364.0" y="1432.0"/>
      <point x="416.0" y="1454.0"/>
      <point x="482.0" y="1454.0" type="curve" smooth="yes"/>
      <point x="574.0" y="1454.0"/>
      <point x="668.0" y="1380.0"/>
    </contour>
  </outline>
</glyph>
<glyph name="otilde" format="2">
  <advance width="1204.0"/>
  <unicode hex="00F5"/>
  <anchor x="602.0" y="1200.0" name="_top"/>
  <anchor x="602.0" y="0.0" name="bottom"/>
  <anchor x="602.0" y="540.0" name="center"/>
  <anchor x="748.0" y="0.0" name="ogonek"/>
  <anchor x="602.0" y="1200.0" name="top"/>
  <anchor x="740.0" y="1080.0" name="topright"/>
  <outline>
    <contour>
      <point x="602.0" y="-18.0" type="curve" smooth="yes"/>
      <point x="882.0" y="-18.0"/>
      <point x="1076.0" y="154.0"/>
      <point x="1076.0" y="540.0" type="curve" smooth="yes"/>
      <point x="1076.0" y="934.0"/>
      <point x="886.0" y="1096.0"/>
      <point x="602.0" y="1096.0" type="curve" smooth="yes"/>
      <point x="322.0" y="1096.0"/>
      <point x="128.0" y="926.0"/>
      <point x="128.0" y="540.0" type="curve" smooth="yes"/>
      <point x="128.0" y="146.0"/>
      <point x="318.0" y="-18.0"/>
    </contour>
    <contour>
      <point x="602.0" y="48.0" type="curve" smooth="yes"/>
      <point x="358.0" y="48.0"/>
      <point x="200.0" y="184.0"/>
      <point x="200.0" y="542.0" type="curve" smooth="yes"/>
      <point x="200.0" y="896.0"/>
      <point x="358.0" y="1030.0"/>
      <point x="602.0" y="1030.0" type="curve" smooth="yes"/>
      <point x="846.0" y="1030.0"/>
      <point x="1004.0" y="896.0"/>
      <point x="1004.0" y="538.0" type="curve" smooth="yes"/>
      <point x="1004.0" y="184.0"/>
      <point x="846.0" y="48.0"/>
    </contour>
    <contour>
      <point x="752.0" y="1380.0" type="curve" smooth="yes"/>
      <point x="822.0" y="1380.0"/>
      <point x="878.0" y="1400.0"/>
      <point x="918.0" y="1440.0" type="curve"/>
      <point x="918.0" y="1508.0" type="line"/>
      <point x="870.0" y="1460.0"/>
      <point x="818.0" y="1438.0"/>
      <point x="752.0" y="1438.0" type="curve" smooth="yes"/>
      <point x="660.0" y="1438.0"/>
      <point x="566.0" y="1512.0"/>
      <point x="452.0" y="1512.0" type="curve" smooth="yes"/>
      <point x="382.0" y="1512.0"/>
      <point x="326.0" y="1492.0"/>
      <point x="286.0" y="1452.0" type="curve"/>
      <point x="286.0" y="1384.0" type="line"/>
      <point x="334.0" y="1432.0"/>
      <point x="386.0" y="1454.0"/>
      <point x="452.0" y="1454.0" type="curve" smooth="yes"/>
      <point x="544.0" y="1454.0"/>
      <point x="638.0" y="1380.0"/>
    </contour>
  </outline>
</glyph>
<glyph name="odieresis" format="2">
  <advance width="1204.0"/>
  <unicode hex="00F6"/>
  <anchor x="602.0" y="1200.0" name="_top"/>
  <anchor x="602.0" y="0.0" name="bottom"/>
  <anchor x="602.0" y="540.0" name="center"/>
  <anchor x="748.0" y="0.0" name="ogonek"/>
  <anchor x="602.0" y="1200.0" name="top"/>
  <anchor x="740.0" y="1080.0" name="topright"/>
  <outline>
    <contour>
      <point x="602.0" y="-18.0" type="curve" smooth="yes"/>
      <point x="882.0" y="-18.0"/>
      <point x="1076.0" y="154.0"/>
      <point x="1076.0" y="540.0" type="curve" smooth="yes"/>
      <point x="1076.0" y="934.0"/>
      <point x="886.0" y="1096.0"/>
      <point x="602.0" y="1096.0" type="curve" smooth="yes"/>
      <point x="322.0" y="1096.0"/>
      <point x="128.0" y="926.0"/>
      <point x="128.0" y="540.0" type="curve" smooth="yes"/>
      <point x="128.0" y="146.0"/>
      <point x="318.0" y="-18.0"/>
    </contour>
    <contour>
      <point x="602.0" y="48.0" type="curve" smooth="yes"/>
      <point x="358.0" y="48.0"/>
      <point x="200.0" y="184.0"/>
      <point x="200.0" y="542.0" type="curve" smooth="yes"/>
      <point x="200.0" y="896.0"/>
      <point x="358.0" y="1030.0"/>
      <point x="602.0" y="1030.0" type="curve" smooth="yes"/>
      <point x="846.0" y="1030.0"/>
      <point x="1004.0" y="896.0"/>
      <point x="1004.0" y="538.0" type="curve" smooth="yes"/>
      <point x="1004.0" y="184.0"/>
      <point x="846.0" y="48.0"/>
    </contour>
    <contour>
      <point x="842.0" y="1360.0" type="curve" smooth="yes"/>
      <point x="878.0" y="1360.0"/>
      <point x="904.0" y="1384.0"/>
      <point x="904.0" y="1422.0" type="curve" smooth="yes"/>
      <point x="904.0" y="1460.0"/>
      <point x="878.0" y="1486.0"/>
      <point x="842.0" y="1486.0" type="curve" smooth="yes"/>
      <point x="806.0" y="1486.0"/>
      <point x="780.0" y="1460.0"/>
      <point x="780.0" y="1422.0" type="curve" smooth="yes"/>
      <point x="780.0" y="1384.0"/>
      <point x="806.0" y="1360.0"/>
    </contour>
    <contour>
      <point x="362.0" y="1360.0" type="curve" smooth="yes"/>
      <point x="398.0" y="1360.0"/>
      <point x="424.0" y="1384.0"/>
      <point x="424.0" y="1422.0" type="curve" smooth="yes"/>
      <point x="424.0" y="1460.0"/>
      <point x="398.0" y="1486.0"/>
      <point x="362.0" y="1486.0" type="curve" smooth="yes"/>
      <point x="326.0" y="1486.0"/>
      <point x="300.0" y="1460.0"/>
      <point x="300.0" y="1422.0" type="curve" smooth="yes"/>
      <point x="300.0" y="1384.0"/>
      <point x="326.0" y="1360.0"/>
    </contour>
  </outline>
</glyph>
<glyph name="divide" format="2">
  <advance width="1108.0"/>
  <unicode hex="00F7"/>
  <outline>
    <contour>
      <point x="190.0" y="728.0" type="line"/>
      <point x="918.0" y="728.0" type="line"/>
      <point x="918.0" y="792.0" type="line"/>
      <point x="190.0" y="792.0" type="line"/>
    </contour>
    <contour>
      <point x="554.0" y="368.0" type="curve" smooth="yes"/>
      <point x="590.0" y="368.0"/>
      <point x="616.0" y="392.0"/>
      <point x="616.0" y="430.0" type="curve" smooth="yes"/>
      <point x="616.0" y="468.0"/>
      <point x="590.0" y="494.0"/>
      <point x="554.0" y="494.0" type="curve" smooth="yes"/>
      <point x="518.0" y="494.0"/>
      <point x="492.0" y="468.0"/>
      <point x="492.0" y="430.0" type="curve" smooth="yes"/>
      <point x="492.0" y="392.0"/>
      <point x="518.0" y="368.0"/>
    </contour>
    <contour>
      <point x="554.0" y="1026.0" type="curve" smooth="yes"/>
      <point x="590.0" y="1026.0"/>
      <point x="616.0" y="1050.0"/>
      <point x="616.0" y="1088.0" type="curve" smooth="yes"/>
      <point x="616.0" y="1126.0"/>
      <point x="590.0" y="1152.0"/>
      <point x="554.0" y="1152.0" type="curve" smooth="yes"/>
      <point x="518.0" y="1152.0"/>
      <point x="492.0" y="1126.0"/>
      <point x="492.0" y="1088.0" type="curve" smooth="yes"/>
      <point x="492.0" y="1050.0"/>
      <point x="518.0" y="1026.0"/>
    </contour>
  </outline>
</glyph>
<glyph name="aogonek" format="2">
  <advance width="1106.0"/>
  <unicode hex="0105"/>
  <anchor x="928.0" y="0.0" name="_ogonek"/>
  <anchor x="574.0" y="0.0" name="bottom"/>
  <anchor x="928.0" y="0.0" name="ogonek"/>
  <anchor x="550.0" y="1200.0" name="top"/>
  <outline>
    <contour>
      <point x="478.0" y="-16.0" type="curve" smooth="yes"/>
      <point x="628.0" y="-16.0"/>
      <point x="772.0" y="46.0"/>
      <point x="854.0" y="134.0" type="curve"/>
      <point x="862.0" y="134.0" type="line"/>
      <point x="868.0" y="0.0" type="line"/>
      <point x="928.0" y="0.0" type="line"/>
      <point x="928.0" y="738.0" type="line" smooth="yes"/>
      <point x="928.0" y="1012.0"/>
      <point x="778.0" y="1096.0"/>
      <point x="524.0" y="1096.0" type="curve" smooth="yes"/>
      <point x="414.0" y="1096.0"/>
      <point x="290.0" y="1078.0"/>
      <point x="196.0" y="1042.0" type="curve"/>
      <point x="196.0" y="974.0" type="line"/>
      <point x="314.0" y="1016.0"/>
      <point x="432.0" y="1030.0"/>
      <point x="526.0" y="1030.0" type="curve" smooth="yes"/>
      <point x="738.0" y="1030.0"/>
      <point x="860.0" y="972.0"/>
      <point x="860.0" y="736.0" type="curve" smooth="yes"/>
      <point x="860.0" y="218.0" type="line"/>
      <point x="756.0" y="106.0"/>
      <point x="620.0" y="50.0"/>
      <point x="478.0" y="50.0" type="curve" smooth="yes"/>
      <point x="292.0" y="50.0"/>
      <point x="208.0" y="134.0"/>
      <point x="208.0" y="272.0" type="curve" smooth="yes"/>
      <point x="208.0" y="406.0"/>
      <point x="294.0" y="478.0"/>
      <point x="522.0" y="506.0" type="curve" smooth="yes"/>
      <point x="898.0" y="552.0" type="line"/>
      <point x="902.0" y="618.0" type="line"/>
      <point x="524.0" y="572.0" type="line" smooth="yes"/>
      <point x="246.0" y="538.0"/>
      <point x="134.0" y="444.0"/>
      <point x="134.0" y="268.0" type="curve" smooth="yes"/>
      <point x="134.0" y="90.0"/>
      <point x="260.0" y="-16.0"/>
    </contour>
    <contour>
      <point x="878.0" y="-400.0" type="curve" smooth="yes"/>
      <point x="930.0" y="-400.0"/>
      <point x="996.0" y="-384.0"/>
      <point x="1046.0" y="-358.0" type="curve"/>
      <point x="1046.0" y="-302.0" type="line"/>
      <point x="986.0" y="-334.0"/>
      <point x="930.0" y="-348.0"/>
      <point x="874.0" y="-348.0" type="curve" smooth="yes"/>
      <point x="788.0" y="-348.0"/>
      <point x="734.0" y="-302.0"/>
      <point x="734.0" y="-228.0" type="curve" smooth="yes"/>
      <point x="734.0" y="-140.0"/>
      <point x="790.0" y="-74.0"/>
      <point x="928.0" y="0.0" type="curve"/>
      <point x="904.0" y="48.0" type="line"/>
      <point x="748.0" y="-34.0"/>
      <point x="678.0" y="-120.0"/>
      <point x="678.0" y="-230.0" type="curve" smooth="yes"/>
      <point x="678.0" y="-334.0"/>
      <point x="754.0" y="-400.0"/>
    </contour>
  </outline>
</glyph>
<glyph name="Gbreve" format="2">
  <advance width="1496.0"/>
  <unicode hex="011E"/>
  <anchor x="800.0" y="1520.0" name="_top"/>
  <anchor x="800.0" y="0.0" name="bottom"/>
  <anchor x="800.0" y="1520.0" name="top"/>
  <outline>
    <contour>
      <point x="922.0" y="-10.0" type="curve" smooth="yes"/>
      <point x="1046.0" y="-10.0"/>
      <point x="1144.0" y="-4.0"/>
      <point x="1294.0" y="20.0" type="curve"/>
      <point x="1294.0" y="720.0" type="line"/>
      <point x="1226.0" y="720.0" type="line"/>
      <point x="1226.0" y="50.0" type="line"/>
      <point x="1248.0" y="84.0" type="line"/>
      <point x="1158.0" y="66.0"/>
      <point x="1058.0" y="56.0"/>
      <point x="922.0" y="56.0" type="curve" smooth="yes"/>
      <point x="456.0" y="56.0"/>
      <point x="212.0" y="278.0"/>
      <point x="210.0" y="742.0" type="curve" smooth="yes"/>
      <point x="208.0" y="1238.0"/>
      <point x="496.0" y="1432.0"/>
      <point x="874.0" y="1432.0" type="curve" smooth="yes"/>
      <point x="982.0" y="1432.0"/>
      <point x="1096.0" y="1420.0"/>
      <point x="1254.0" y="1376.0" type="curve"/>
      <point x="1254.0" y="1444.0" type="line"/>
      <point x="1116.0" y="1480.0"/>
      <point x="1002.0" y="1498.0"/>
      <point x="870.0" y="1498.0" type="curve" smooth="yes"/>
      <point x="458.0" y="1498.0"/>
      <point x="136.0" y="1274.0"/>
      <point x="138.0" y="738.0" type="curve" smooth="yes"/>
      <point x="140.0" y="238.0"/>
      <point x="412.0" y="-10.0"/>
    </contour>
    <contour>
      <point x="802.0" y="1628.0" type="curve" smooth="yes"/>
      <point x="1014.0" y="1628.0"/>
      <point x="1108.0" y="1730.0"/>
      <point x="1122.0" y="1860.0" type="curve"/>
      <point x="1062.0" y="1860.0" type="line"/>
      <point x="1046.0" y="1758.0"/>
      <point x="984.0" y="1688.0"/>
      <point x="802.0" y="1688.0" type="curve" smooth="yes"/>
      <point x="620.0" y="1688.0"/>
      <point x="554.0" y="1758.0"/>
      <point x="538.0" y="1860.0" type="curve"/>
      <point x="478.0" y="1860.0" type="line"/>
      <point x="492.0" y="1732.0"/>
      <point x="590.0" y="1628.0"/>
    </contour>
  </outline>
</glyph>
<glyph name="hcircumflex" format="2">
  <advance width="1244.0"/>
  <unicode hex="0125"/>
  <anchor x="632.0" y="1616.0" name="_top"/>
  <anchor x="632.0" y="0.0" name="bottom"/>
  <anchor x="632.0" y="540.0" name="center"/>
  <anchor x="196.0" y="1356.0" name="stroke"/>
  <anchor x="632.0" y="1616.0" name="top"/>
  <outline>
    <contour>
      <point x="196.0" y="0.0" type="line"/>
      <point x="264.0" y="0.0" type="line"/>
      <point x="264.0" y="854.0" type="line"/>
      <point x="378.0" y="976.0"/>
      <point x="534.0" y="1028.0"/>
      <point x="678.0" y="1028.0" type="curve" smooth="yes"/>
      <point x="870.0" y="1028.0"/>
      <point x="998.0" y="946.0"/>
      <point x="998.0" y="706.0" type="curve" smooth="yes"/>
      <point x="998.0" y="0.0" type="line"/>
      <point x="1066.0" y="0.0" type="line"/>
      <point x="1066.0" y="708.0" type="line" smooth="yes"/>
      <point x="1066.0" y="988.0"/>
      <point x="912.0" y="1096.0"/>
      <point x="680.0" y="1096.0" type="curve" smooth="yes"/>
      <point x="524.0" y="1096.0"/>
      <point x="380.0" y="1046.0"/>
      <point x="270.0" y="950.0" type="curve"/>
      <point x="264.0" y="950.0" type="line"/>
      <point x="264.0" y="1616.0" type="line"/>
      <point x="196.0" y="1616.0" type="line"/>
    </contour>
    <contour>
      <point x="310.0" y="1712.0" type="line"/>
      <point x="402.0" y="1712.0" type="line"/>
      <point x="650.0" y="1956.0" type="line"/>
      <point x="614.0" y="1956.0" type="line"/>
      <point x="862.0" y="1712.0" type="line"/>
      <point x="954.0" y="1712.0" type="line"/>
      <point x="670.0" y="1984.0" type="line"/>
      <point x="594.0" y="1984.0" type="line"/>
    </contour>
  </outline>
</glyph>
<glyph name="Hbar" format="2">
  <advance width="1576.0"/>
  <unicode hex="0126"/>
  <anchor x="788.0" y="1140.0" name="_center"/>
  <anchor x="788.0" y="0.0" name="bottom"/>
  <anchor x="788.0" y="1140.0" name="center"/>
  <anchor x="788.0" y="1520.0" name="top"/>
  <anchor x="46.0" y="1480.0" name="topleft"/>
  <outline>
    <contour>
      <point x="216.0" y="0.0" type="line"/>
      <point x="284.0" y="0.0" type="line"/>
      <point x="284.0" y="728.0" type="line"/>
      <point x="1292.0" y="728.0" type="line"/>
      <point x="1292.0" y="0.0" type="line"/>
      <point x="1360.0" y="0.0" type="line"/>
      <point x="1360.0" y="1480.0" type="line"/>
      <point x="1292.0" y="1480.0" type="line"/>
      <point x="1292.0" y="794.0" type="line"/>
      <point x="284.0" y="794.0" type="line"/>
      <point x="284.0" y="1480.0" type="line"/>
      <point x="216.0" y="1480.0" type="line"/>
    </contour>
    <contour>
      <point x="8.0" y="1110.0" type="line"/>
      <point x="1568.0" y="1110.0" type="line"/>
      <point x="1568.0" y="1170.0" type="line"/>
      <point x="8.0" y="1170.0" type="line"/>
    </contour>
  </outline>
</glyph>
<glyph name="ibreve" format="2">
  <advance width="460.0"/>
  <unicode hex="012D"/>
  <anchor x="230.0" y="1200.0" name="_top"/>
  <anchor x="230.0" y="0.0" name="bottom"/>
  <anchor x="264.0" y="0.0" name="ogonek"/>
  <anchor x="230.0" y="1200.0" name="top"/>
  <outline>
    <contour>
      <point x="196.0" y="0.0" type="line"/>
      <point x="264.0" y="0.0" type="line"/>
      <point x="264.0" y="1080.0" type="line"/>
      <point x="196.0" y="1080.0" type="line"/>
    </contour>
    <contour>
      <point x="232.0" y="1276.0" type="curve" smooth="yes"/>
      <point x="424.0" y="1276.0"/>
      <point x="524.0" y="1406.0"/>
      <point x="532.0" y="1588.0" type="curve"/>
      <point x="472.0" y="1588.0" type="line"/>
      <point x="462.0" y="1440.0"/>
      <point x="398.0" y="1334.0"/>
      <point x="232.0" y="1334.0" type="curve" smooth="yes"/>
      <point x="66.0" y="1334.0"/>
      <point x="-2.0" y="1440.0"/>
      <point x="-12.0" y="1588.0" type="curve"/>
      <point x="-72.0" y="1588.0" type="line"/>
      <point x="-64.0" y="1408.0"/>
      <point x="38.0" y="1276.0"/>
    </contour>
  </outline>
</glyph>
<glyph name="Lcommaaccent" format="2">
  <advance width="1164.0"/>
  <unicode hex="013B"/>
  <anchor x="680.0" y="0.0" name="_bottom"/>
  <anchor x="680.0" y="0.0" name="bottom"/>
  <anchor x="754.0" y="1616.0" name="caronalt"/>
  <anchor x="814.0" y="774.0" name="periodcentered"/>
  <anchor x="250.0" y="774.0" name="slash"/>
  <anchor x="250.0" y="1520.0" name="top"/>
  <outline>
    <contour>
      <point x="216.0" y="0.0" type="line"/>
      <point x="1142.0" y="0.0" type="line"/>
      <point x="1142.0" y="66.0" type="line"/>
      <point x="284.0" y="66.0" type="line"/>
      <point x="284.0" y="1480.0" type="line"/>
      <point x="216.0" y="1480.0" type="line"/>
    </contour>
    <contour>
      <point x="654.0" y="-448.0" type="curve"/>
      <point x="698.0" y="-448.0" type="line"/>
      <point x="728.0" y="-386.0"/>
      <point x="742.0" y="-318.0"/>
      <point x="742.0" y="-270.0" type="curve" smooth="yes"/>
      <point x="742.0" y="-212.0"/>
      <point x="716.0" y="-184.0"/>
      <point x="676.0" y="-184.0" type="curve" smooth="yes"/>
      <point x="642.0" y="-184.0"/>
      <point x="618.0" y="-210.0"/>
      <point x="618.0" y="-246.0" type="curve" smooth="yes"/>
      <point x="618.0" y="-284.0"/>
      <point x="644.0" y="-310.0"/>
      <point x="680.0" y="-310.0" type="curve" smooth="yes"/>
      <point x="692.0" y="-310.0" type="line"/>
      <point x="688.0" y="-278.0" type="line"/>
      <point x="688.0" y="-326.0"/>
      <point x="682.0" y="-376.0"/>
    </contour>
  </outline>
</glyph>
<glyph name="Lslash" format="2">
  <advance width="1164.0"/>
  <unicode hex="0141"/>
  <anchor x="250.0" y="774.0" name="_slash"/>
  <anchor x="680.0" y="0.0" name="bottom"/>
  <anchor x="754.0" y="1616.0" name="caronalt"/>
  <anchor x="814.0" y="774.0" name="periodcentered"/>
  <anchor x="250.0" y="774.0" name="slash"/>
  <anchor x="250.0" y="1520.0" name="top"/>
  <outline>
    <contour>
      <point x="216.0" y="0.0" type="line"/>
      <point x="1142.0" y="0.0" type="line"/>
      <point x="1142.0" y="66.0" type="line"/>
      <point x="284.0" y="66.0" type="line"/>
      <point x="284.0" y="1480.0" type="line"/>
      <point x="216.0" y="1480.0" type="line"/>
    </contour>
    <contour>
      <point x="44.0" y="568.0" type="line"/>
      <point x="638.0" y="1032.0" type="line"/>
      <point x="600.0" y="1080.0" type="line"/>
      <point x="6.0" y="616.0" type="line"/>
    </contour>
  </outline>
</glyph>
<glyph name="Eng" format="2">
  <advance width="1606.0"/>
  <unicode hex="014A"/>
  <outline>
    <contour>
      <point x="1324.0" y="-10.0" type="line"/>
      <point x="1364.0" y="50.0" type="line"/>
      <point x="290.0" y="1480.0" type="line"/>
      <point x="216.0" y="1480.0" type="line"/>
      <point x="216.0" y="0.0" type="line"/>
      <point x="282.0" y="0.0" type="line"/>
      <point x="282.0" y="1420.0" type="line"/>
      <point x="250.0" y="1420.0" type="line"/>
    </contour>
    <contour>
      <point x="1158.0" y="-460.0" type="line"/>
      <point x="1318.0" y="-268.0"/>
      <point x="1390.0" y="-78.0"/>
      <point x="1390.0" y="170.0" type="curve" smooth="yes"/>
      <point x="1390.0" y="1480.0" type="line"/>
      <point x="1324.0" y="1480.0" type="line"/>
      <point x="1324.0" y="166.0" type="line" smooth="yes"/>
      <point x="1324.0" y="-64.0"/>
      <point x="1256.0" y="-248.0"/>
      <point x="1110.0" y="-424.0" type="curve"/>
    </contour>
  </outline>
</glyph>
<glyph name="eng" format="2">
  <advance width="1244.0"/>
  <unicode hex="014B"/>
  <outline>
    <contour>
      <point x="834.0" y="-460.0" type="line"/>
      <point x="994.0" y="-268.0"/>
      <point x="1052.0" y="-98.0"/>
      <point x="1066.0" y="130.0" type="curve"/>
      <point x="1066.0" y="708.0" type="line" smooth="yes"/>
      <point x="1066.0" y="988.0"/>
      <point x="912.0" y="1096.0"/>
      <point x="680.0" y="1096.0" type="curve" smooth="yes"/>
      <point x="524.0" y="1096.0"/>
      <point x="380.0" y="1046.0"/>
      <point x="270.0" y="946.0" type="curve"/>
      <point x="262.0" y="946.0" type="line"/>
      <point x="256.0" y="1080.0" type="line"/>
      <point x="196.0" y="1080.0" type="line"/>
      <point x="196.0" y="0.0" type="line"/>
      <point x="264.0" y="0.0" type="line"/>
      <point x="264.0" y="854.0" type="line"/>
      <point x="378.0" y="976.0"/>
      <point x="534.0" y="1030.0"/>
      <point x="678.0" y="1030.0" type="curve" smooth="yes"/>
      <point x="870.0" y="1030.0"/>
      <point x="998.0" y="946.0"/>
      <point x="998.0" y="706.0" type="curve" smooth="yes"/>
      <point x="998.0" y="166.0" type="line" smooth="yes"/>
      <point x="998.0" y="-64.0"/>
      <point x="932.0" y="-248.0"/>
      <point x="786.0" y="-424.0" type="curve"/>
    </contour>
  </outline>
</glyph>
<glyph name="Rcommaaccent" format="2">
  <advance width="1410.0"/>
  <unicode hex="0156"/>
  <anchor x="724.0" y="0.0" name="_bottom"/>
  <anchor x="724.0" y="0.0" name="bottom"/>
  <anchor x="678.0" y="1520.0" name="top"/>
  <outline>
    <contour>
      <point x="216.0" y="0.0" type="line"/>
      <point x="284.0" y="0.0" type="line"/>
      <point x="284.0" y="664.0" type="line"/>
      <point x="384.0" y="656.0"/>
      <point x="462.0" y="650.0"/>
      <point x="576.0" y="650.0" type="curve" smooth="yes"/>
      <point x="1010.0" y="650.0"/>
      <point x="1214.0" y="792.0"/>
      <point x="1214.0" y="1076.0" type="curve" smooth="yes"/>
      <point x="1214.0" y="1374.0"/>
      <point x="1028.0" y="1494.0"/>
      <point x="622.0" y="1494.0" type="curve" smooth="yes"/>
      <point x="446.0" y="1494.0"/>
      <point x="328.0" y="1476.0"/>
      <point x="216.0" y="1454.0" type="curve"/>
    </contour>
    <contour>
      <point x="1228.0" y="0.0" type="line"/>
      <point x="1314.0" y="0.0" type="line"/>
      <point x="714.0" y="708.0" type="line"/>
      <point x="630.0" y="708.0" type="line"/>
    </contour>
    <contour>
      <point x="578.0" y="716.0" type="curve" smooth="yes"/>
      <point x="448.0" y="716.0"/>
      <point x="392.0" y="720.0"/>
      <point x="284.0" y="730.0" type="curve"/>
      <point x="284.0" y="1398.0" type="line"/>
      <point x="384.0" y="1416.0"/>
      <point x="470.0" y="1428.0"/>
      <point x="620.0" y="1428.0" type="curve" smooth="yes"/>
      <point x="990.0" y="1428.0"/>
      <point x="1146.0" y="1340.0"/>
      <point x="1146.0" y="1072.0" type="curve" smooth="yes"/>
      <point x="1146.0" y="836.0"/>
      <point x="984.0" y="716.0"/>
    </contour>
    <contour>
      <point x="698.0" y="-448.0" type="curve"/>
      <point x="742.0" y="-448.0" type="line"/>
      <point x="772.0" y="-386.0"/>
      <point x="786.0" y="-318.0"/>
      <point x="786.0" y="-270.0" type="curve" smooth="yes"/>
      <point x="786.0" y="-212.0"/>
      <point x="760.0" y="-184.0"/>
      <point x="720.0" y="-184.0" type="curve" smooth="yes"/>
      <point x="686.0" y="-184.0"/>
      <point x="662.0" y="-210.0"/>
      <point x="662.0" y="-246.0" type="curve" smooth="yes"/>
      <point x="662.0" y="-284.0"/>
      <point x="688.0" y="-310.0"/>
      <point x="724.0" y="-310.0" type="curve" smooth="yes"/>
      <point x="736.0" y="-310.0" type="line"/>
      <point x="732.0" y="-278.0" type="line"/>
      <point x="732.0" y="-326.0"/>
      <point x="726.0" y="-376.0"/>
    </contour>
  </outline>
</glyph>
<glyph name="rcaron" format="2">
  <advance width="780.0"/>
  <unicode hex="0159"/>
  <anchor x="480.0" y="1200.0" name="_top"/>
  <anchor x="230.0" y="0.0" name="bottom"/>
  <anchor x="480.0" y="1200.0" name="top"/>
  <outline>
    <contour>
      <point x="196.0" y="0.0" type="line"/>
      <point x="264.0" y="0.0" type="line"/>
      <point x="264.0" y="844.0" type="line"/>
      <point x="366.0" y="968.0"/>
      <point x="532.0" y="1018.0"/>
      <point x="650.0" y="1018.0" type="curve" smooth="yes"/>
      <point x="692.0" y="1018.0"/>
      <point x="728.0" y="1016.0"/>
      <point x="764.0" y="1010.0" type="curve"/>
      <point x="764.0" y="1078.0" type="line"/>
      <point x="722.0" y="1086.0"/>
      <point x="692.0" y="1088.0"/>
      <point x="650.0" y="1088.0" type="curve" smooth="yes"/>
      <point x="514.0" y="1088.0"/>
      <point x="362.0" y="1028.0"/>
      <point x="270.0" y="932.0" type="curve"/>
      <point x="262.0" y="932.0" type="line"/>
      <point x="256.0" y="1080.0" type="line"/>
      <point x="196.0" y="1080.0" type="line"/>
    </contour>
    <contour>
      <point x="442.0" y="1264.0" type="line"/>
      <point x="518.0" y="1264.0" type="line"/>
      <point x="786.0" y="1616.0" type="line"/>
      <point x="708.0" y="1616.0" type="line"/>
      <point x="462.0" y="1286.0" type="line"/>
      <point x="498.0" y="1286.0" type="line"/>
      <point x="252.0" y="1616.0" type="line"/>
      <point x="174.0" y="1616.0" type="line"/>
    </contour>
  </outline>
</glyph>
<glyph name="scedilla" format="2">
  <advance width="988.0"/>
  <unicode hex="015F"/>
  <anchor x="498.0" y="0.0" name="_bottom"/>
  <anchor x="498.0" y="0.0" name="bottom"/>
  <anchor x="498.0" y="1200.0" name="top"/>
  <outline>
    <contour>
      <point x="464.0" y="-18.0" type="curve" smooth="yes"/>
      <point x="760.0" y="-18.0"/>
      <point x="892.0" y="100.0"/>
      <point x="892.0" y="282.0" type="curve" smooth="yes"/>
      <point x="892.0" y="434.0"/>
      <point x="806.0" y="520.0"/>
      <point x="592.0" y="558.0" type="curve" smooth="yes"/>
      <point x="426.0" y="588.0" type="line" smooth="yes"/>
      <point x="250.0" y="620.0"/>
      <point x="204.0" y="700.0"/>
      <point x="204.0" y="802.0" type="curve" smooth="yes"/>
      <point x="204.0" y="934.0"/>
      <point x="294.0" y="1030.0"/>
      <point x="554.0" y="1030.0" type="curve" smooth="yes"/>
      <point x="648.0" y="1030.0"/>
      <point x="724.0" y="1020.0"/>
      <point x="830.0" y="990.0" type="curve"/>
      <point x="830.0" y="1058.0" type="line"/>
      <point x="738.0" y="1084.0"/>
      <point x="650.0" y="1096.0"/>
      <point x="554.0" y="1096.0" type="curve" smooth="yes"/>
      <point x="254.0" y="1096.0"/>
      <point x="132.0" y="968.0"/>
      <point x="132.0" y="800.0" type="curve" smooth="yes"/>
      <point x="132.0" y="650.0"/>
      <point x="214.0" y="554.0"/>
      <point x="422.0" y="516.0" type="curve" smooth="yes"/>
      <point x="588.0" y="486.0" type="line" smooth="yes"/>
      <point x="766.0" y="454.0"/>
      <point x="820.0" y="392.0"/>
      <point x="820.0" y="274.0" type="curve" smooth="yes"/>
      <point x="820.0" y="132.0"/>
      <point x="724.0" y="48.0"/>
      <point x="470.0" y="48.0" type="curve" smooth="yes"/>
      <point x="362.0" y="48.0"/>
      <point x="270.0" y="58.0"/>
      <point x="146.0" y="94.0" type="curve"/>
      <point x="146.0" y="26.0" type="line"/>
      <point x="248.0" y="-6.0"/>
      <point x="346.0" y="-18.0"/>
    </contour>
    <contour>
      <point x="512.0" y="-400.0" type="curve" smooth="yes"/>
      <point x="628.0" y="-400.0"/>
      <point x="698.0" y="-350.0"/>
      <point x="698.0" y="-256.0" type="curve" smooth="yes"/>
      <point x="698.0" y="-162.0"/>
      <point x="628.0" y="-112.0"/>
      <point x="512.0" y="-112.0" type="curve"/>
      <point x="528.0" y="-142.0" type="line"/>
      <point x="528.0" y="20.0" type="line"/>
      <point x="472.0" y="20.0" type="line"/>
      <point x="472.0" y="-164.0" type="line"/>
      <point x="510.0" y="-164.0" type="line" smooth="yes"/>
      <point x="598.0" y="-164.0"/>
      <point x="642.0" y="-192.0"/>
      <point x="642.0" y="-256.0" type="curve" smooth="yes"/>
      <point x="642.0" y="-320.0"/>
      <point x="598.0" y="-348.0"/>
      <point x="512.0" y="-348.0" type="curve" smooth="yes"/>
      <point x="454.0" y="-348.0"/>
      <point x="394.0" y="-336.0"/>
      <point x="330.0" y="-304.0" type="curve"/>
      <point x="330.0" y="-360.0" type="line"/>
      <point x="376.0" y="-386.0"/>
      <point x="450.0" y="-400.0"/>
    </contour>
  </outline>
</glyph>
<glyph name="Tcedilla" format="2">
  <advance width="1244.0"/>
  <unicode hex="0162"/>
  <anchor x="622.0" y="0.0" name="_bottom"/>
  <anchor x="622.0" y="0.0" name="bottom"/>
  <anchor x="622.0" y="800.0" name="center"/>
  <anchor x="622.0" y="1520.0" name="top"/>
  <outline>
    <contour>
      <point x="588.0" y="0.0" type="line"/>
      <point x="656.0" y="0.0" type="line"/>
      <point x="656.0" y="1414.0" type="line"/>
      <point x="1224.0" y="1414.0" type="line"/>
      <point x="1224.0" y="1480.0" type="line"/>
      <point x="20.0" y="1480.0" type="line"/>
      <point x="20.0" y="1414.0" type="line"/>
      <point x="588.0" y="1414.0" type="line"/>
    </contour>
    <contour>
      <point x="634.0" y="-400.0" type="curve" smooth="yes"/>
      <point x="760.0" y="-400.0"/>
      <point x="840.0" y="-354.0"/>
      <point x="840.0" y="-256.0" type="curve" smooth="yes"/>
      <point x="840.0" y="-158.0"/>
      <point x="760.0" y="-112.0"/>
      <point x="640.0" y="-112.0" type="curve"/>
      <point x="650.0" y="-142.0" type="line"/>
      <point x="650.0" y="20.0" type="line"/>
      <point x="594.0" y="20.0" type="line"/>
      <point x="594.0" y="-164.0" type="line"/>
      <point x="632.0" y="-164.0" type="line" smooth="yes"/>
      <point x="730.0" y="-164.0"/>
      <point x="784.0" y="-192.0"/>
      <point x="784.0" y="-256.0" type="curve" smooth="yes"/>
      <point x="784.0" y="-320.0"/>
      <point x="730.0" y="-348.0"/>
      <point x="634.0" y="-348.0" type="curve" smooth="yes"/>
      <point x="570.0" y="-348.0"/>
      <point x="510.0" y="-336.0"/>
      <point x="432.0" y="-304.0" type="curve"/>
      <point x="432.0" y="-360.0" type="line"/>
      <point x="490.0" y="-386.0"/>
      <point x="568.0" y="-400.0"/>
    </contour>
  </outline>
</glyph>
<glyph name="Ubreve" format="2">
  <advance width="1546.0"/>
  <unicode hex="016C"/>
  <anchor x="774.0" y="1520.0" name="_top"/>
  <anchor x="774.0" y="0.0" name="bottom"/>
  <anchor x="926.0" y="4.0" name="ogonek"/>
  <anchor x="774.0" y="1520.0" name="top"/>
  <anchor x="1272.0" y="1480.0" name="topright"/>
  <outline>
    <contour>
      <point x="774.0" y="-18.0" type="curve" smooth="yes"/>
      <point x="1156.0" y="-18.0"/>
      <point x="1338.0" y="154.0"/>
      <point x="1338.0" y="566.0" type="curve" smooth="yes"/>
      <point x="1338.0" y="1480.0" type="line"/>
      <point x="1272.0" y="1480.0" type="line"/>
      <point x="1272.0" y="556.0" type="line" smooth="yes"/>
      <point x="1272.0" y="198.0"/>
      <point x="1114.0" y="48.0"/>
      <point x="774.0" y="48.0" type="curve" smooth="yes"/>
      <point x="434.0" y="48.0"/>
      <point x="276.0" y="198.0"/>
      <point x="276.0" y="556.0" type="curve" smooth="yes"/>
      <point x="276.0" y="1480.0" type="line"/>
      <point x="208.0" y="1480.0" type="line"/>
      <point x="208.0" y="566.0" type="line" smooth="yes"/>
      <point x="208.0" y="154.0"/>
      <point x="392.0" y="-18.0"/>
    </contour>
    <contour>
      <point x="776.0" y="1628.0" type="curve" smooth="yes"/>
      <point x="988.0" y="1628.0"/>
      <point x="1082.0" y="1730.0"/>
      <point x="1096.0" y="1860.0" type="curve"/>
      <point x="1036.0" y="1860.0" type="line"/>
      <point x="1020.0" y="1758.0"/>
      <point x="958.0" y="1688.0"/>
      <point x="776.0" y="1688.0" type="curve" smooth="yes"/>
      <point x="594.0" y="1688.0"/>
      <point x="528.0" y="1758.0"/>
      <point x="512.0" y="1860.0" type="curve"/>
      <point x="452.0" y="1860.0" type="line"/>
      <point x="466.0" y="1732.0"/>
      <point x="564.0" y="1628.0"/>
    </contour>
  </outline>
</glyph>
<glyph name="Uogonek" format="2">
  <advance width="1546.0"/>
  <unicode hex="0172"/>
  <outline>
    <contour>
      <point x="876.0" y="-396.0" type="curve" smooth="yes"/>
      <point x="938.0" y="-396.0"/>
      <point x="1002.0" y="-382.0"/>
      <point x="1064.0" y="-356.0" type="curve"/>
      <point x="1064.0" y="-302.0" type="line"/>
      <point x="986.0" y="-330.0"/>
      <point x="934.0" y="-344.0"/>
      <point x="872.0" y="-344.0" type="curve" smooth="yes"/>
      <point x="768.0" y="-344.0"/>
      <point x="712.0" y="-300.0"/>
      <point x="712.0" y="-220.0" type="curve" smooth="yes"/>
      <point x="712.0" y="-124.0"/>
      <point x="792.0" y="-44.0"/>
      <point x="984.0" y="4.0" type="curve" smooth="yes"/>
      <point x="1224.0" y="64.0"/>
      <point x="1338.0" y="238.0"/>
      <point x="1338.0" y="566.0" type="curve" smooth="yes"/>
      <point x="1338.0" y="1480.0" type="line"/>
      <point x="1272.0" y="1480.0" type="line"/>
      <point x="1272.0" y="556.0" type="line" smooth="yes"/>
      <point x="1272.0" y="198.0"/>
      <point x="1114.0" y="48.0"/>
      <point x="774.0" y="48.0" type="curve" smooth="yes"/>
      <point x="434.0" y="48.0"/>
      <point x="276.0" y="198.0"/>
      <point x="276.0" y="556.0" type="curve" smooth="yes"/>
      <point x="276.0" y="1480.0" type="line"/>
      <point x="208.0" y="1480.0" type="line"/>
      <point x="208.0" y="566.0" type="line" smooth="yes"/>
      <point x="208.0" y="154.0"/>
      <point x="392.0" y="-18.0"/>
      <point x="774.0" y="-18.0" type="curve" smooth="yes"/>
      <point x="824.0" y="-18.0" type="line"/>
      <point x="818.0" y="-6.0" type="line"/>
      <point x="698.0" y="-58.0"/>
      <point x="656.0" y="-142.0"/>
      <point x="656.0" y="-218.0" type="curve" smooth="yes"/>
      <point x="656.0" y="-332.0"/>
      <point x="730.0" y="-396.0"/>
    </contour>
  </outline>
</glyph>
<glyph name="Ycircumflex" format="2">
  <advance width="1244.0"/>
  <unicode hex="0176"/>
  <anchor x="622.0" y="1520.0" name="_top"/>
  <anchor x="622.0" y="0.0" name="bottom"/>
  <anchor x="622.0" y="1520.0" name="top"/>
  <anchor x="16.0" y="1480.0" name="topleft"/>
  <outline>
    <contour>
      <point x="588.0" y="0.0" type="line"/>
      <point x="656.0" y="0.0" type="line"/>
      <point x="656.0" y="706.0" type="line"/>
      <point x="636.0" y="652.0" type="line"/>
      <point x="1252.0" y="1480.0" type="line"/>
      <point x="1168.0" y="1480.0" type="line"/>
      <point x="604.0" y="716.0" type="line"/>
      <point x="644.0" y="716.0" type="line"/>
      <point x="72.0" y="1480.0" type="line"/>
      <point x="-16.0" y="1480.0" type="line"/>
      <point x="608.0" y="652.0" type="line"/>
      <point x="588.0" y="706.0" type="line"/>
    </contour>
    <contour>
      <point x="300.0" y="1616.0" type="line"/>
      <point x="392.0" y="1616.0" type="line"/>
      <point x="640.0" y="1860.0" type="line"/>
      <point x="604.0" y="1860.0" type="line"/>
      <point x="852.0" y="1616.0" type="line"/>
      <point x="944.0" y="1616.0" type="line"/>
      <point x="660.0" y="1888.0" type="line"/>
      <point x="584.0" y="1888.0" type="line"/>
    </contour>
  </outline>
</glyph>
<glyph name="Ydieresis" format="2">
  <advance width="1244.0"/>
  <unicode hex="0178"/>
  <anchor x="622.0" y="1520.0" name="_top"/>
  <anchor x="622.0" y="0.0" name="bottom"/>
  <anchor x="622.0" y="1520.0" name="top"/>
  <anchor x="16.0" y="1480.0" name="topleft"/>
  <outline>
    <contour>
      <point x="588.0" y="0.0" type="line"/>
      <point x="656.0" y="0.0" type="line"/>
      <point x="656.0" y="706.0" type="line"/>
      <point x="636.0" y="652.0" type="line"/>
      <point x="1252.0" y="1480.0" type="line"/>
      <point x="1168.0" y="1480.0" type="line"/>
      <point x="604.0" y="716.0" type="line"/>
      <point x="644.0" y="716.0" type="line"/>
      <point x="72.0" y="1480.0" type="line"/>
      <point x="-16.0" y="1480.0" type="line"/>
      <point x="608.0" y="652.0" type="line"/>
      <point x="588.0" y="706.0" type="line"/>
    </contour>
    <contour>
      <point x="882.0" y="1690.0" type="curve" smooth="yes"/>
      <point x="918.0" y="1690.0"/>
      <point x="944.0" y="1714.0"/>
      <point x="944.0" y="1752.0" type="curve" smooth="yes"/>
      <point x="944.0" y="1790.0"/>
      <point x="918.0" y="1816.0"/>
      <point x="882.0" y="1816.0" type="curve" smooth="yes"/>
      <point x="846.0" y="1816.0"/>
      <point x="820.0" y="1790.0"/>
      <point x="820.0" y="1752.0" type="curve" smooth="yes"/>
      <point x="820.0" y="1714.0"/>
      <point x="846.0" y="1690.0"/>
    </contour>
    <contour>
      <point x="362.0" y="1690.0" type="curve" smooth="yes"/>
      <point x="398.0" y="1690.0"/>
      <point x="424.0" y="1714.0"/>
      <point x="424.0" y="1752.0" type="curve" smooth="yes"/>
      <point x="424.0" y="1790.0"/>
      <point x="398.0" y="1816.0"/>
      <point x="362.0" y="1816.0" type="curve" smooth="yes"/>
      <point x="326.0" y="1816.0"/>
      <point x="300.0" y="1790.0"/>
      <point x="300.0" y="1752.0" type="curve" smooth="yes"/>
      <point x="300.0" y="1714.0"/>
      <point x="326.0" y="1690.0"/>
    </contour>
  </outline>
</glyph>
<glyph name="zdotaccent" format="2">
  <advance width="988.0"/>
  <unicode hex="017C"/>
  <anchor x="496.0" y="1200.0" name="_top"/>
  <anchor x="496.0" y="0.0" name="bottom"/>
  <anchor x="496.0" y="1200.0" name="top"/>
  <outline>
    <contour>
      <point x="68.0" y="0.0" type="line"/>
      <point x="924.0" y="0.0" type="line"/>
      <point x="924.0" y="64.0" type="line"/>
      <point x="150.0" y="64.0" type="line"/>
      <point x="150.0" y="40.0" type="line"/>
      <point x="910.0" y="1040.0" type="line"/>
      <point x="910.0" y="1080.0" type="line"/>
      <point x="82.0" y="1080.0" type="line"/>
      <point x="82.0" y="1016.0" type="line"/>
      <point x="828.0" y="1016.0" type="line"/>
      <point x="828.0" y="1040.0" type="line"/>
      <point x="68.0" y="40.0" type="line"/>
    </contour>
    <contour>
      <point x="496.0" y="1360.0" type="curve" smooth="yes"/>
      <point x="532.0" y="1360.0"/>
      <point x="558.0" y="1384.0"/>
      <point x="558.0" y="1422.0" type="curve" smooth="yes"/>
      <point x="558.0" y="1460.0"/>
      <point x="532.0" y="1486.0"/>
      <point x="496.0" y="1486.0" type="curve" smooth="yes"/>
      <point x="460.0" y="1486.0"/>
      <point x="434.0" y="1460.0"/>
      <point x="434.0" y="1422.0" type="curve" smooth="yes"/>
      <point x="434.0" y="1384.0"/>
      <point x="460.0" y="1360.0"/>
    </contour>
  </outline>
</glyph>
<glyph name="Schwa" format="2">
  <advance width="1574.0"/>
  <unicode hex="018F"/>
  <anchor x="788.0" y="0.0" name="bottom"/>
  <anchor x="788.0" y="1520.0" name="top"/>
  <outline>
    <contour>
      <point x="796.0" y="-18.0" type="curve" smooth="yes"/>
      <point x="1170.0" y="-18.0"/>
      <point x="1436.0" y="196.0"/>
      <point x="1436.0" y="738.0" type="curve" smooth="yes"/>
      <point x="1436.0" y="1274.0"/>
      <point x="1126.0" y="1498.0"/>
      <point x="638.0" y="1498.0" type="curve" smooth="yes"/>
      <point x="494.0" y="1498.0"/>
      <point x="352.0" y="1484.0"/>
      <point x="206.0" y="1444.0" type="curve"/>
      <point x="206.0" y="1376.0" type="line"/>
      <point x="350.0" y="1416.0"/>
      <point x="512.0" y="1432.0"/>
      <point x="640.0" y="1432.0" type="curve" smooth="yes"/>
      <point x="1090.0" y="1432.0"/>
      <point x="1364.0" y="1238.0"/>
      <point x="1364.0" y="736.0" type="curve" smooth="yes"/>
      <point x="1364.0" y="242.0"/>
      <point x="1128.0" y="50.0"/>
      <point x="796.0" y="50.0" type="curve" smooth="yes"/>
      <point x="436.0" y="50.0"/>
      <point x="200.0" y="242.0"/>
      <point x="200.0" y="736.0" type="curve"/>
      <point x="164.0" y="714.0" type="line"/>
      <point x="1394.0" y="714.0" type="line"/>
      <point x="1394.0" y="780.0" type="line"/>
      <point x="128.0" y="780.0" type="line"/>
      <point x="128.0" y="720.0" type="line" smooth="yes"/>
      <point x="128.0" y="196.0"/>
      <point x="400.0" y="-18.0"/>
    </contour>
  </outline>
</glyph>
<glyph name="Uhorn" format="2">
  <advance width="1546.0"/>
  <unicode hex="01AF"/>
  <anchor x="774.0" y="0.0" name="bottom"/>
  <anchor x="774.0" y="1520.0" name="top"/>
  <outline>
    <contour>
      <point x="774.0" y="-18.0" type="curve" smooth="yes"/>
      <point x="1156.0" y="-18.0"/>
      <point x="1338.0" y="154.0"/>
      <point x="1338.0" y="566.0" type="curve" smooth="yes"/>
      <point x="1338.0" y="1416.0" type="line"/>
      <point x="1502.0" y="1422.0"/>
      <point x="1592.0" y="1502.0"/>
      <point x="1592.0" y="1632.0" type="curve" smooth="yes"/>
      <point x="1592.0" y="1692.0"/>
      <point x="1584.0" y="1730.0"/>
      <point x="1566.0" y="1776.0" type="curve"/>
      <point x="1500.0" y="1776.0" type="line"/>
      <point x="1516.0" y="1730.0"/>
      <point x="1526.0" y="1690.0"/>
      <point x="1526.0" y="1634.0" type="curve" smooth="yes"/>
      <point x="1526.0" y="1526.0"/>
      <point x="1448.0" y="1480.0"/>
      <point x="1306.0" y="1480.0" type="curve" smooth="yes"/>
      <point x="1272.0" y="1480.0" type="line"/>
      <point x="1272.0" y="556.0" type="line" smooth="yes"/>
      <point x="1272.0" y="198.0"/>
      <point x="1114.0" y="48.0"/>
      <point x="774.0" y="48.0" type="curve" smooth="yes"/>
      <point x="434.0" y="48.0"/>
      <point x="276.0" y="198.0"/>
      <point x="276.0" y="556.0" type="curve" smooth="yes"/>
      <point x="276.0" y="1480.0" type="line"/>
      <point x="208.0" y="1480.0" type="line"/>
      <point x="208.0" y="566.0" type="line" smooth="yes"/>
      <point x="208.0" y="154.0"/>
      <point x="392.0" y="-18.0"/>
    </contour>
  </outline>
</glyph>
<glyph name="gcaron" format="2">
  <advance width="1228.0"/>
  <unicode hex="01E7"/>
  <anchor x="630.0" y="1200.0" name="_top"/>
  <anchor x="630.0" y="-440.0" name="bottom"/>
  <anchor x="630.0" y="1200.0" name="top"/>
  <outline>
    <contour>
      <point x="540.0" y="-460.0" type="curve" smooth="yes"/>
      <point x="866.0" y="-460.0"/>
      <point x="1032.0" y="-322.0"/>
      <point x="1032.0" y="28.0" type="curve" smooth="yes"/>
      <point x="1032.0" y="1048.0" type="line"/>
      <point x="920.0" y="1080.0"/>
      <point x="810.0" y="1096.0"/>
      <point x="692.0" y="1096.0" type="curve" smooth="yes"/>
      <point x="320.0" y="1096.0"/>
      <point x="128.0" y="906.0"/>
      <point x="128.0" y="518.0" type="curve" smooth="yes"/>
      <point x="128.0" y="130.0"/>
      <point x="330.0" y="-18.0"/>
      <point x="592.0" y="-18.0" type="curve" smooth="yes"/>
      <point x="746.0" y="-18.0"/>
      <point x="872.0" y="38.0"/>
      <point x="958.0" y="126.0" type="curve"/>
      <point x="964.0" y="126.0" type="line"/>
      <point x="964.0" y="22.0" type="line" smooth="yes"/>
      <point x="964.0" y="-286.0"/>
      <point x="830.0" y="-394.0"/>
      <point x="542.0" y="-394.0" type="curve" smooth="yes"/>
      <point x="434.0" y="-394.0"/>
      <point x="324.0" y="-376.0"/>
      <point x="198.0" y="-334.0" type="curve"/>
      <point x="198.0" y="-402.0" type="line"/>
      <point x="302.0" y="-440.0"/>
      <point x="440.0" y="-460.0"/>
    </contour>
    <contour>
      <point x="596.0" y="48.0" type="curve" smooth="yes"/>
      <point x="370.0" y="48.0"/>
      <point x="200.0" y="170.0"/>
      <point x="200.0" y="526.0" type="curve" smooth="yes"/>
      <point x="200.0" y="872.0"/>
      <point x="364.0" y="1030.0"/>
      <point x="684.0" y="1030.0" type="curve" smooth="yes"/>
      <point x="796.0" y="1030.0"/>
      <point x="892.0" y="1016.0"/>
      <point x="964.0" y="996.0" type="curve"/>
      <point x="964.0" y="214.0" type="line"/>
      <point x="868.0" y="96.0"/>
      <point x="730.0" y="48.0"/>
    </contour>
    <contour>
      <point x="592.0" y="1264.0" type="line"/>
      <point x="668.0" y="1264.0" type="line"/>
      <point x="936.0" y="1616.0" type="line"/>
      <point x="858.0" y="1616.0" type="line"/>
      <point x="612.0" y="1286.0" type="line"/>
      <point x="648.0" y="1286.0" type="line"/>
      <point x="402.0" y="1616.0" type="line"/>
      <point x="324.0" y="1616.0" type="line"/>
    </contour>
  </outline>
</glyph>
<glyph name="oogonek" format="2">
  <advance width="1204.0"/>
  <unicode hex="01EB"/>
  <anchor x="602.0" y="0.0" name="bottom"/>
  <anchor x="602.0" y="540.0" name="center"/>
  <anchor x="602.0" y="1200.0" name="top"/>
  <anchor x="740.0" y="1080.0" name="topright"/>
  <outline>
    <contour>
      <point x="644.0" y="-400.0" type="curve" smooth="yes"/>
      <point x="696.0" y="-400.0"/>
      <point x="760.0" y="-386.0"/>
      <point x="812.0" y="-360.0" type="curve"/>
      <point x="792.0" y="-312.0" type="line"/>
      <point x="742.0" y="-336.0"/>
      <point x="692.0" y="-348.0"/>
      <point x="640.0" y="-348.0" type="curve" smooth="yes"/>
      <point x="556.0" y="-348.0"/>
      <point x="500.0" y="-304.0"/>
      <point x="500.0" y="-228.0" type="curve" smooth="yes"/>
      <point x="500.0" y="-148.0"/>
      <point x="548.0" y="-52.0"/>
      <point x="746.0" y="0.0" type="curve" smooth="yes"/>
      <point x="948.0" y="52.0"/>
      <point x="1076.0" y="224.0"/>
      <point x="1076.0" y="540.0" type="curve" smooth="yes"/>
      <point x="1076.0" y="934.0"/>
      <point x="886.0" y="1096.0"/>
      <point x="602.0" y="1096.0" type="curve" smooth="yes"/>
      <point x="322.0" y="1096.0"/>
      <point x="128.0" y="926.0"/>
      <point x="128.0" y="540.0" type="curve" smooth="yes"/>
      <point x="128.0" y="146.0"/>
      <point x="318.0" y="-18.0"/>
      <point x="602.0" y="-18.0" type="curve"/>
      <point x="610.0" y="0.0" type="line"/>
      <point x="486.0" y="-62.0"/>
      <point x="444.0" y="-144.0"/>
      <point x="444.0" y="-230.0" type="curve" smooth="yes"/>
      <point x="444.0" y="-336.0"/>
      <point x="524.0" y="-400.0"/>
    </contour>
    <contour>
      <point x="602.0" y="48.0" type="curve" smooth="yes"/>
      <point x="358.0" y="48.0"/>
      <point x="200.0" y="184.0"/>
      <point x="200.0" y="542.0" type="curve" smooth="yes"/>
      <point x="200.0" y="896.0"/>
      <point x="358.0" y="1030.0"/>
      <point x="602.0" y="1030.0" type="curve" smooth="yes"/>
      <point x="846.0" y="1030.0"/>
      <point x="1004.0" y="896.0"/>
      <point x="1004.0" y="538.0" type="curve" smooth="yes"/>
      <point x="1004.0" y="184.0"/>
      <point x="846.0" y="48.0"/>
    </contour>
  </outline>
</glyph>
<glyph name="Ainvertedbreve" format="2">
  <advance width="1442.0"/>
  <unicode hex="0202"/>
  <anchor x="722.0" y="1520.0" name="_top"/>
  <anchor x="722.0" y="0.0" name="bottom"/>
  <anchor x="1394.0" y="0.0" name="ogonek"/>
  <anchor x="722.0" y="1520.0" name="top"/>
  <outline>
    <contour>
      <point x="48.0" y="0.0" type="line"/>
      <point x="122.0" y="0.0" type="line"/>
      <point x="732.0" y="1440.0" type="line"/>
      <point x="708.0" y="1440.0" type="line"/>
      <point x="1318.0" y="0.0" type="line"/>
      <point x="1394.0" y="0.0" type="line"/>
      <point x="764.0" y="1480.0" type="line"/>
      <point x="678.0" y="1480.0" type="line"/>
    </contour>
    <contour>
      <point x="322.0" y="528.0" type="line"/>
      <point x="1120.0" y="528.0" type="line"/>
      <point x="1100.0" y="594.0" type="line"/>
      <point x="342.0" y="594.0" type="line"/>
    </contour>
    <contour>
      <point x="400.0" y="1644.0" type="curve"/>
      <point x="460.0" y="1644.0" type="line"/>
      <point x="476.0" y="1746.0"/>
      <point x="538.0" y="1816.0"/>
      <point x="720.0" y="1816.0" type="curve" smooth="yes"/>
      <point x="902.0" y="1816.0"/>
      <point x="968.0" y="1746.0"/>
      <point x="984.0" y="1644.0" type="curve"/>
      <point x="1044.0" y="1644.0" type="line"/>
      <point x="1030.0" y="1772.0"/>
      <point x="932.0" y="1876.0"/>
      <point x="720.0" y="1876.0" type="curve" smooth="yes"/>
      <point x="508.0" y="1876.0"/>
      <point x="414.0" y="1774.0"/>
    </contour>
  </outline>
</glyph>
<glyph name="iinvertedbreve" format="2">
  <advance width="460.0"/>
  <unicode hex="020B"/>
  <anchor x="230.0" y="1200.0" name="_top"/>
  <anchor x="230.0" y="0.0" name="bottom"/>
  <anchor x="264.0" y="0.0" name="ogonek"/>
  <anchor x="230.0" y="1200.0" name="top"/>
  <outline>
    <contour>
      <point x="196.0" y="0.0" type="line"/>
      <point x="264.0" y="0.0" type="line"/>
      <point x="264.0" y="1080.0" type="line"/>
      <point x="196.0" y="1080.0" type="line"/>
    </contour>
    <contour>
      <point x="-72.0" y="1292.0" type="curve"/>
      <point x="-12.0" y="1292.0" type="line"/>
      <point x="-2.0" y="1440.0"/>
      <point x="66.0" y="1544.0"/>
      <point x="228.0" y="1544.0" type="curve" smooth="yes"/>
      <point x="390.0" y="1544.0"/>
      <point x="462.0" y="1440.0"/>
      <point x="472.0" y="1292.0" type="curve"/>
      <point x="532.0" y="1292.0" type="line"/>
      <point x="524.0" y="1472.0"/>
      <point x="422.0" y="1604.0"/>
      <point x="228.0" y="1604.0" type="curve" smooth="yes"/>
      <point x="34.0" y="1604.0"/>
      <point x="-64.0" y="1474.0"/>
    </contour>
  </outline>
</glyph>
<glyph name="Udblgrave" format="2">
  <advance width="1546.0"/>
  <unicode hex="0214"/>
  <anchor x="774.0" y="1520.0" name="_top"/>
  <anchor x="774.0" y="0.0" name="bottom"/>
  <anchor x="926.0" y="4.0" name="ogonek"/>
  <anchor x="774.0" y="1520.0" name="top"/>
  <anchor x="1272.0" y="1480.0" name="topright"/>
  <outline>
    <contour>
      <point x="774.0" y="-18.0" type="curve" smooth="yes"/>
      <point x="1156.0" y="-18.0"/>
      <point x="1338.0" y="154.0"/>
      <point x="1338.0" y="566.0" type="curve" smooth="yes"/>
      <point x="1338.0" y="1480.0" type="line"/>
      <point x="1272.0" y="1480.0" type="line"/>
      <point x="1272.0" y="556.0" type="line" smooth="yes"/>
      <point x="1272.0" y="198.0"/>
      <point x="1114.0" y="48.0"/>
      <point x="774.0" y="48.0" type="curve" smooth="yes"/>
      <point x="434.0" y="48.0"/>
      <point x="276.0" y="198.0"/>
      <point x="276.0" y="556.0" type="curve" smooth="yes"/>
      <point x="276.0" y="1480.0" type="line"/>
      <point x="208.0" y="1480.0" type="line"/>
      <point x="208.0" y="566.0" type="line" smooth="yes"/>
      <point x="208.0" y="154.0"/>
      <point x="392.0" y="-18.0"/>
    </contour>
    <contour>
      <point x="908.0" y="1616.0" type="line"/>
      <point x="976.0" y="1616.0" type="line"/>
      <point x="816.0" y="1888.0" type="line"/>
      <point x="744.0" y="1888.0" type="line"/>
    </contour>
    <contour>
      <point x="572.0" y="1616.0" type="line"/>
      <point x="640.0" y="1616.0" type="line"/>
      <point x="480.0" y="1888.0" type="line"/>
      <point x="408.0" y="1888.0" type="line"/>
    </contour>
  </outline>
</glyph>
<glyph name="jdotless" format="2">
  <advance width="460.0"/>
  <unicode hex="0237"/>
  <anchor x="230.0" y="1212.0" name="top"/>
  <outline>
    <contour>
      <point x="32.0" y="-460.0" type="line"/>
      <point x="192.0" y="-268.0"/>
      <point x="264.0" y="-78.0"/>
      <point x="264.0" y="170.0" type="curve" smooth="yes"/>
      <point x="264.0" y="1080.0" type="line"/>
      <point x="196.0" y="1080.0" type="line"/>
      <point x="196.0" y="166.0" type="line" smooth="yes"/>
      <point x="196.0" y="-64.0"/>
      <point x="130.0" y="-248.0"/>
      <point x="-16.0" y="-424.0" type="curve"/>
    </contour>
  </outline>
</glyph>
<glyph name="ringhalfleft" format="2">
  <advance width="1200.0"/>
  <unicode hex="02BF"/>
  <anchor x="600.0" y="1200.0" name="_top"/>
  <anchor x="600.0" y="1556.0" name="top"/>
  <outline>
    <contour>
      <point x="600.0" y="1260.0" type="curve"/>
      <point x="600.0" y="1312.0" type="line"/>
      <point x="524.0" y="1312.0"/>
      <point x="470.0" y="1362.0"/>
      <point x="470.0" y="1444.0" type="curve" smooth="yes"/>
      <point x="470.0" y="1526.0"/>
      <point x="524.0" y="1576.0"/>
      <point x="600.0" y="1576.0" type="curve"/>
      <point x="600.0" y="1628.0" type="line"/>
      <point x="494.0" y="1628.0"/>
      <point x="416.0" y="1550.0"/>
      <point x="416.0" y="1444.0" type="curve" smooth="yes"/>
      <point x="416.0" y="1338.0"/>
      <point x="494.0" y="1260.0"/>
    </contour>
  </outline>
</glyph>
<glyph name="verticallinelowmod" format="2">
  <advance width="1200.0"/>
  <unicode hex="02CC"/>
  <outline>
    <contour>
      <point x="570.0" y="-440.0" type="line"/>
      <point x="630.0" y="-440.0" type="line"/>
      <point x="630.0" y="-40.0" type="line"/>
      <point x="570.0" y="-40.0" type="line"/>
    </contour>
  </outline>
</glyph>
<glyph name="hungarumlaut" format="2">
  <advance width="1200.0"/>
  <unicode hex="02DD"/>
  <anchor x="600.0" y="1200.0" name="_top"/>
  <anchor x="600.0" y="1616.0" name="top"/>
  <outline>
    <contour>
      <point x="734.0" y="1264.0" type="line"/>
      <point x="798.0" y="1264.0" type="line"/>
      <point x="986.0" y="1616.0" type="line"/>
      <point x="916.0" y="1616.0" type="line"/>
    </contour>
    <contour>
      <point x="402.0" y="1264.0" type="line"/>
      <point x="466.0" y="1264.0" type="line"/>
      <point x="654.0" y="1616.0" type="line"/>
      <point x="584.0" y="1616.0" type="line"/>
    </contour>
  </outline>
</glyph>
<glyph name="hookabovecomb" format="2">
  <unicode hex="0309"/>
  <anchor x="600.0" y="1200.0" name="_top"/>
  <anchor x="600.0" y="1616.0" name="top"/>
  <outline>
    <contour>
      <point x="570.0" y="1264.0" type="curve"/>
      <point x="632.0" y="1264.0" type="line"/>
      <point x="638.0" y="1384.0"/>
      <point x="806.0" y="1364.0"/>
      <point x="806.0" y="1494.0" type="curve" smooth="yes"/>
      <point x="806.0" y="1578.0"/>
      <point x="742.0" y="1628.0"/>
      <point x="598.0" y="1628.0" type="curve" smooth="yes"/>
      <point x="540.0" y="1628.0"/>
      <point x="478.0" y="1618.0"/>
      <point x="436.0" y="1604.0" type="curve"/>
      <point x="436.0" y="1548.0" type="line"/>
      <point x="484.0" y="1564.0"/>
      <point x="550.0" y="1572.0"/>
      <point x="604.0" y="1572.0" type="curve" smooth="yes"/>
      <point x="700.0" y="1572.0"/>
      <point x="748.0" y="1548.0"/>
      <point x="748.0" y="1494.0" type="curve" smooth="yes"/>
      <point x="748.0" y="1402.0"/>
      <point x="576.0" y="1412.0"/>
    </contour>
  </outline>
</glyph>
<glyph name="dblgravecomb" format="2">
  <unicode hex="030F"/>
  <anchor x="600.0" y="1200.0" name="_top"/>
  <anchor x="600.0" y="1616.0" name="top"/>
  <outline>
    <contour>
      <point x="734.0" y="1264.0" type="line"/>
      <point x="802.0" y="1264.0" type="line"/>
      <point x="620.0" y="1616.0" type="line"/>
      <point x="546.0" y="1616.0" type="line"/>
    </contour>
    <contour>
      <point x="398.0" y="1264.0" type="line"/>
      <point x="466.0" y="1264.0" type="line"/>
      <point x="284.0" y="1616.0" type="line"/>
      <point x="210.0" y="1616.0" type="line"/>
    </contour>
  </outline>
</glyph>
<glyph name="horncomb" format="2">
  <unicode hex="031B"/>
  <anchor x="600.0" y="1480.0" name="_topright"/>
  <anchor x="600.0" y="1480.0" name="topright"/>
  <outline>
    <contour>
      <point x="600.0" y="1412.0" type="line"/>
      <point x="630.0" y="1412.0" type="line" smooth="yes"/>
      <point x="820.0" y="1412.0"/>
      <point x="920.0" y="1502.0"/>
      <point x="920.0" y="1648.0" type="curve" smooth="yes"/>
      <point x="920.0" y="1708.0"/>
      <point x="912.0" y="1746.0"/>
      <point x="894.0" y="1792.0" type="curve"/>
      <point x="828.0" y="1792.0" type="line"/>
      <point x="844.0" y="1746.0"/>
      <point x="854.0" y="1706.0"/>
      <point x="854.0" y="1650.0" type="curve" smooth="yes"/>
      <point x="854.0" y="1534.0"/>
      <point x="776.0" y="1480.0"/>
      <point x="634.0" y="1480.0" type="curve" smooth="yes"/>
      <point x="600.0" y="1480.0" type="line"/>
    </contour>
  </outline>
</glyph>
<glyph name="ogonekcomb" format="2">
  <unicode hex="0328"/>
  <anchor x="600.0" y="0.0" name="_ogonek"/>
  <outline>
    <contour>
      <point x="550.0" y="-400.0" type="curve" smooth="yes"/>
      <point x="602.0" y="-400.0"/>
      <point x="668.0" y="-384.0"/>
      <point x="718.0" y="-358.0" type="curve"/>
      <point x="718.0" y="-302.0" type="line"/>
      <point x="658.0" y="-334.0"/>
      <point x="602.0" y="-348.0"/>
      <point x="546.0" y="-348.0" type="curve" smooth="yes"/>
      <point x="460.0" y="-348.0"/>
      <point x="406.0" y="-302.0"/>
      <point x="406.0" y="-228.0" type="curve" smooth="yes"/>
      <point x="406.0" y="-140.0"/>
      <point x="462.0" y="-74.0"/>
      <point x="600.0" y="0.0" type="curve"/>
      <point x="576.0" y="48.0" type="line"/>
      <point x="420.0" y="-34.0"/>
      <point x="350.0" y="-120.0"/>
      <point x="350.0" y="-230.0" type="curve" smooth="yes"/>
      <point x="350.0" y="-334.0"/>
      <point x="426.0" y="-400.0"/>
    </contour>
  </outline>
</glyph>
<glyph name="brevebelowcomb" format="2">
  <unicode hex="032E"/>
  <anchor x="600.0" y="0.0" name="_bottom"/>
  <anchor x="600.0" y="-440.0" name="bottom"/>
  <outline>
    <contour>
      <point x="602.0" y="-400.0" type="curve" smooth="yes"/>
      <point x="804.0" y="-400.0"/>
      <point x="900.0" y="-294.0"/>
      <point x="902.0" y="-160.0" type="curve"/>
      <point x="842.0" y="-160.0" type="line"/>
      <point x="836.0" y="-266.0"/>
      <point x="772.0" y="-340.0"/>
      <point x="602.0" y="-340.0" type="curve" smooth="yes"/>
      <point x="432.0" y="-340.0"/>
      <point x="364.0" y="-266.0"/>
      <point x="358.0" y="-160.0" type="curve"/>
      <point x="298.0" y="-160.0" type="line"/>
      <point x="300.0" y="-292.0"/>
      <point x="400.0" y="-400.0"/>
    </contour>
  </outline>
</glyph>
<glyph name="slashshortcomb" format="2">
  <unicode hex="0337"/>
  <anchor x="400.0" y="774.0" name="_slash"/>
  <outline>
    <contour>
      <point x="226.0" y="598.0" type="line"/>
      <point x="616.0" y="902.0" type="line"/>
      <point x="578.0" y="950.0" type="line"/>
      <point x="188.0" y="646.0" type="line"/>
    </contour>
  </outline>
</glyph>
<glyph name="Omega" format="2">
  <advance width="1572.0"/>
  <unicode hex="03A9"/>
  <outline>
    <contour>
      <point x="138.0" y="0.0" type="line"/>
      <point x="654.0" y="0.0" type="line"/>
      <point x="654.0" y="64.0" type="line"/>
      <point x="360.0" y="236.0"/>
      <point x="210.0" y="464.0"/>
      <point x="210.0" y="796.0" type="curve" smooth="yes"/>
      <point x="210.0" y="1192.0"/>
      <point x="408.0" y="1430.0"/>
      <point x="786.0" y="1430.0" type="curve" smooth="yes"/>
      <point x="1164.0" y="1430.0"/>
      <point x="1362.0" y="1192.0"/>
      <point x="1362.0" y="796.0" type="curve" smooth="yes"/>
      <point x="1362.0" y="464.0"/>
      <point x="1212.0" y="236.0"/>
      <point x="918.0" y="64.0" type="curve"/>
      <point x="918.0" y="0.0" type="line"/>
      <point x="1434.0" y="0.0" type="line"/>
      <point x="1434.0" y="66.0" type="line"/>
      <point x="1002.0" y="66.0" type="line"/>
      <point x="1018.0" y="54.0" type="line"/>
      <point x="1286.0" y="218.0"/>
      <point x="1434.0" y="464.0"/>
      <point x="1434.0" y="800.0" type="curve" smooth="yes"/>
      <point x="1434.0" y="1230.0"/>
      <point x="1204.0" y="1498.0"/>
      <point x="786.0" y="1498.0" type="curve" smooth="yes"/>
      <point x="368.0" y="1498.0"/>
      <point x="138.0" y="1230.0"/>
      <point x="138.0" y="800.0" type="curve" smooth="yes"/>
      <point x="138.0" y="464.0"/>
      <point x="286.0" y="218.0"/>
      <point x="554.0" y="54.0" type="curve"/>
      <point x="570.0" y="66.0" type="line"/>
      <point x="138.0" y="66.0" type="line"/>
    </contour>
  </outline>
</glyph>
<glyph name="pi" format="2">
  <advance width="1382.0"/>
  <unicode hex="03C0"/>
  <outline>
    <contour>
      <point x="1254.0" y="-18.0" type="curve" smooth="yes"/>
      <point x="1292.0" y="-18.0"/>
      <point x="1338.0" y="-12.0"/>
      <point x="1374.0" y="-4.0" type="curve"/>
      <point x="1374.0" y="64.0" type="line"/>
      <point x="1334.0" y="54.0"/>
      <point x="1294.0" y="48.0"/>
      <point x="1258.0" y="48.0" type="curve" smooth="yes"/>
      <point x="1122.0" y="48.0"/>
      <point x="1054.0" y="108.0"/>
      <point x="1054.0" y="290.0" type="curve" smooth="yes"/>
      <point x="1054.0" y="1046.0" type="line"/>
      <point x="982.0" y="1046.0" type="line"/>
      <point x="986.0" y="278.0" type="line" smooth="yes"/>
      <point x="988.0" y="64.0"/>
      <point x="1088.0" y="-18.0"/>
    </contour>
    <contour>
      <point x="254.0" y="-2.0" type="line"/>
      <point x="322.0" y="-2.0" type="line"/>
      <point x="322.0" y="1046.0" type="line"/>
      <point x="254.0" y="1046.0" type="line"/>
    </contour>
    <contour>
      <point x="14.0" y="1016.0" type="line"/>
      <point x="1294.0" y="1016.0" type="line"/>
      <point x="1294.0" y="1080.0" type="line"/>
      <point x="14.0" y="1080.0" type="line"/>
    </contour>
  </outline>
</glyph>
<glyph name="Ccedillaacute" format="2">
  <advance width="1272.0"/>
  <unicode hex="1E08"/>
  <anchor x="780.0" y="0.0" name="_bottom"/>
  <anchor x="780.0" y="0.0" name="bottom"/>
  <anchor x="760.0" y="1520.0" name="top"/>
  <outline>
    <contour>
      <point x="824.0" y="-18.0" type="curve" smooth="yes"/>
      <point x="970.0" y="-18.0"/>
      <point x="1094.0" y="2.0"/>
      <point x="1218.0" y="48.0" type="curve"/>
      <point x="1218.0" y="116.0" type="line"/>
      <point x="1070.0" y="64.0"/>
      <point x="958.0" y="48.0"/>
      <point x="826.0" y="48.0" type="curve" smooth="yes"/>
      <point x="460.0" y="48.0"/>
      <point x="210.0" y="218.0"/>
      <point x="210.0" y="742.0" type="curve" smooth="yes"/>
      <point x="210.0" y="1238.0"/>
      <point x="448.0" y="1432.0"/>
      <point x="840.0" y="1432.0" type="curve" smooth="yes"/>
      <point x="970.0" y="1432.0"/>
      <point x="1098.0" y="1412.0"/>
      <point x="1218.0" y="1376.0" type="curve"/>
      <point x="1218.0" y="1444.0" type="line"/>
      <point x="1096.0" y="1480.0"/>
      <point x="984.0" y="1498.0"/>
      <point x="842.0" y="1498.0" type="curve" smooth="yes"/>
      <point x="416.0" y="1498.0"/>
      <point x="138.0" y="1272.0"/>
      <point x="138.0" y="738.0" type="curve" smooth="yes"/>
      <point x="138.0" y="176.0"/>
      <point x="430.0" y="-18.0"/>
    </contour>
    <contour>
      <point x="792.0" y="-400.0" type="curve" smooth="yes"/>
      <point x="918.0" y="-400.0"/>
      <point x="998.0" y="-354.0"/>
      <point x="998.0" y="-256.0" type="curve" smooth="yes"/>
      <point x="998.0" y="-158.0"/>
      <point x="918.0" y="-112.0"/>
      <point x="798.0" y="-112.0" type="curve"/>
      <point x="808.0" y="-142.0" type="line"/>
      <point x="808.0" y="20.0" type="line"/>
      <point x="752.0" y="20.0" type="line"/>
      <point x="752.0" y="-164.0" type="line"/>
      <point x="790.0" y="-164.0" type="line" smooth="yes"/>
      <point x="888.0" y="-164.0"/>
      <point x="942.0" y="-192.0"/>
      <point x="942.0" y="-256.0" type="curve" smooth="yes"/>
      <point x="942.0" y="-320.0"/>
      <point x="888.0" y="-348.0"/>
      <point x="792.0" y="-348.0" type="curve" smooth="yes"/>
      <point x="728.0" y="-348.0"/>
      <point x="668.0" y="-336.0"/>
      <point x="590.0" y="-304.0" type="curve"/>
      <point x="590.0" y="-360.0" type="line"/>
      <point x="648.0" y="-386.0"/>
      <point x="726.0" y="-400.0"/>
    </contour>
    <contour>
      <point x="724.0" y="1616.0" type="line"/>
      <point x="796.0" y="1616.0" type="line"/>
      <point x="1032.0" y="1888.0" type="line"/>
      <point x="946.0" y="1888.0" type="line"/>
    </contour>
  </outline>
</glyph>
<glyph name="Ecedillabreve" format="2">
  <advance width="1284.0"/>
  <unicode hex="1E1C"/>
  <anchor x="716.0" y="0.0" name="_bottom"/>
  <anchor x="716.0" y="0.0" name="bottom"/>
  <anchor x="1096.0" y="0.0" name="ogonek"/>
  <anchor x="712.0" y="1520.0" name="top"/>
  <anchor x="46.0" y="1480.0" name="topleft"/>
  <outline>
    <contour>
      <point x="216.0" y="0.0" type="line"/>
      <point x="1176.0" y="0.0" type="line"/>
      <point x="1176.0" y="66.0" type="line"/>
      <point x="284.0" y="66.0" type="line"/>
      <point x="284.0" y="1414.0" type="line"/>
      <point x="1166.0" y="1414.0" type="line"/>
      <point x="1166.0" y="1480.0" type="line"/>
      <point x="216.0" y="1480.0" type="line"/>
    </contour>
    <contour>
      <point x="256.0" y="728.0" type="line"/>
      <point x="1066.0" y="728.0" type="line"/>
      <point x="1066.0" y="794.0" type="line"/>
      <point x="256.0" y="794.0" type="line"/>
    </contour>
    <contour>
      <point x="728.0" y="-400.0" type="curve" smooth="yes"/>
      <point x="854.0" y="-400.0"/>
      <point x="934.0" y="-354.0"/>
      <point x="934.0" y="-256.0" type="curve" smooth="yes"/>
      <point x="934.0" y="-158.0"/>
      <point x="854.0" y="-112.0"/>
      <point x="734.0" y="-112.0" type="curve"/>
      <point x="744.0" y="-142.0" type="line"/>
      <point x="744.0" y="20.0" type="line"/>
      <point x="688.0" y="20.0" type="line"/>
      <point x="688.0" y="-164.0" type="line"/>
      <point x="726.0" y="-164.0" type="line" smooth="yes"/>
      <point x="824.0" y="-164.0"/>
      <point x="878.0" y="-192.0"/>
      <point x="878.0" y="-256.0" type="curve" smooth="yes"/>
      <point x="878.0" y="-320.0"/>
      <point x="824.0" y="-348.0"/>
      <point x="728.0" y="-348.0" type="curve" smooth="yes"/>
      <point x="664.0" y="-348.0"/>
      <point x="604.0" y="-336.0"/>
      <point x="526.0" y="-304.0" type="curve"/>
      <point x="526.0" y="-360.0" type="line"/>
      <point x="584.0" y="-386.0"/>
      <point x="662.0" y="-400.0"/>
    </contour>
    <contour>
      <point x="714.0" y="1628.0" type="curve" smooth="yes"/>
      <point x="926.0" y="1628.0"/>
      <point x="1020.0" y="1730.0"/>
      <point x="1034.0" y="1860.0" type="curve"/>
      <point x="974.0" y="1860.0" type="line"/>
      <point x="958.0" y="1758.0"/>
      <point x="896.0" y="1688.0"/>
      <point x="714.0" y="1688.0" type="curve" smooth="yes"/>
      <point x="532.0" y="1688.0"/>
      <point x="466.0" y="1758.0"/>
      <point x="450.0" y="1860.0" type="curve"/>
      <point x="390.0" y="1860.0" type="line"/>
      <point x="404.0" y="1732.0"/>
      <point x="502.0" y="1628.0"/>
    </contour>
  </outline>
</glyph>
<glyph name="Ldotbelow" format="2">
  <advance width="1164.0"/>
  <unicode hex="1E36"/>
  <anchor x="680.0" y="0.0" name="_bottom"/>
  <anchor x="680.0" y="0.0" name="bottom"/>
  <anchor x="754.0" y="1616.0" name="caronalt"/>
  <anchor x="814.0" y="774.0" name="periodcentered"/>
  <anchor x="250.0" y="774.0" name="slash"/>
  <anchor x="250.0" y="1520.0" name="top"/>
  <outline>
    <contour>
      <point x="216.0" y="0.0" type="line"/>
      <point x="1142.0" y="0.0" type="line"/>
      <point x="1142.0" y="66.0" type="line"/>
      <point x="284.0" y="66.0" type="line"/>
      <point x="284.0" y="1480.0" type="line"/>
      <point x="216.0" y="1480.0" type="line"/>
    </contour>
    <contour>
      <point x="680.0" y="-310.0" type="curve" smooth="yes"/>
      <point x="716.0" y="-310.0"/>
      <point x="742.0" y="-286.0"/>
      <point x="742.0" y="-248.0" type="curve" smooth="yes"/>
      <point x="742.0" y="-210.0"/>
      <point x="716.0" y="-184.0"/>
      <point x="680.0" y="-184.0" type="curve" smooth="yes"/>
      <point x="644.0" y="-184.0"/>
      <point x="618.0" y="-210.0"/>
      <point x="618.0" y="-248.0" type="curve" smooth="yes"/>
      <point x="618.0" y="-286.0"/>
      <point x="644.0" y="-310.0"/>
    </contour>
  </outline>
</glyph>
<glyph name="ldotbelow" format="2">
  <advance width="460.0"/>
  <unicode hex="1E37"/>
  <anchor x="230.0" y="0.0" name="_bottom"/>
  <anchor x="230.0" y="0.0" name="bottom"/>
  <anchor x="404.0" y="1616.0" name="caronalt"/>
  <anchor x="444.0" y="794.0" name="periodcentered"/>
  <anchor x="230.0" y="714.0" name="slash"/>
  <anchor x="230.0" y="1616.0" name="top"/>
  <outline>
    <contour>
      <point x="196.0" y="0.0" type="line"/>
      <point x="264.0" y="0.0" type="line"/>
      <point x="264.0" y="1616.0" type="line"/>
      <point x="196.0" y="1616.0" type="line"/>
    </contour>
    <contour>
      <point x="230.0" y="-310.0" type="curve" smooth="yes"/>
      <point x="266.0" y="-310.0"/>
      <point x="292.0" y="-286.0"/>
      <point x="292.0" y="-248.0" type="curve" smooth="yes"/>
      <point x="292.0" y="-210.0"/>
      <point x="266.0" y="-184.0"/>
      <point x="230.0" y="-184.0" type="curve" smooth="yes"/>
      <point x="194.0" y="-184.0"/>
      <point x="168.0" y="-210.0"/>
      <point x="168.0" y="-248.0" type="curve" smooth="yes"/>
      <point x="168.0" y="-286.0"/>
      <point x="194.0" y="-310.0"/>
    </contour>
  </outline>
</glyph>
<glyph name="ndotaccent" format="2">
  <advance width="1244.0"/>
  <unicode hex="1E45"/>
  <anchor x="632.0" y="1200.0" name="_top"/>
  <anchor x="16.0" y="1200.0" name="apostrophe"/>
  <anchor x="632.0" y="0.0" name="bottom"/>
  <anchor x="632.0" y="1200.0" name="top"/>
  <outline>
    <contour>
      <point x="196.0" y="0.0" type="line"/>
      <point x="264.0" y="0.0" type="line"/>
      <point x="264.0" y="856.0" type="line"/>
      <point x="382.0" y="984.0"/>
      <point x="546.0" y="1030.0"/>
      <point x="678.0" y="1030.0" type="curve" smooth="yes"/>
      <point x="876.0" y="1030.0"/>
      <point x="998.0" y="942.0"/>
      <point x="998.0" y="702.0" type="curve" smooth="yes"/>
      <point x="998.0" y="0.0" type="line"/>
      <point x="1066.0" y="0.0" type="line"/>
      <point x="1066.0" y="700.0" type="line" smooth="yes"/>
      <point x="1066.0" y="986.0"/>
      <point x="912.0" y="1096.0"/>
      <point x="678.0" y="1096.0" type="curve" smooth="yes"/>
      <point x="528.0" y="1096.0"/>
      <point x="382.0" y="1044.0"/>
      <point x="270.0" y="946.0" type="curve"/>
      <point x="262.0" y="946.0" type="line"/>
      <point x="256.0" y="1080.0" type="line"/>
      <point x="196.0" y="1080.0" type="line"/>
    </contour>
    <contour>
      <point x="632.0" y="1360.0" type="curve" smooth="yes"/>
      <point x="668.0" y="1360.0"/>
      <point x="694.0" y="1384.0"/>
      <point x="694.0" y="1422.0" type="curve" smooth="yes"/>
      <point x="694.0" y="1460.0"/>
      <point x="668.0" y="1486.0"/>
      <point x="632.0" y="1486.0" type="curve" smooth="yes"/>
      <point x="596.0" y="1486.0"/>
      <point x="570.0" y="1460.0"/>
      <point x="570.0" y="1422.0" type="curve" smooth="yes"/>
      <point x="570.0" y="1384.0"/>
      <point x="596.0" y="1360.0"/>
    </contour>
  </outline>
</glyph>
<glyph name="Nlinebelow" format="2">
  <advance width="1606.0"/>
  <unicode hex="1E48"/>
  <anchor x="804.0" y="0.0" name="_bottom"/>
  <anchor x="804.0" y="0.0" name="bottom"/>
  <anchor x="804.0" y="1520.0" name="top"/>
  <outline>
    <contour>
      <point x="216.0" y="0.0" type="line"/>
      <point x="282.0" y="0.0" type="line"/>
      <point x="282.0" y="1420.0" type="line"/>
      <point x="252.0" y="1420.0" type="line"/>
      <point x="1316.0" y="0.0" type="line"/>
      <point x="1390.0" y="0.0" type="line"/>
      <point x="1390.0" y="1480.0" type="line"/>
      <point x="1324.0" y="1480.0" type="line"/>
      <point x="1324.0" y="60.0" type="line"/>
      <point x="1354.0" y="60.0" type="line"/>
      <point x="290.0" y="1480.0" type="line"/>
      <point x="216.0" y="1480.0" type="line"/>
    </contour>
    <contour>
      <point x="504.0" y="-280.0" type="line"/>
      <point x="1104.0" y="-280.0" type="line"/>
      <point x="1104.0" y="-220.0" type="line"/>
      <point x="504.0" y="-220.0" type="line"/>
    </contour>
  </outline>
</glyph>
<glyph name="nlinebelow" format="2">
  <advance width="1244.0"/>
  <unicode hex="1E49"/>
  <anchor x="632.0" y="0.0" name="_bottom"/>
  <anchor x="16.0" y="1200.0" name="apostrophe"/>
  <anchor x="632.0" y="0.0" name="bottom"/>
  <anchor x="632.0" y="1200.0" name="top"/>
  <outline>
    <contour>
      <point x="196.0" y="0.0" type="line"/>
      <point x="264.0" y="0.0" type="line"/>
      <point x="264.0" y="856.0" type="line"/>
      <point x="382.0" y="984.0"/>
      <point x="546.0" y="1030.0"/>
      <point x="678.0" y="1030.0" type="curve" smooth="yes"/>
      <point x="876.0" y="1030.0"/>
      <point x="998.0" y="942.0"/>
      <point x="998.0" y="702.0" type="curve" smooth="yes"/>
      <point x="998.0" y="0.0" type="line"/>
      <point x="1066.0" y="0.0" type="line"/>
      <point x="1066.0" y="700.0" type="line" smooth="yes"/>
      <point x="1066.0" y="986.0"/>
      <point x="912.0" y="1096.0"/>
      <point x="678.0" y="1096.0" type="curve" smooth="yes"/>
      <point x="528.0" y="1096.0"/>
      <point x="382.0" y="1044.0"/>
      <point x="270.0" y="946.0" type="curve"/>
      <point x="262.0" y="946.0" type="line"/>
      <point x="256.0" y="1080.0" type="line"/>
      <point x="196.0" y="1080.0" type="line"/>
    </contour>
    <contour>
      <point x="352.0" y="-280.0" type="line"/>
      <point x="912.0" y="-280.0" type="line"/>
      <point x="912.0" y="-220.0" type="line"/>
      <point x="352.0" y="-220.0" type="line"/>
    </contour>
  </outline>
</glyph>
<glyph name="Umacrondieresis" format="2">
  <advance width="1546.0"/>
  <unicode hex="1E7A"/>
  <anchor x="774.0" y="0.0" name="bottom"/>
  <anchor x="926.0" y="4.0" name="ogonek"/>
  <anchor x="774.0" y="1520.0" name="top"/>
  <anchor x="1272.0" y="1480.0" name="topright"/>
  <outline>
    <contour>
      <point x="774.0" y="-18.0" type="curve" smooth="yes"/>
      <point x="1156.0" y="-18.0"/>
      <point x="1338.0" y="154.0"/>
      <point x="1338.0" y="566.0" type="curve" smooth="yes"/>
      <point x="1338.0" y="1480.0" type="line"/>
      <point x="1272.0" y="1480.0" type="line"/>
      <point x="1272.0" y="556.0" type="line" smooth="yes"/>
      <point x="1272.0" y="198.0"/>
      <point x="1114.0" y="48.0"/>
      <point x="774.0" y="48.0" type="curve" smooth="yes"/>
      <point x="434.0" y="48.0"/>
      <point x="276.0" y="198.0"/>
      <point x="276.0" y="556.0" type="curve" smooth="yes"/>
      <point x="276.0" y="1480.0" type="line"/>
      <point x="208.0" y="1480.0" type="line"/>
      <point x="208.0" y="566.0" type="line" smooth="yes"/>
      <point x="208.0" y="154.0"/>
      <point x="392.0" y="-18.0"/>
    </contour>
    <component base="macroncomb.case" xOffset="174.0"/>
    <component base="dieresiscomb.case" xOffset="174.0" yOffset="228.0"/>
  </outline>
</glyph>
<glyph name="Germandbls" format="2">
  <advance width="1846.0"/>
  <unicode hex="1E9E"/>
  <outline>
    <contour>
      <point x="1204.0" y="-18.0" type="curve" smooth="yes"/>
      <point x="1550.0" y="-18.0"/>
      <point x="1744.0" y="124.0"/>
      <point x="1744.0" y="384.0" type="curve" smooth="yes"/>
      <point x="1744.0" y="592.0"/>
      <point x="1616.0" y="710.0"/>
      <point x="1298.0" y="772.0" type="curve" smooth="yes"/>
      <point x="1226.0" y="786.0" type="line" smooth="yes"/>
      <point x="962.0" y="838.0"/>
      <point x="866.0" y="926.0"/>
      <point x="866.0" y="1108.0" type="curve" smooth="yes"/>
      <point x="866.0" y="1316.0"/>
      <point x="1016.0" y="1432.0"/>
      <point x="1312.0" y="1432.0" type="curve" smooth="yes"/>
      <point x="1436.0" y="1432.0"/>
      <point x="1558.0" y="1414.0"/>
      <point x="1682.0" y="1376.0" type="curve"/>
      <point x="1682.0" y="1444.0" type="line"/>
      <point x="1568.0" y="1480.0"/>
      <point x="1442.0" y="1498.0"/>
      <point x="1316.0" y="1498.0" type="curve" smooth="yes"/>
      <point x="968.0" y="1498.0"/>
      <point x="794.0" y="1344.0"/>
      <point x="794.0" y="1104.0" type="curve" smooth="yes"/>
      <point x="794.0" y="894.0"/>
      <point x="924.0" y="770.0"/>
      <point x="1212.0" y="714.0" type="curve" smooth="yes"/>
      <point x="1284.0" y="700.0" type="line" smooth="yes"/>
      <point x="1558.0" y="646.0"/>
      <point x="1672.0" y="566.0"/>
      <point x="1672.0" y="382.0" type="curve" smooth="yes"/>
      <point x="1672.0" y="164.0"/>
      <point x="1518.0" y="48.0"/>
      <point x="1206.0" y="48.0" type="curve" smooth="yes"/>
      <point x="1090.0" y="48.0"/>
      <point x="956.0" y="66.0"/>
      <point x="812.0" y="114.0" type="curve"/>
      <point x="812.0" y="46.0" type="line"/>
      <point x="940.0" y="2.0"/>
      <point x="1082.0" y="-18.0"/>
    </contour>
    <contour>
      <point x="216.0" y="0.0" type="line"/>
      <point x="284.0" y="0.0" type="line"/>
      <point x="284.0" y="924.0" type="line" smooth="yes"/>
      <point x="284.0" y="1282.0"/>
      <point x="442.0" y="1432.0"/>
      <point x="782.0" y="1432.0" type="curve" smooth="yes"/>
      <point x="878.0" y="1432.0"/>
      <point x="958.0" y="1420.0"/>
      <point x="1026.0" y="1396.0" type="curve"/>
      <point x="1102.0" y="1432.0" type="line"/>
      <point x="1020.0" y="1478.0"/>
      <point x="914.0" y="1498.0"/>
      <point x="782.0" y="1498.0" type="curve" smooth="yes"/>
      <point x="400.0" y="1498.0"/>
      <point x="216.0" y="1326.0"/>
      <point x="216.0" y="914.0" type="curve" smooth="yes"/>
    </contour>
  </outline>
</glyph>
<glyph name="Acircumflextilde" format="2">
  <advance width="1442.0"/>
  <unicode hex="1EAA"/>
  <anchor x="722.0" y="1520.0" name="_top"/>
  <anchor x="722.0" y="0.0" name="bottom"/>
  <anchor x="1394.0" y="0.0" name="ogonek"/>
  <anchor x="722.0" y="1520.0" name="top"/>
  <outline>
    <contour>
      <point x="48.0" y="0.0" type="line"/>
      <point x="122.0" y="0.0" type="line"/>
      <point x="732.0" y="1440.0" type="line"/>
      <point x="708.0" y="1440.0" type="line"/>
      <point x="1318.0" y="0.0" type="line"/>
      <point x="1394.0" y="0.0" type="line"/>
      <point x="764.0" y="1480.0" type="line"/>
      <point x="678.0" y="1480.0" type="line"/>
    </contour>
    <contour>
      <point x="322.0" y="528.0" type="line"/>
      <point x="1120.0" y="528.0" type="line"/>
      <point x="1100.0" y="594.0" type="line"/>
      <point x="342.0" y="594.0" type="line"/>
    </contour>
    <contour>
      <point x="400.0" y="1616.0" type="line"/>
      <point x="492.0" y="1616.0" type="line"/>
      <point x="740.0" y="1860.0" type="line"/>
      <point x="704.0" y="1860.0" type="line"/>
      <point x="952.0" y="1616.0" type="line"/>
      <point x="1044.0" y="1616.0" type="line"/>
      <point x="760.0" y="1888.0" type="line"/>
      <point x="684.0" y="1888.0" type="line"/>
    </contour>
    <contour>
      <point x="874.0" y="1934.0" type="curve" smooth="yes"/>
      <point x="946.0" y="1934.0"/>
      <point x="1004.0" y="1954.0"/>
      <point x="1044.0" y="1994.0" type="curve"/>
      <point x="1044.0" y="2062.0" type="line"/>
      <point x="996.0" y="2014.0"/>
      <point x="942.0" y="1992.0"/>
      <point x="874.0" y="1992.0" type="curve" smooth="yes"/>
      <point x="782.0" y="1992.0"/>
      <point x="686.0" y="2066.0"/>
      <point x="570.0" y="2066.0" type="curve" smooth="yes"/>
      <point x="498.0" y="2066.0"/>
      <point x="440.0" y="2046.0"/>
      <point x="400.0" y="2006.0" type="curve"/>
      <point x="400.0" y="1938.0" type="line"/>
      <point x="448.0" y="1986.0"/>
      <point x="502.0" y="2008.0"/>
      <point x="570.0" y="2008.0" type="curve" smooth="yes"/>
      <point x="662.0" y="2008.0"/>
      <point x="758.0" y="1934.0"/>
    </contour>
  </outline>
</glyph>
<glyph name="acircumflextilde" format="2">
  <advance width="1106.0"/>
  <unicode hex="1EAB"/>
  <anchor x="550.0" y="1200.0" name="_top"/>
  <anchor x="574.0" y="0.0" name="bottom"/>
  <anchor x="928.0" y="0.0" name="ogonek"/>
  <anchor x="550.0" y="1200.0" name="top"/>
  <outline>
    <contour>
      <point x="478.0" y="-16.0" type="curve" smooth="yes"/>
      <point x="628.0" y="-16.0"/>
      <point x="772.0" y="46.0"/>
      <point x="854.0" y="134.0" type="curve"/>
      <point x="862.0" y="134.0" type="line"/>
      <point x="868.0" y="0.0" type="line"/>
      <point x="928.0" y="0.0" type="line"/>
      <point x="928.0" y="738.0" type="line" smooth="yes"/>
      <point x="928.0" y="1012.0"/>
      <point x="778.0" y="1096.0"/>
      <point x="524.0" y="1096.0" type="curve" smooth="yes"/>
      <point x="414.0" y="1096.0"/>
      <point x="290.0" y="1078.0"/>
      <point x="196.0" y="1042.0" type="curve"/>
      <point x="196.0" y="974.0" type="line"/>
      <point x="314.0" y="1016.0"/>
      <point x="432.0" y="1030.0"/>
      <point x="526.0" y="1030.0" type="curve" smooth="yes"/>
      <point x="738.0" y="1030.0"/>
      <point x="860.0" y="972.0"/>
      <point x="860.0" y="736.0" type="curve" smooth="yes"/>
      <point x="860.0" y="218.0" type="line"/>
      <point x="756.0" y="106.0"/>
      <point x="620.0" y="50.0"/>
      <point x="478.0" y="50.0" type="curve" smooth="yes"/>
      <point x="292.0" y="50.0"/>
      <point x="208.0" y="134.0"/>
      <point x="208.0" y="272.0" type="curve" smooth="yes"/>
      <point x="208.0" y="406.0"/>
      <point x="294.0" y="478.0"/>
      <point x="522.0" y="506.0" type="curve" smooth="yes"/>
      <point x="898.0" y="552.0" type="line"/>
      <point x="902.0" y="618.0" type="line"/>
      <point x="524.0" y="572.0" type="line" smooth="yes"/>
      <point x="246.0" y="538.0"/>
      <point x="134.0" y="444.0"/>
      <point x="134.0" y="268.0" type="curve" smooth="yes"/>
      <point x="134.0" y="90.0"/>
      <point x="260.0" y="-16.0"/>
    </contour>
    <contour>
      <point x="252.0" y="1264.0" type="line"/>
      <point x="330.0" y="1264.0" type="line"/>
      <point x="568.0" y="1592.0" type="line"/>
      <point x="532.0" y="1592.0" type="line"/>
      <point x="770.0" y="1264.0" type="line"/>
      <point x="848.0" y="1264.0" type="line"/>
      <point x="588.0" y="1616.0" type="line"/>
      <point x="512.0" y="1616.0" type="line"/>
    </contour>
    <contour>
      <point x="700.0" y="1676.0" type="curve" smooth="yes"/>
      <point x="770.0" y="1676.0"/>
      <point x="826.0" y="1696.0"/>
      <point x="866.0" y="1736.0" type="curve"/>
      <point x="866.0" y="1804.0" type="line"/>
      <point x="818.0" y="1756.0"/>
      <point x="766.0" y="1734.0"/>
      <point x="700.0" y="1734.0" type="curve" smooth="yes"/>
      <point x="608.0" y="1734.0"/>
      <point x="514.0" y="1808.0"/>
      <point x="400.0" y="1808.0" type="curve" smooth="yes"/>
      <point x="330.0" y="1808.0"/>
      <point x="274.0" y="1788.0"/>
      <point x="234.0" y="1748.0" type="curve"/>
      <point x="234.0" y="1680.0" type="line"/>
      <point x="282.0" y="1728.0"/>
      <point x="334.0" y="1750.0"/>
      <point x="400.0" y="1750.0" type="curve" smooth="yes"/>
      <point x="492.0" y="1750.0"/>
      <point x="586.0" y="1676.0"/>
    </contour>
  </outline>
</glyph>
<glyph name="Abrevegrave" format="2">
  <advance width="1442.0"/>
  <unicode hex="1EB0"/>
  <anchor x="722.0" y="1520.0" name="_top"/>
  <anchor x="722.0" y="0.0" name="bottom"/>
  <anchor x="1394.0" y="0.0" name="ogonek"/>
  <anchor x="722.0" y="1520.0" name="top"/>
  <outline>
    <contour>
      <point x="48.0" y="0.0" type="line"/>
      <point x="122.0" y="0.0" type="line"/>
      <point x="732.0" y="1440.0" type="line"/>
      <point x="708.0" y="1440.0" type="line"/>
      <point x="1318.0" y="0.0" type="line"/>
      <point x="1394.0" y="0.0" type="line"/>
      <point x="764.0" y="1480.0" type="line"/>
      <point x="678.0" y="1480.0" type="line"/>
    </contour>
    <contour>
      <point x="322.0" y="528.0" type="line"/>
      <point x="1120.0" y="528.0" type="line"/>
      <point x="1100.0" y="594.0" type="line"/>
      <point x="342.0" y="594.0" type="line"/>
    </contour>
    <contour>
      <point x="720.0" y="1628.0" type="curve" smooth="yes"/>
      <point x="932.0" y="1628.0"/>
      <point x="1030.0" y="1732.0"/>
      <point x="1044.0" y="1860.0" type="curve"/>
      <point x="984.0" y="1860.0" type="line"/>
      <point x="968.0" y="1758.0"/>
      <point x="902.0" y="1688.0"/>
      <point x="720.0" y="1688.0" type="curve" smooth="yes"/>
      <point x="538.0" y="1688.0"/>
      <point x="476.0" y="1758.0"/>
      <point x="460.0" y="1860.0" type="curve"/>
      <point x="400.0" y="1860.0" type="line"/>
      <point x="414.0" y="1730.0"/>
      <point x="508.0" y="1628.0"/>
    </contour>
    <contour>
      <point x="686.0" y="1844.0" type="line"/>
      <point x="758.0" y="1844.0" type="line"/>
      <point x="536.0" y="2096.0" type="line"/>
      <point x="450.0" y="2096.0" type="line"/>
    </contour>
  </outline>
</glyph>
<glyph name="Ehookabove" format="2">
  <advance width="1284.0"/>
  <unicode hex="1EBA"/>
  <anchor x="712.0" y="1520.0" name="_top"/>
  <anchor x="716.0" y="0.0" name="bottom"/>
  <anchor x="1096.0" y="0.0" name="ogonek"/>
  <anchor x="712.0" y="1520.0" name="top"/>
  <anchor x="46.0" y="1480.0" name="topleft"/>
  <outline>
    <contour>
      <point x="216.0" y="0.0" type="line"/>
      <point x="1176.0" y="0.0" type="line"/>
      <point x="1176.0" y="66.0" type="line"/>
      <point x="284.0" y="66.0" type="line"/>
      <point x="284.0" y="1414.0" type="line"/>
      <point x="1166.0" y="1414.0" type="line"/>
      <point x="1166.0" y="1480.0" type="line"/>
      <point x="216.0" y="1480.0" type="line"/>
    </contour>
    <contour>
      <point x="256.0" y="728.0" type="line"/>
      <point x="1066.0" y="728.0" type="line"/>
      <point x="1066.0" y="794.0" type="line"/>
      <point x="256.0" y="794.0" type="line"/>
    </contour>
    <contour>
      <point x="678.0" y="1616.0" type="curve"/>
      <point x="744.0" y="1616.0" type="line"/>
      <point x="752.0" y="1698.0"/>
      <point x="920.0" y="1672.0"/>
      <point x="920.0" y="1780.0" type="curve" smooth="yes"/>
      <point x="920.0" y="1842.0"/>
      <point x="866.0" y="1888.0"/>
      <point x="732.0" y="1888.0" type="curve" smooth="yes"/>
      <point x="640.0" y="1888.0"/>
      <point x="572.0" y="1874.0"/>
      <point x="516.0" y="1852.0" type="curve"/>
      <point x="516.0" y="1798.0" type="line"/>
      <point x="594.0" y="1824.0"/>
      <point x="648.0" y="1834.0"/>
      <point x="732.0" y="1834.0" type="curve" smooth="yes"/>
      <point x="834.0" y="1834.0"/>
      <point x="862.0" y="1812.0"/>
      <point x="862.0" y="1780.0" type="curve" smooth="yes"/>
      <point x="862.0" y="1708.0"/>
      <point x="684.0" y="1728.0"/>
    </contour>
  </outline>
</glyph>
<glyph name="Ecircumflexhookabove" format="2">
  <advance width="1284.0"/>
  <unicode hex="1EC2"/>
  <anchor x="712.0" y="1520.0" name="_top"/>
  <anchor x="716.0" y="0.0" name="bottom"/>
  <anchor x="1096.0" y="0.0" name="ogonek"/>
  <anchor x="712.0" y="1520.0" name="top"/>
  <anchor x="46.0" y="1480.0" name="topleft"/>
  <outline>
    <contour>
      <point x="216.0" y="0.0" type="line"/>
      <point x="1176.0" y="0.0" type="line"/>
      <point x="1176.0" y="66.0" type="line"/>
      <point x="284.0" y="66.0" type="line"/>
      <point x="284.0" y="1414.0" type="line"/>
      <point x="1166.0" y="1414.0" type="line"/>
      <point x="1166.0" y="1480.0" type="line"/>
      <point x="216.0" y="1480.0" type="line"/>
    </contour>
    <contour>
      <point x="256.0" y="728.0" type="line"/>
      <point x="1066.0" y="728.0" type="line"/>
      <point x="1066.0" y="794.0" type="line"/>
      <point x="256.0" y="794.0" type="line"/>
    </contour>
    <contour>
      <point x="390.0" y="1616.0" type="line"/>
      <point x="482.0" y="1616.0" type="line"/>
      <point x="730.0" y="1860.0" type="line"/>
      <point x="694.0" y="1860.0" type="line"/>
      <point x="942.0" y="1616.0" type="line"/>
      <point x="1034.0" y="1616.0" type="line"/>
      <point x="750.0" y="1888.0" type="line"/>
      <point x="674.0" y="1888.0" type="line"/>
    </contour>
    <contour>
      <point x="964.0" y="1792.0" type="curve"/>
      <point x="1030.0" y="1792.0" type="line"/>
      <point x="1038.0" y="1874.0"/>
      <point x="1206.0" y="1848.0"/>
      <point x="1206.0" y="1956.0" type="curve" smooth="yes"/>
      <point x="1206.0" y="2018.0"/>
      <point x="1152.0" y="2064.0"/>
      <point x="1018.0" y="2064.0" type="curve" smooth="yes"/>
      <point x="926.0" y="2064.0"/>
      <point x="858.0" y="2050.0"/>
      <point x="802.0" y="2028.0" type="curve"/>
      <point x="802.0" y="1974.0" type="line"/>
      <point x="880.0" y="2000.0"/>
      <point x="934.0" y="2010.0"/>
      <point x="1018.0" y="2010.0" type="curve" smooth="yes"/>
      <point x="1120.0" y="2010.0"/>
      <point x="1148.0" y="1988.0"/>
      <point x="1148.0" y="1956.0" type="curve" smooth="yes"/>
      <point x="1148.0" y="1884.0"/>
      <point x="970.0" y="1904.0"/>
    </contour>
  </outline>
</glyph>
<glyph name="Ecircumflexdotbelow" format="2">
  <advance width="1284.0"/>
  <unicode hex="1EC6"/>
  <anchor x="716.0" y="0.0" name="_bottom"/>
  <anchor x="716.0" y="0.0" name="bottom"/>
  <anchor x="1096.0" y="0.0" name="ogonek"/>
  <anchor x="712.0" y="1520.0" name="top"/>
  <anchor x="46.0" y="1480.0" name="topleft"/>
  <outline>
    <contour>
      <point x="216.0" y="0.0" type="line"/>
      <point x="1176.0" y="0.0" type="line"/>
      <point x="1176.0" y="66.0" type="line"/>
      <point x="284.0" y="66.0" type="line"/>
      <point x="284.0" y="1414.0" type="line"/>
      <point x="1166.0" y="1414.0" type="line"/>
      <point x="1166.0" y="1480.0" type="line"/>
      <point x="216.0" y="1480.0" type="line"/>
    </contour>
    <contour>
      <point x="256.0" y="728.0" type="line"/>
      <point x="1066.0" y="728.0" type="line"/>
      <point x="1066.0" y="794.0" type="line"/>
      <point x="256.0" y="794.0" type="line"/>
    </contour>
    <contour>
      <point x="716.0" y="-310.0" type="curve" smooth="yes"/>
      <point x="752.0" y="-310.0"/>
      <point x="778.0" y="-286.0"/>
      <point x="778.0" y="-248.0" type="curve" smooth="yes"/>
      <point x="778.0" y="-210.0"/>
      <point x="752.0" y="-184.0"/>
      <point x="716.0" y="-184.0" type="curve" smooth="yes"/>
      <point x="680.0" y="-184.0"/>
      <point x="654.0" y="-210.0"/>
      <point x="654.0" y="-248.0" type="curve" smooth="yes"/>
      <point x="654.0" y="-286.0"/>
      <point x="680.0" y="-310.0"/>
    </contour>
    <contour>
      <point x="390.0" y="1616.0" type="line"/>
      <point x="482.0" y="1616.0" type="line"/>
      <point x="730.0" y="1860.0" type="line"/>
      <point x="694.0" y="1860.0" type="line"/>
      <point x="942.0" y="1616.0" type="line"/>
      <point x="1034.0" y="1616.0" type="line"/>
      <point x="750.0" y="1888.0" type="line"/>
      <point x="674.0" y="1888.0" type="line"/>
    </contour>
  </outline>
</glyph>
<glyph name="Ihookabove" format="2">
  <advance width="500.0"/>
  <unicode hex="1EC8"/>
  <anchor x="250.0" y="1520.0" name="_top"/>
  <anchor x="250.0" y="0.0" name="bottom"/>
  <anchor x="284.0" y="0.0" name="ogonek"/>
  <anchor x="250.0" y="1520.0" name="top"/>
  <outline>
    <contour>
      <point x="216.0" y="0.0" type="line"/>
      <point x="284.0" y="0.0" type="line"/>
      <point x="284.0" y="1480.0" type="line"/>
      <point x="216.0" y="1480.0" type="line"/>
    </contour>
    <contour>
      <point x="216.0" y="1616.0" type="curve"/>
      <point x="282.0" y="1616.0" type="line"/>
      <point x="290.0" y="1698.0"/>
      <point x="458.0" y="1672.0"/>
      <point x="458.0" y="1780.0" type="curve" smooth="yes"/>
      <point x="458.0" y="1842.0"/>
      <point x="404.0" y="1888.0"/>
      <point x="270.0" y="1888.0" type="curve" smooth="yes"/>
      <point x="178.0" y="1888.0"/>
      <point x="110.0" y="1874.0"/>
      <point x="54.0" y="1852.0" type="curve"/>
      <point x="54.0" y="1798.0" type="line"/>
      <point x="132.0" y="1824.0"/>
      <point x="186.0" y="1834.0"/>
      <point x="270.0" y="1834.0" type="curve" smooth="yes"/>
      <point x="372.0" y="1834.0"/>
      <point x="400.0" y="1812.0"/>
      <point x="400.0" y="1780.0" type="curve" smooth="yes"/>
      <point x="400.0" y="1708.0"/>
      <point x="222.0" y="1728.0"/>
    </contour>
  </outline>
</glyph>
<glyph name="ohorntilde" format="2">
  <advance width="1204.0"/>
  <unicode hex="1EE1"/>
  <outline>
    <contour>
      <point x="602.0" y="-18.0" type="curve" smooth="yes"/>
      <point x="882.0" y="-18.0"/>
      <point x="1076.0" y="154.0"/>
      <point x="1076.0" y="540.0" type="curve" smooth="yes"/>
      <point x="1076.0" y="796.0"/>
      <point x="998.0" y="962.0"/>
      <point x="838.0" y="1046.0" type="curve"/>
      <point x="804.0" y="1016.0" type="line"/>
      <point x="994.0" y="1016.0"/>
      <point x="1094.0" y="1104.0"/>
      <point x="1094.0" y="1252.0" type="curve" smooth="yes"/>
      <point x="1094.0" y="1312.0"/>
      <point x="1086.0" y="1350.0"/>
      <point x="1068.0" y="1396.0" type="curve"/>
      <point x="1002.0" y="1396.0" type="line"/>
      <point x="1018.0" y="1350.0"/>
      <point x="1028.0" y="1310.0"/>
      <point x="1028.0" y="1254.0" type="curve" smooth="yes"/>
      <point x="1028.0" y="1138.0"/>
      <point x="950.0" y="1084.0"/>
      <point x="808.0" y="1084.0" type="curve" smooth="yes"/>
      <point x="756.0" y="1084.0"/>
      <point x="686.0" y="1096.0"/>
      <point x="602.0" y="1096.0" type="curve" smooth="yes"/>
      <point x="322.0" y="1096.0"/>
      <point x="128.0" y="926.0"/>
      <point x="128.0" y="540.0" type="curve" smooth="yes"/>
      <point x="128.0" y="146.0"/>
      <point x="318.0" y="-18.0"/>
    </contour>
    <contour>
      <point x="602.0" y="48.0" type="curve" smooth="yes"/>
      <point x="358.0" y="48.0"/>
      <point x="200.0" y="184.0"/>
      <point x="200.0" y="542.0" type="curve" smooth="yes"/>
      <point x="200.0" y="896.0"/>
      <point x="358.0" y="1030.0"/>
      <point x="602.0" y="1030.0" type="curve" smooth="yes"/>
      <point x="846.0" y="1030.0"/>
      <point x="1004.0" y="896.0"/>
      <point x="1004.0" y="538.0" type="curve" smooth="yes"/>
      <point x="1004.0" y="184.0"/>
      <point x="846.0" y="48.0"/>
    </contour>
    <contour>
      <point x="746.0" y="1380.0" type="curve" smooth="yes"/>
      <point x="816.0" y="1380.0"/>
      <point x="872.0" y="1400.0"/>
      <point x="912.0" y="1440.0" type="curve"/>
      <point x="912.0" y="1508.0" type="line"/>
      <point x="864.0" y="1460.0"/>
      <point x="812.0" y="1438.0"/>
      <point x="746.0" y="1438.0" type="curve" smooth="yes"/>
      <point x="654.0" y="1438.0"/>
      <point x="560.0" y="1512.0"/>
      <point x="446.0" y="1512.0" type="curve" smooth="yes"/>
      <point x="376.0" y="1512.0"/>
      <point x="320.0" y="1492.0"/>
      <point x="280.0" y="1452.0" type="curve"/>
      <point x="280.0" y="1384.0" type="line"/>
      <point x="328.0" y="1432.0"/>
      <point x="380.0" y="1454.0"/>
      <point x="446.0" y="1454.0" type="curve" smooth="yes"/>
      <point x="538.0" y="1454.0"/>
      <point x="632.0" y="1380.0"/>
    </contour>
  </outline>
</glyph>
<glyph name="Yhookabove" format="2">
  <advance width="1244.0"/>
  <unicode hex="1EF6"/>
  <anchor x="622.0" y="1520.0" name="_top"/>
  <anchor x="622.0" y="0.0" name="bottom"/>
  <anchor x="622.0" y="1520.0" name="top"/>
  <anchor x="16.0" y="1480.0" name="topleft"/>
  <outline>
    <contour>
      <point x="588.0" y="0.0" type="line"/>
      <point x="656.0" y="0.0" type="line"/>
      <point x="656.0" y="706.0" type="line"/>
      <point x="636.0" y="652.0" type="line"/>
      <point x="1252.0" y="1480.0" type="line"/>
      <point x="1168.0" y="1480.0" type="line"/>
      <point x="604.0" y="716.0" type="line"/>
      <point x="644.0" y="716.0" type="line"/>
      <point x="72.0" y="1480.0" type="line"/>
      <point x="-16.0" y="1480.0" type="line"/>
      <point x="608.0" y="652.0" type="line"/>
      <point x="588.0" y="706.0" type="line"/>
    </contour>
    <contour>
      <point x="588.0" y="1616.0" type="curve"/>
      <point x="654.0" y="1616.0" type="line"/>
      <point x="662.0" y="1698.0"/>
      <point x="830.0" y="1672.0"/>
      <point x="830.0" y="1780.0" type="curve" smooth="yes"/>
      <point x="830.0" y="1842.0"/>
      <point x="776.0" y="1888.0"/>
      <point x="642.0" y="1888.0" type="curve" smooth="yes"/>
      <point x="550.0" y="1888.0"/>
      <point x="482.0" y="1874.0"/>
      <point x="426.0" y="1852.0" type="curve"/>
      <point x="426.0" y="1798.0" type="line"/>
      <point x="504.0" y="1824.0"/>
      <point x="558.0" y="1834.0"/>
      <point x="642.0" y="1834.0" type="curve" smooth="yes"/>
      <point x="744.0" y="1834.0"/>
      <point x="772.0" y="1812.0"/>
      <point x="772.0" y="1780.0" type="curve" smooth="yes"/>
      <point x="772.0" y="1708.0"/>
      <point x="594.0" y="1728.0"/>
    </contour>
  </outline>
</glyph>
<glyph name="yhookabove" format="2">
  <advance width="1132.0"/>
  <unicode hex="1EF7"/>
  <anchor x="568.0" y="1200.0" name="_top"/>
  <anchor x="810.0" y="0.0" name="bottom"/>
  <anchor x="568.0" y="1200.0" name="top"/>
  <outline>
    <contour>
      <point x="344.0" y="-440.0" type="line"/>
      <point x="416.0" y="-440.0" type="line"/>
      <point x="1094.0" y="1080.0" type="line"/>
      <point x="1024.0" y="1080.0" type="line"/>
      <point x="562.0" y="38.0" type="line"/>
      <point x="540.0" y="0.0" type="line"/>
    </contour>
    <contour>
      <point x="520.0" y="0.0" type="line"/>
      <point x="590.0" y="0.0" type="line"/>
      <point x="114.0" y="1080.0" type="line"/>
      <point x="38.0" y="1080.0" type="line"/>
    </contour>
    <contour>
      <point x="538.0" y="1264.0" type="curve"/>
      <point x="600.0" y="1264.0" type="line"/>
      <point x="606.0" y="1384.0"/>
      <point x="774.0" y="1364.0"/>
      <point x="774.0" y="1494.0" type="curve" smooth="yes"/>
      <point x="774.0" y="1578.0"/>
      <point x="710.0" y="1628.0"/>
      <point x="566.0" y="1628.0" type="curve" smooth="yes"/>
      <point x="508.0" y="1628.0"/>
      <point x="446.0" y="1618.0"/>
      <point x="404.0" y="1604.0" type="curve"/>
      <point x="404.0" y="1548.0" type="line"/>
      <point x="452.0" y="1564.0"/>
      <point x="518.0" y="1572.0"/>
      <point x="572.0" y="1572.0" type="curve" smooth="yes"/>
      <point x="668.0" y="1572.0"/>
      <point x="716.0" y="1548.0"/>
      <point x="716.0" y="1494.0" type="curve" smooth="yes"/>
      <point x="716.0" y="1402.0"/>
      <point x="544.0" y="1412.0"/>
    </contour>
  </outline>
</glyph>
<glyph name="Ytilde" format="2">
  <advance width="1244.0"/>
  <unicode hex="1EF8"/>
  <anchor x="622.0" y="1520.0" name="_top"/>
  <anchor x="622.0" y="0.0" name="bottom"/>
  <anchor x="622.0" y="1520.0" name="top"/>
  <anchor x="16.0" y="1480.0" name="topleft"/>
  <outline>
    <contour>
      <point x="588.0" y="0.0" type="line"/>
      <point x="656.0" y="0.0" type="line"/>
      <point x="656.0" y="706.0" type="line"/>
      <point x="636.0" y="652.0" type="line"/>
      <point x="1252.0" y="1480.0" type="line"/>
      <point x="1168.0" y="1480.0" type="line"/>
      <point x="604.0" y="716.0" type="line"/>
      <point x="644.0" y="716.0" type="line"/>
      <point x="72.0" y="1480.0" type="line"/>
      <point x="-16.0" y="1480.0" type="line"/>
      <point x="608.0" y="652.0" type="line"/>
      <point x="588.0" y="706.0" type="line"/>
    </contour>
    <contour>
      <point x="782.0" y="1698.0" type="curve" smooth="yes"/>
      <point x="862.0" y="1698.0"/>
      <point x="918.0" y="1718.0"/>
      <point x="958.0" y="1758.0" type="curve"/>
      <point x="958.0" y="1826.0" type="line"/>
      <point x="910.0" y="1778.0"/>
      <point x="858.0" y="1756.0"/>
      <point x="782.0" y="1756.0" type="curve" smooth="yes"/>
      <point x="680.0" y="1756.0"/>
      <point x="586.0" y="1830.0"/>
      <point x="462.0" y="1830.0" type="curve" smooth="yes"/>
      <point x="382.0" y="1830.0"/>
      <point x="326.0" y="1810.0"/>
      <point x="286.0" y="1770.0" type="curve"/>
      <point x="286.0" y="1702.0" type="line"/>
      <point x="334.0" y="1750.0"/>
      <point x="386.0" y="1772.0"/>
      <point x="462.0" y="1772.0" type="curve" smooth="yes"/>
      <point x="564.0" y="1772.0"/>
      <point x="658.0" y="1698.0"/>
    </contour>
  </outline>
</glyph>
<glyph name="quotedblright" format="2">
  <advance width="762.0"/>
  <unicode hex="201D"/>
  <outline>
    <contour>
      <point x="176.0" y="1210.0" type="curve"/>
      <point x="220.0" y="1210.0" type="line"/>
      <point x="258.0" y="1304.0"/>
      <point x="288.0" y="1418.0"/>
      <point x="288.0" y="1542.0" type="curve" smooth="yes"/>
      <point x="288.0" y="1602.0"/>
      <point x="262.0" y="1626.0"/>
      <point x="224.0" y="1626.0" type="curve" smooth="yes"/>
      <point x="188.0" y="1626.0"/>
      <point x="164.0" y="1600.0"/>
      <point x="164.0" y="1564.0" type="curve" smooth="yes"/>
      <point x="164.0" y="1526.0"/>
      <point x="190.0" y="1500.0"/>
      <point x="226.0" y="1500.0" type="curve" smooth="yes"/>
      <point x="238.0" y="1500.0" type="line"/>
      <point x="234.0" y="1522.0" type="line"/>
      <point x="234.0" y="1420.0"/>
      <point x="212.0" y="1324.0"/>
    </contour>
    <contour>
      <point x="486.0" y="1210.0" type="curve"/>
      <point x="530.0" y="1210.0" type="line"/>
      <point x="568.0" y="1304.0"/>
      <point x="598.0" y="1418.0"/>
      <point x="598.0" y="1542.0" type="curve" smooth="yes"/>
      <point x="598.0" y="1602.0"/>
      <point x="572.0" y="1626.0"/>
      <point x="534.0" y="1626.0" type="curve" smooth="yes"/>
      <point x="498.0" y="1626.0"/>
      <point x="474.0" y="1600.0"/>
      <point x="474.0" y="1564.0" type="curve" smooth="yes"/>
      <point x="474.0" y="1526.0"/>
      <point x="500.0" y="1500.0"/>
      <point x="536.0" y="1500.0" type="curve" smooth="yes"/>
      <point x="548.0" y="1500.0" type="line"/>
      <point x="544.0" y="1522.0" type="line"/>
      <point x="544.0" y="1420.0"/>
      <point x="522.0" y="1324.0"/>
    </contour>
  </outline>
</glyph>
<glyph name="bullet" format="2">
  <advance width="728.0"/>
  <unicode hex="2022"/>
  <outline>
    <contour>
      <point x="364.0" y="360.0" type="curve" smooth="yes"/>
      <point x="476.0" y="360.0"/>
      <point x="564.0" y="444.0"/>
      <point x="564.0" y="560.0" type="curve" smooth="yes"/>
      <point x="564.0" y="676.0"/>
      <point x="476.0" y="760.0"/>
      <point x="364.0" y="760.0" type="curve" smooth="yes"/>
      <point x="252.0" y="760.0"/>
      <point x="164.0" y="676.0"/>
      <point x="164.0" y="560.0" type="curve" smooth="yes"/>
      <point x="164.0" y="444.0"/>
      <point x="252.0" y="360.0"/>
    </contour>
  </outline>
</glyph>
<glyph name="perthousand" format="2">
  <advance width="2636.0"/>
  <unicode hex="2030"/>
  <outline>
    <contour>
      <point x="2170.0" y="-18.0" type="curve" smooth="yes"/>
      <point x="2360.0" y="-18.0"/>
      <point x="2500.0" y="110.0"/>
      <point x="2500.0" y="442.0" type="curve" smooth="yes"/>
      <point x="2500.0" y="774.0"/>
      <point x="2364.0" y="902.0"/>
      <point x="2170.0" y="902.0" type="curve" smooth="yes"/>
      <point x="1976.0" y="902.0"/>
      <point x="1840.0" y="774.0"/>
      <point x="1840.0" y="442.0" type="curve" smooth="yes"/>
      <point x="1840.0" y="110.0"/>
      <point x="1980.0" y="-18.0"/>
    </contour>
    <contour>
      <point x="2170.0" y="46.0" type="curve" smooth="yes"/>
      <point x="2016.0" y="46.0"/>
      <point x="1908.0" y="154.0"/>
      <point x="1908.0" y="444.0" type="curve" smooth="yes"/>
      <point x="1908.0" y="734.0"/>
      <point x="2016.0" y="838.0"/>
      <point x="2170.0" y="838.0" type="curve" smooth="yes"/>
      <point x="2324.0" y="838.0"/>
      <point x="2432.0" y="734.0"/>
      <point x="2432.0" y="440.0" type="curve" smooth="yes"/>
      <point x="2432.0" y="146.0"/>
      <point x="2324.0" y="46.0"/>
    </contour>
    <contour>
      <point x="508.0" y="0.0" type="line"/>
      <point x="582.0" y="0.0" type="line"/>
      <point x="1344.0" y="1480.0" type="line"/>
      <point x="1270.0" y="1480.0" type="line"/>
    </contour>
    <contour>
      <point x="466.0" y="578.0" type="curve" smooth="yes"/>
      <point x="656.0" y="578.0"/>
      <point x="796.0" y="706.0"/>
      <point x="796.0" y="1038.0" type="curve" smooth="yes"/>
      <point x="796.0" y="1370.0"/>
      <point x="660.0" y="1498.0"/>
      <point x="466.0" y="1498.0" type="curve" smooth="yes"/>
      <point x="272.0" y="1498.0"/>
      <point x="136.0" y="1370.0"/>
      <point x="136.0" y="1038.0" type="curve" smooth="yes"/>
      <point x="136.0" y="706.0"/>
      <point x="276.0" y="578.0"/>
    </contour>
    <contour>
      <point x="466.0" y="642.0" type="curve" smooth="yes"/>
      <point x="310.0" y="642.0"/>
      <point x="204.0" y="750.0"/>
      <point x="204.0" y="1040.0" type="curve" smooth="yes"/>
      <point x="204.0" y="1330.0"/>
      <point x="310.0" y="1434.0"/>
      <point x="466.0" y="1434.0" type="curve" smooth="yes"/>
      <point x="620.0" y="1434.0"/>
      <point x="728.0" y="1330.0"/>
      <point x="728.0" y="1036.0" type="curve" smooth="yes"/>
      <point x="728.0" y="742.0"/>
      <point x="620.0" y="642.0"/>
    </contour>
    <contour>
      <point x="1386.0" y="-18.0" type="curve" smooth="yes"/>
      <point x="1576.0" y="-18.0"/>
      <point x="1716.0" y="110.0"/>
      <point x="1716.0" y="442.0" type="curve" smooth="yes"/>
      <point x="1716.0" y="774.0"/>
      <point x="1580.0" y="902.0"/>
      <point x="1386.0" y="902.0" type="curve" smooth="yes"/>
      <point x="1192.0" y="902.0"/>
      <point x="1056.0" y="774.0"/>
      <point x="1056.0" y="442.0" type="curve" smooth="yes"/>
      <point x="1056.0" y="110.0"/>
      <point x="1196.0" y="-18.0"/>
    </contour>
    <contour>
      <point x="1386.0" y="46.0" type="curve" smooth="yes"/>
      <point x="1232.0" y="46.0"/>
      <point x="1124.0" y="154.0"/>
      <point x="1124.0" y="444.0" type="curve" smooth="yes"/>
      <point x="1124.0" y="734.0"/>
      <point x="1232.0" y="838.0"/>
      <point x="1386.0" y="838.0" type="curve" smooth="yes"/>
      <point x="1540.0" y="838.0"/>
      <point x="1648.0" y="734.0"/>
      <point x="1648.0" y="440.0" type="curve" smooth="yes"/>
      <point x="1648.0" y="146.0"/>
      <point x="1540.0" y="46.0"/>
    </contour>
  </outline>
</glyph>
<glyph name="second" format="2">
  <advance width="738.0"/>
  <unicode hex="2033"/>
  <outline>
    <contour>
      <point x="194.0" y="956.0" type="line"/>
      <point x="234.0" y="956.0" type="line"/>
      <point x="254.0" y="1616.0" type="line"/>
      <point x="174.0" y="1616.0" type="line"/>
    </contour>
    <contour>
      <point x="504.0" y="956.0" type="line"/>
      <point x="544.0" y="956.0" type="line"/>
      <point x="564.0" y="1616.0" type="line"/>
      <point x="484.0" y="1616.0" type="line"/>
    </contour>
  </outline>
</glyph>
<glyph name="zerosuperior" format="2">
  <advance width="818.0"/>
  <unicode hex="2070"/>
  <outline>
    <contour>
      <point x="410.0" y="-148.0" type="curve" smooth="yes"/>
      <point x="612.0" y="-148.0"/>
      <point x="742.0" y="-20.0"/>
      <point x="742.0" y="364.0" type="curve" smooth="yes"/>
      <point x="742.0" y="748.0"/>
      <point x="606.0" y="876.0"/>
      <point x="410.0" y="876.0" type="curve" smooth="yes"/>
      <point x="214.0" y="876.0"/>
      <point x="78.0" y="748.0"/>
      <point x="78.0" y="364.0" type="curve" smooth="yes"/>
      <point x="78.0" y="-20.0"/>
      <point x="208.0" y="-148.0"/>
    </contour>
    <contour>
      <point x="410.0" y="-86.0" type="curve" smooth="yes"/>
      <point x="250.0" y="-86.0"/>
      <point x="144.0" y="6.0"/>
      <point x="144.0" y="364.0" type="curve" smooth="yes"/>
      <point x="144.0" y="722.0"/>
      <point x="256.0" y="814.0"/>
      <point x="410.0" y="814.0" type="curve" smooth="yes"/>
      <point x="564.0" y="814.0"/>
      <point x="676.0" y="722.0"/>
      <point x="676.0" y="364.0" type="curve" smooth="yes"/>
      <point x="676.0" y="6.0"/>
      <point x="570.0" y="-86.0"/>
    </contour>
  </outline>
</glyph>
<glyph name="foursuperior" format="2">
  <advance width="818.0"/>
  <unicode hex="2074"/>
  <outline>
    <contour>
      <point x="32.0" y="116.0" type="line"/>
      <point x="794.0" y="116.0" type="line"/>
      <point x="794.0" y="176.0" type="line"/>
      <point x="86.0" y="176.0" type="line"/>
      <point x="100.0" y="154.0" type="line"/>
      <point x="532.0" y="864.0" type="line"/>
      <point x="464.0" y="864.0" type="line"/>
      <point x="32.0" y="156.0" type="line"/>
    </contour>
    <contour>
      <point x="572.0" y="-136.0" type="line"/>
      <point x="634.0" y="-136.0" type="line"/>
      <point x="634.0" y="526.0" type="line"/>
      <point x="584.0" y="526.0" type="line"/>
      <point x="572.0" y="176.0" type="line"/>
    </contour>
  </outline>
</glyph>
<glyph name="oneinferior" format="2">
  <advance width="818.0"/>
  <unicode hex="2081"/>
  <outline>
    <contour>
      <point x="422.0" y="636.0" type="line"/>
      <point x="486.0" y="636.0" type="line"/>
      <point x="486.0" y="1620.0" type="line"/>
      <point x="442.0" y="1620.0" type="line"/>
      <point x="148.0" y="1408.0" type="line"/>
      <point x="148.0" y="1334.0" type="line"/>
      <point x="442.0" y="1546.0" type="line"/>
      <point x="422.0" y="1560.0" type="line"/>
    </contour>
    <contour>
      <point x="148.0" y="616.0" type="line"/>
      <point x="746.0" y="616.0" type="line"/>
      <point x="746.0" y="678.0" type="line"/>
      <point x="148.0" y="678.0" type="line"/>
    </contour>
  </outline>
</glyph>
<glyph name="colonsign" format="2">
  <advance width="1272.0"/>
  <unicode hex="20A1"/>
  <outline>
    <contour>
      <point x="824.0" y="-18.0" type="curve" smooth="yes"/>
      <point x="964.0" y="-18.0"/>
      <point x="1090.0" y="0.0"/>
      <point x="1218.0" y="46.0" type="curve"/>
      <point x="1218.0" y="114.0" type="line"/>
      <point x="1064.0" y="62.0"/>
      <point x="950.0" y="48.0"/>
      <point x="826.0" y="48.0" type="curve" smooth="yes"/>
      <point x="438.0" y="48.0"/>
      <point x="210.0" y="242.0"/>
      <point x="210.0" y="742.0" type="curve" smooth="yes"/>
      <point x="210.0" y="1238.0"/>
      <point x="448.0" y="1432.0"/>
      <point x="840.0" y="1432.0" type="curve" smooth="yes"/>
      <point x="968.0" y="1432.0"/>
      <point x="1096.0" y="1412.0"/>
      <point x="1218.0" y="1376.0" type="curve"/>
      <point x="1218.0" y="1444.0" type="line"/>
      <point x="1094.0" y="1480.0"/>
      <point x="982.0" y="1498.0"/>
      <point x="838.0" y="1498.0" type="curve" smooth="yes"/>
      <point x="410.0" y="1498.0"/>
      <point x="138.0" y="1274.0"/>
      <point x="138.0" y="738.0" type="curve" smooth="yes"/>
      <point x="138.0" y="204.0"/>
      <point x="398.0" y="-18.0"/>
    </contour>
    <contour>
      <point x="354.0" y="172.0" type="line"/>
      <point x="308.0" y="226.0" type="line"/>
      <point x="138.0" y="-240.0" type="line"/>
      <point x="204.0" y="-240.0" type="line"/>
    </contour>
    <contour>
      <point x="604.0" y="34.0" type="line"/>
      <point x="546.0" y="56.0" type="line"/>
      <point x="438.0" y="-240.0" type="line"/>
      <point x="504.0" y="-240.0" type="line"/>
    </contour>
    <contour>
      <point x="754.0" y="1452.0" type="line"/>
      <point x="820.0" y="1452.0" type="line"/>
      <point x="918.0" y="1720.0" type="line"/>
      <point x="852.0" y="1720.0" type="line"/>
    </contour>
    <contour>
      <point x="1054.0" y="1452.0" type="line"/>
      <point x="1120.0" y="1452.0" type="line"/>
      <point x="1218.0" y="1720.0" type="line"/>
      <point x="1152.0" y="1720.0" type="line"/>
    </contour>
  </outline>
</glyph>
<glyph name="lira" format="2">
  <advance width="1396.0"/>
  <unicode hex="20A4"/>
  <outline>
    <contour>
      <point x="340.0" y="32.0" type="line"/>
      <point x="408.0" y="32.0" type="line"/>
      <point x="408.0" y="1036.0" type="line" smooth="yes"/>
      <point x="408.0" y="1330.0"/>
      <point x="574.0" y="1432.0"/>
      <point x="870.0" y="1432.0" type="curve" smooth="yes"/>
      <point x="994.0" y="1432.0"/>
      <point x="1116.0" y="1414.0"/>
      <point x="1240.0" y="1376.0" type="curve"/>
      <point x="1240.0" y="1444.0" type="line"/>
      <point x="1126.0" y="1480.0"/>
      <point x="1000.0" y="1498.0"/>
      <point x="874.0" y="1498.0" type="curve" smooth="yes"/>
      <point x="526.0" y="1498.0"/>
      <point x="340.0" y="1358.0"/>
      <point x="340.0" y="1036.0" type="curve" smooth="yes"/>
    </contour>
    <contour>
      <point x="80.0" y="0.0" type="line"/>
      <point x="1286.0" y="0.0" type="line"/>
      <point x="1286.0" y="64.0" type="line"/>
      <point x="80.0" y="64.0" type="line"/>
    </contour>
    <contour>
      <point x="80.0" y="546.0" type="line"/>
      <point x="1040.0" y="546.0" type="line"/>
      <point x="1040.0" y="610.0" type="line"/>
      <point x="80.0" y="610.0" type="line"/>
    </contour>
    <contour>
      <point x="80.0" y="890.0" type="line"/>
      <point x="1040.0" y="890.0" type="line"/>
      <point x="1040.0" y="954.0" type="line"/>
      <point x="80.0" y="954.0" type="line"/>
    </contour>
  </outline>
</glyph>
<glyph name="peseta" format="2">
  <advance width="2816.0"/>
  <unicode hex="20A7"/>
  <outline>
    <contour>
      <point x="216.0" y="0.0" type="line"/>
      <point x="284.0" y="0.0" type="line"/>
      <point x="284.0" y="532.0" type="line"/>
      <point x="384.0" y="522.0"/>
      <point x="440.0" y="518.0"/>
      <point x="536.0" y="518.0" type="curve" smooth="yes"/>
      <point x="978.0" y="518.0"/>
      <point x="1168.0" y="696.0"/>
      <point x="1168.0" y="1010.0" type="curve" smooth="yes"/>
      <point x="1168.0" y="1346.0"/>
      <point x="954.0" y="1494.0"/>
      <point x="590.0" y="1494.0" type="curve" smooth="yes"/>
      <point x="468.0" y="1494.0"/>
      <point x="362.0" y="1482.0"/>
      <point x="216.0" y="1454.0" type="curve"/>
    </contour>
    <contour>
      <point x="536.0" y="584.0" type="curve" smooth="yes"/>
      <point x="432.0" y="584.0"/>
      <point x="370.0" y="590.0"/>
      <point x="284.0" y="602.0" type="curve"/>
      <point x="284.0" y="1398.0" type="line"/>
      <point x="384.0" y="1418.0"/>
      <point x="482.0" y="1428.0"/>
      <point x="590.0" y="1428.0" type="curve" smooth="yes"/>
      <point x="918.0" y="1428.0"/>
      <point x="1096.0" y="1300.0"/>
      <point x="1096.0" y="1008.0" type="curve" smooth="yes"/>
      <point x="1096.0" y="730.0"/>
      <point x="936.0" y="584.0"/>
    </contour>
    <contour>
      <point x="1752.0" y="-18.0" type="curve" smooth="yes"/>
      <point x="1812.0" y="-18.0"/>
      <point x="1856.0" y="-14.0"/>
      <point x="1924.0" y="2.0" type="curve"/>
      <point x="1924.0" y="70.0" type="line"/>
      <point x="1854.0" y="54.0"/>
      <point x="1808.0" y="48.0"/>
      <point x="1756.0" y="48.0" type="curve" smooth="yes"/>
      <point x="1566.0" y="48.0"/>
      <point x="1458.0" y="134.0"/>
      <point x="1458.0" y="354.0" type="curve" smooth="yes"/>
      <point x="1458.0" y="1480.0" type="line"/>
      <point x="1398.0" y="1480.0" type="line"/>
      <point x="1390.0" y="1080.0" type="line"/>
      <point x="1390.0" y="342.0" type="line" smooth="yes"/>
      <point x="1390.0" y="94.0"/>
      <point x="1524.0" y="-18.0"/>
    </contour>
    <contour>
      <point x="1150.0" y="1016.0" type="line"/>
      <point x="1900.0" y="1016.0" type="line"/>
      <point x="1900.0" y="1080.0" type="line"/>
      <point x="1150.0" y="1080.0" type="line"/>
    </contour>
    <contour>
      <point x="2292.0" y="-18.0" type="curve" smooth="yes"/>
      <point x="2588.0" y="-18.0"/>
      <point x="2720.0" y="100.0"/>
      <point x="2720.0" y="282.0" type="curve" smooth="yes"/>
      <point x="2720.0" y="434.0"/>
      <point x="2634.0" y="520.0"/>
      <point x="2420.0" y="558.0" type="curve" smooth="yes"/>
      <point x="2254.0" y="588.0" type="line" smooth="yes"/>
      <point x="2078.0" y="620.0"/>
      <point x="2032.0" y="700.0"/>
      <point x="2032.0" y="802.0" type="curve" smooth="yes"/>
      <point x="2032.0" y="934.0"/>
      <point x="2122.0" y="1030.0"/>
      <point x="2382.0" y="1030.0" type="curve" smooth="yes"/>
      <point x="2476.0" y="1030.0"/>
      <point x="2552.0" y="1020.0"/>
      <point x="2658.0" y="990.0" type="curve"/>
      <point x="2658.0" y="1058.0" type="line"/>
      <point x="2566.0" y="1084.0"/>
      <point x="2478.0" y="1096.0"/>
      <point x="2382.0" y="1096.0" type="curve" smooth="yes"/>
      <point x="2082.0" y="1096.0"/>
      <point x="1960.0" y="968.0"/>
      <point x="1960.0" y="800.0" type="curve" smooth="yes"/>
      <point x="1960.0" y="650.0"/>
      <point x="2042.0" y="554.0"/>
      <point x="2250.0" y="516.0" type="curve" smooth="yes"/>
      <point x="2416.0" y="486.0" type="line" smooth="yes"/>
      <point x="2594.0" y="454.0"/>
      <point x="2648.0" y="392.0"/>
      <point x="2648.0" y="274.0" type="curve" smooth="yes"/>
      <point x="2648.0" y="132.0"/>
      <point x="2552.0" y="48.0"/>
      <point x="2298.0" y="48.0" type="curve" smooth="yes"/>
      <point x="2190.0" y="48.0"/>
      <point x="2098.0" y="58.0"/>
      <point x="1974.0" y="94.0" type="curve"/>
      <point x="1974.0" y="26.0" type="line"/>
      <point x="2076.0" y="-6.0"/>
      <point x="2174.0" y="-18.0"/>
    </contour>
  </outline>
</glyph>
<glyph name="won" format="2">
  <advance width="2434.0"/>
  <unicode hex="20A9"/>
  <outline>
    <contour>
      <point x="652.0" y="0.0" type="line"/>
      <point x="746.0" y="0.0" type="line"/>
      <point x="1226.0" y="1434.0" type="line"/>
      <point x="1206.0" y="1434.0" type="line"/>
      <point x="1688.0" y="0.0" type="line"/>
      <point x="1782.0" y="0.0" type="line"/>
      <point x="2268.0" y="1480.0" type="line"/>
      <point x="2198.0" y="1480.0" type="line"/>
      <point x="1728.0" y="40.0" type="line"/>
      <point x="1744.0" y="40.0" type="line"/>
      <point x="1264.0" y="1480.0" type="line"/>
      <point x="1170.0" y="1480.0" type="line"/>
      <point x="692.0" y="40.0" type="line"/>
      <point x="708.0" y="40.0" type="line"/>
      <point x="238.0" y="1480.0" type="line"/>
      <point x="164.0" y="1480.0" type="line"/>
    </contour>
    <contour>
      <point x="80.0" y="546.0" type="line"/>
      <point x="500.0" y="546.0" type="line"/>
      <point x="478.0" y="610.0" type="line"/>
      <point x="80.0" y="610.0" type="line"/>
    </contour>
    <contour>
      <point x="80.0" y="890.0" type="line"/>
      <point x="386.0" y="890.0" type="line"/>
      <point x="366.0" y="954.0" type="line"/>
      <point x="80.0" y="954.0" type="line"/>
    </contour>
    <contour>
      <point x="1928.0" y="546.0" type="line"/>
      <point x="2354.0" y="546.0" type="line"/>
      <point x="2354.0" y="610.0" type="line"/>
      <point x="1948.0" y="610.0" type="line"/>
    </contour>
    <contour>
      <point x="2034.0" y="890.0" type="line"/>
      <point x="2354.0" y="890.0" type="line"/>
      <point x="2354.0" y="954.0" type="line"/>
      <point x="2052.0" y="954.0" type="line"/>
    </contour>
  </outline>
</glyph>
<glyph name="dong" format="2">
  <advance width="1228.0"/>
  <unicode hex="20AB"/>
  <outline>
    <contour>
      <point x="600.0" y="-18.0" type="curve" smooth="yes"/>
      <point x="746.0" y="-18.0"/>
      <point x="874.0" y="38.0"/>
      <point x="958.0" y="132.0" type="curve"/>
      <point x="966.0" y="132.0" type="line"/>
      <point x="972.0" y="0.0" type="line"/>
      <point x="1032.0" y="0.0" type="line"/>
      <point x="1032.0" y="1616.0" type="line"/>
      <point x="964.0" y="1616.0" type="line"/>
      <point x="964.0" y="1072.0" type="line"/>
      <point x="892.0" y="1084.0"/>
      <point x="800.0" y="1096.0"/>
      <point x="706.0" y="1096.0" type="curve" smooth="yes"/>
      <point x="320.0" y="1096.0"/>
      <point x="128.0" y="906.0"/>
      <point x="128.0" y="518.0" type="curve" smooth="yes"/>
      <point x="128.0" y="130.0"/>
      <point x="332.0" y="-18.0"/>
    </contour>
    <contour>
      <point x="178.0" y="-240.0" type="line"/>
      <point x="1032.0" y="-240.0" type="line"/>
      <point x="1032.0" y="-180.0" type="line"/>
      <point x="178.0" y="-180.0" type="line"/>
    </contour>
    <contour>
      <point x="604.0" y="48.0" type="curve" smooth="yes"/>
      <point x="370.0" y="48.0"/>
      <point x="200.0" y="170.0"/>
      <point x="200.0" y="526.0" type="curve" smooth="yes"/>
      <point x="200.0" y="872.0"/>
      <point x="364.0" y="1030.0"/>
      <point x="702.0" y="1030.0" type="curve" smooth="yes"/>
      <point x="796.0" y="1030.0"/>
      <point x="892.0" y="1018.0"/>
      <point x="964.0" y="998.0" type="curve"/>
      <point x="964.0" y="226.0" type="line"/>
      <point x="868.0" y="96.0"/>
      <point x="736.0" y="48.0"/>
    </contour>
    <contour>
      <point x="536.0" y="1326.0" type="line"/>
      <point x="1212.0" y="1326.0" type="line"/>
      <point x="1212.0" y="1386.0" type="line"/>
      <point x="536.0" y="1386.0" type="line"/>
    </contour>
  </outline>
</glyph>
<glyph name="kip" format="2">
  <advance width="1460.0"/>
  <unicode hex="20AD"/>
  <outline>
    <contour>
      <point x="1344.0" y="0.0" type="line"/>
      <point x="1432.0" y="0.0" type="line"/>
      <point x="774.0" y="774.0" type="line"/>
      <point x="774.0" y="750.0" type="line"/>
      <point x="1390.0" y="1480.0" type="line"/>
      <point x="1304.0" y="1480.0" type="line"/>
      <point x="698.0" y="758.0" type="line"/>
    </contour>
    <contour>
      <point x="340.0" y="0.0" type="line"/>
      <point x="408.0" y="0.0" type="line"/>
      <point x="408.0" y="1480.0" type="line"/>
      <point x="340.0" y="1480.0" type="line"/>
    </contour>
    <contour>
      <point x="80.0" y="728.0" type="line"/>
      <point x="1296.0" y="728.0" type="line"/>
      <point x="1296.0" y="792.0" type="line"/>
      <point x="80.0" y="792.0" type="line"/>
    </contour>
  </outline>
</glyph>
<glyph name="manat" format="2">
  <advance width="1536.0"/>
  <unicode hex="20BC"/>
  <outline>
    <contour>
      <point x="192.0" y="0.0" type="curve"/>
      <point x="260.0" y="0.0" type="line"/>
      <point x="260.0" y="1106.0"/>
      <point x="376.0" y="1434.0"/>
      <point x="768.0" y="1434.0" type="curve" smooth="yes"/>
      <point x="1158.0" y="1434.0"/>
      <point x="1276.0" y="1102.0"/>
      <point x="1276.0" y="0.0" type="curve"/>
      <point x="1344.0" y="0.0" type="line"/>
      <point x="1344.0" y="1154.0"/>
      <point x="1212.0" y="1498.0"/>
      <point x="768.0" y="1498.0" type="curve" smooth="yes"/>
      <point x="324.0" y="1498.0"/>
      <point x="192.0" y="1154.0"/>
    </contour>
    <contour>
      <point x="736.0" y="550.0" type="line"/>
      <point x="800.0" y="550.0" type="line"/>
      <point x="800.0" y="1444.0" type="line"/>
      <point x="800.0" y="1490.0" type="line"/>
      <point x="800.0" y="1720.0" type="line"/>
      <point x="736.0" y="1720.0" type="line"/>
      <point x="736.0" y="1490.0" type="line"/>
      <point x="736.0" y="1444.0" type="line"/>
    </contour>
  </outline>
</glyph>
<glyph name="ruble" format="2">
  <advance width="1398.0"/>
  <unicode hex="20BD"/>
  <outline>
    <contour>
      <point x="340.0" y="0.0" type="line"/>
      <point x="408.0" y="0.0" type="line"/>
      <point x="408.0" y="1398.0" type="line"/>
      <point x="508.0" y="1418.0"/>
      <point x="606.0" y="1428.0"/>
      <point x="714.0" y="1428.0" type="curve" smooth="yes"/>
      <point x="1072.0" y="1428.0"/>
      <point x="1220.0" y="1324.0"/>
      <point x="1220.0" y="1078.0" type="curve" smooth="yes"/>
      <point x="1220.0" y="832.0"/>
      <point x="1072.0" y="728.0"/>
      <point x="676.0" y="728.0" type="curve" smooth="yes"/>
      <point x="80.0" y="728.0" type="line"/>
      <point x="80.0" y="664.0" type="line"/>
      <point x="686.0" y="664.0" type="line" smooth="yes"/>
      <point x="1110.0" y="664.0"/>
      <point x="1292.0" y="788.0"/>
      <point x="1292.0" y="1080.0" type="curve" smooth="yes"/>
      <point x="1292.0" y="1368.0"/>
      <point x="1102.0" y="1494.0"/>
      <point x="714.0" y="1494.0" type="curve" smooth="yes"/>
      <point x="592.0" y="1494.0"/>
      <point x="486.0" y="1482.0"/>
      <point x="340.0" y="1454.0" type="curve"/>
    </contour>
    <contour>
      <point x="80.0" y="320.0" type="line"/>
      <point x="970.0" y="320.0" type="line"/>
      <point x="970.0" y="384.0" type="line"/>
      <point x="80.0" y="384.0" type="line"/>
    </contour>
  </outline>
</glyph>
<glyph name="uni20BF" format="2">
  <advance width="1342.0"/>
  <unicode hex="20BF"/>
  <outline>
    <contour>
      <point x="602.0" y="-10.0" type="curve" smooth="yes"/>
      <point x="1072.0" y="-10.0"/>
      <point x="1250.0" y="132.0"/>
      <point x="1250.0" y="400.0" type="curve" smooth="yes"/>
      <point x="1250.0" y="598.0"/>
      <point x="1142.0" y="744.0"/>
      <point x="872.0" y="770.0" type="curve"/>
      <point x="866.0" y="754.0" type="line"/>
      <point x="1110.0" y="786.0"/>
      <point x="1206.0" y="920.0"/>
      <point x="1206.0" y="1106.0" type="curve" smooth="yes"/>
      <point x="1206.0" y="1364.0"/>
      <point x="1038.0" y="1494.0"/>
      <point x="638.0" y="1494.0" type="curve" smooth="yes"/>
      <point x="498.0" y="1494.0"/>
      <point x="362.0" y="1482.0"/>
      <point x="216.0" y="1454.0" type="curve"/>
      <point x="216.0" y="16.0" type="line"/>
      <point x="370.0" y="-4.0"/>
      <point x="468.0" y="-10.0"/>
    </contour>
    <contour>
      <point x="468.0" y="-240.0" type="line"/>
      <point x="530.0" y="-240.0" type="line"/>
      <point x="530.0" y="20.0" type="line"/>
      <point x="468.0" y="20.0" type="line"/>
    </contour>
    <contour>
      <point x="764.0" y="-240.0" type="line"/>
      <point x="826.0" y="-240.0" type="line"/>
      <point x="826.0" y="20.0" type="line"/>
      <point x="764.0" y="20.0" type="line"/>
    </contour>
    <contour>
      <point x="604.0" y="56.0" type="curve" smooth="yes"/>
      <point x="464.0" y="56.0"/>
      <point x="370.0" y="64.0"/>
      <point x="284.0" y="78.0" type="curve"/>
      <point x="284.0" y="1398.0" type="line"/>
      <point x="384.0" y="1418.0"/>
      <point x="506.0" y="1428.0"/>
      <point x="640.0" y="1428.0" type="curve" smooth="yes"/>
      <point x="994.0" y="1428.0"/>
      <point x="1138.0" y="1336.0"/>
      <point x="1138.0" y="1106.0" type="curve" smooth="yes"/>
      <point x="1138.0" y="886.0"/>
      <point x="992.0" y="794.0"/>
      <point x="700.0" y="794.0" type="curve" smooth="yes"/>
      <point x="268.0" y="794.0" type="line"/>
      <point x="268.0" y="728.0" type="line"/>
      <point x="714.0" y="728.0" type="line" smooth="yes"/>
      <point x="1028.0" y="728.0"/>
      <point x="1180.0" y="630.0"/>
      <point x="1180.0" y="404.0" type="curve" smooth="yes"/>
      <point x="1180.0" y="174.0"/>
      <point x="1048.0" y="56.0"/>
    </contour>
    <contour>
      <point x="468.0" y="1460.0" type="line"/>
      <point x="530.0" y="1460.0" type="line"/>
      <point x="530.0" y="1720.0" type="line"/>
      <point x="468.0" y="1720.0" type="line"/>
    </contour>
    <contour>
      <point x="764.0" y="1460.0" type="line"/>
      <point x="826.0" y="1460.0" type="line"/>
      <point x="826.0" y="1720.0" type="line"/>
      <point x="764.0" y="1720.0" type="line"/>
    </contour>
  </outline>
</glyph>
<glyph name="literSign" format="2">
  <advance width="628.0"/>
  <unicode hex="2113"/>
  <outline>
    <contour>
      <point x="410.0" y="-24.0" type="curve" smooth="yes"/>
      <point x="494.0" y="-24.0"/>
      <point x="584.0" y="18.0"/>
      <point x="658.0" y="108.0" type="curve"/>
      <point x="614.0" y="152.0" type="line"/>
      <point x="542.0" y="70.0"/>
      <point x="476.0" y="40.0"/>
      <point x="412.0" y="40.0" type="curve" smooth="yes"/>
      <point x="318.0" y="40.0"/>
      <point x="272.0" y="108.0"/>
      <point x="272.0" y="236.0" type="curve" smooth="yes"/>
      <point x="272.0" y="1224.0" type="line" smooth="yes"/>
      <point x="272.0" y="1364.0"/>
      <point x="324.0" y="1434.0"/>
      <point x="404.0" y="1434.0" type="curve" smooth="yes"/>
      <point x="470.0" y="1434.0"/>
      <point x="506.0" y="1396.0"/>
      <point x="506.0" y="1320.0" type="curve" smooth="yes"/>
      <point x="506.0" y="1112.0"/>
      <point x="368.0" y="866.0"/>
      <point x="20.0" y="454.0" type="curve"/>
      <point x="70.0" y="410.0" type="line"/>
      <point x="430.0" y="836.0"/>
      <point x="574.0" y="1096.0"/>
      <point x="574.0" y="1320.0" type="curve" smooth="yes"/>
      <point x="574.0" y="1432.0"/>
      <point x="518.0" y="1498.0"/>
      <point x="408.0" y="1498.0" type="curve" smooth="yes"/>
      <point x="284.0" y="1498.0"/>
      <point x="204.0" y="1410.0"/>
      <point x="204.0" y="1234.0" type="curve" smooth="yes"/>
      <point x="204.0" y="228.0" type="line" smooth="yes"/>
      <point x="204.0" y="52.0"/>
      <point x="284.0" y="-24.0"/>
    </contour>
  </outline>
</glyph>
<glyph name="servicemark" format="2">
  <advance width="2106.0"/>
  <unicode hex="2120"/>
  <outline>
    <contour>
      <point x="916.0" y="480.0" type="line"/>
      <point x="978.0" y="480.0" type="line"/>
      <point x="978.0" y="1422.0" type="line"/>
      <point x="948.0" y="1422.0" type="line"/>
      <point x="1376.0" y="616.0" type="line"/>
      <point x="1442.0" y="616.0" type="line"/>
      <point x="1868.0" y="1422.0" type="line"/>
      <point x="1838.0" y="1422.0" type="line"/>
      <point x="1838.0" y="480.0" type="line"/>
      <point x="1900.0" y="480.0" type="line"/>
      <point x="1900.0" y="1480.0" type="line"/>
      <point x="1828.0" y="1480.0" type="line"/>
      <point x="1398.0" y="660.0" type="line"/>
      <point x="1422.0" y="660.0" type="line"/>
      <point x="990.0" y="1480.0" type="line"/>
      <point x="916.0" y="1480.0" type="line"/>
    </contour>
    <contour>
      <point x="394.0" y="468.0" type="curve" smooth="yes"/>
      <point x="632.0" y="468.0"/>
      <point x="766.0" y="566.0"/>
      <point x="766.0" y="744.0" type="curve" smooth="yes"/>
      <point x="766.0" y="886.0"/>
      <point x="686.0" y="966.0"/>
      <point x="452.0" y="1010.0" type="curve" smooth="yes"/>
      <point x="242.0" y="1050.0"/>
      <point x="178.0" y="1102.0"/>
      <point x="178.0" y="1226.0" type="curve" smooth="yes"/>
      <point x="178.0" y="1356.0"/>
      <point x="274.0" y="1430.0"/>
      <point x="472.0" y="1430.0" type="curve" smooth="yes"/>
      <point x="556.0" y="1430.0"/>
      <point x="640.0" y="1418.0"/>
      <point x="722.0" y="1394.0" type="curve"/>
      <point x="722.0" y="1456.0" type="line"/>
      <point x="646.0" y="1480.0"/>
      <point x="560.0" y="1492.0"/>
      <point x="474.0" y="1492.0" type="curve" smooth="yes"/>
      <point x="232.0" y="1492.0"/>
      <point x="112.0" y="1388.0"/>
      <point x="112.0" y="1222.0" type="curve" smooth="yes"/>
      <point x="112.0" y="1070.0"/>
      <point x="198.0" y="994.0"/>
      <point x="430.0" y="948.0" type="curve" smooth="yes"/>
      <point x="632.0" y="908.0"/>
      <point x="698.0" y="858.0"/>
      <point x="698.0" y="742.0" type="curve" smooth="yes"/>
      <point x="698.0" y="604.0"/>
      <point x="600.0" y="530.0"/>
      <point x="394.0" y="530.0" type="curve" smooth="yes"/>
      <point x="316.0" y="530.0"/>
      <point x="222.0" y="542.0"/>
      <point x="124.0" y="574.0" type="curve"/>
      <point x="124.0" y="510.0" type="line"/>
      <point x="212.0" y="482.0"/>
      <point x="308.0" y="468.0"/>
    </contour>
  </outline>
</glyph>
<glyph name="trademark" format="2">
  <advance width="2134.0"/>
  <unicode hex="2122"/>
  <outline>
    <contour>
      <point x="400.0" y="480.0" type="line"/>
      <point x="464.0" y="480.0" type="line"/>
      <point x="464.0" y="1418.0" type="line"/>
      <point x="844.0" y="1418.0" type="line"/>
      <point x="844.0" y="1480.0" type="line"/>
      <point x="20.0" y="1480.0" type="line"/>
      <point x="20.0" y="1418.0" type="line"/>
      <point x="400.0" y="1418.0" type="line"/>
    </contour>
    <contour>
      <point x="944.0" y="480.0" type="line"/>
      <point x="1006.0" y="480.0" type="line"/>
      <point x="1006.0" y="1422.0" type="line"/>
      <point x="976.0" y="1422.0" type="line"/>
      <point x="1404.0" y="616.0" type="line"/>
      <point x="1470.0" y="616.0" type="line"/>
      <point x="1896.0" y="1422.0" type="line"/>
      <point x="1866.0" y="1422.0" type="line"/>
      <point x="1866.0" y="480.0" type="line"/>
      <point x="1928.0" y="480.0" type="line"/>
      <point x="1928.0" y="1480.0" type="line"/>
      <point x="1856.0" y="1480.0" type="line"/>
      <point x="1426.0" y="660.0" type="line"/>
      <point x="1450.0" y="660.0" type="line"/>
      <point x="1018.0" y="1480.0" type="line"/>
      <point x="944.0" y="1480.0" type="line"/>
    </contour>
  </outline>
</glyph>
<glyph name="threeeighths" format="2">
  <advance width="1898.0"/>
  <unicode hex="215C"/>
  <outline>
    <contour>
      <point x="342.0" y="604.0" type="curve" smooth="yes"/>
      <point x="614.0" y="604.0"/>
      <point x="738.0" y="712.0"/>
      <point x="738.0" y="890.0" type="curve" smooth="yes"/>
      <point x="738.0" y="1036.0"/>
      <point x="636.0" y="1128.0"/>
      <point x="454.0" y="1146.0" type="curve"/>
      <point x="454.0" y="1126.0" type="line"/>
      <point x="600.0" y="1156.0"/>
      <point x="702.0" y="1242.0"/>
      <point x="702.0" y="1378.0" type="curve" smooth="yes"/>
      <point x="702.0" y="1534.0"/>
      <point x="580.0" y="1628.0"/>
      <point x="368.0" y="1628.0" type="curve" smooth="yes"/>
      <point x="276.0" y="1628.0"/>
      <point x="184.0" y="1616.0"/>
      <point x="106.0" y="1592.0" type="curve"/>
      <point x="106.0" y="1528.0" type="line"/>
      <point x="194.0" y="1558.0"/>
      <point x="282.0" y="1568.0"/>
      <point x="364.0" y="1568.0" type="curve" smooth="yes"/>
      <point x="540.0" y="1568.0"/>
      <point x="638.0" y="1496.0"/>
      <point x="638.0" y="1374.0" type="curve" smooth="yes"/>
      <point x="638.0" y="1228.0"/>
      <point x="518.0" y="1160.0"/>
      <point x="298.0" y="1160.0" type="curve" smooth="yes"/>
      <point x="236.0" y="1160.0" type="line"/>
      <point x="236.0" y="1100.0" type="line"/>
      <point x="384.0" y="1100.0" type="line" smooth="yes"/>
      <point x="580.0" y="1100.0"/>
      <point x="674.0" y="1026.0"/>
      <point x="674.0" y="894.0" type="curve" smooth="yes"/>
      <point x="674.0" y="748.0"/>
      <point x="572.0" y="664.0"/>
      <point x="344.0" y="664.0" type="curve" smooth="yes"/>
      <point x="258.0" y="664.0"/>
      <point x="162.0" y="678.0"/>
      <point x="70.0" y="710.0" type="curve"/>
      <point x="70.0" y="646.0" type="line"/>
      <point x="154.0" y="618.0"/>
      <point x="254.0" y="604.0"/>
    </contour>
    <contour>
      <point x="488.0" y="-136.0" type="line"/>
      <point x="554.0" y="-136.0" type="line"/>
      <point x="1410.0" y="1616.0" type="line"/>
      <point x="1344.0" y="1616.0" type="line"/>
    </contour>
    <contour>
      <point x="1496.0" y="-148.0" type="curve" smooth="yes"/>
      <point x="1720.0" y="-148.0"/>
      <point x="1840.0" y="-44.0"/>
      <point x="1840.0" y="122.0" type="curve" smooth="yes"/>
      <point x="1840.0" y="262.0"/>
      <point x="1750.0" y="350.0"/>
      <point x="1520.0" y="392.0" type="curve" smooth="yes"/>
      <point x="1310.0" y="430.0"/>
      <point x="1240.0" y="498.0"/>
      <point x="1240.0" y="622.0" type="curve" smooth="yes"/>
      <point x="1240.0" y="744.0"/>
      <point x="1322.0" y="818.0"/>
      <point x="1488.0" y="818.0" type="curve" smooth="yes"/>
      <point x="1646.0" y="818.0"/>
      <point x="1742.0" y="750.0"/>
      <point x="1742.0" y="620.0" type="curve" smooth="yes"/>
      <point x="1742.0" y="506.0"/>
      <point x="1684.0" y="434.0"/>
      <point x="1550.0" y="380.0" type="curve"/>
      <point x="1600.0" y="354.0" type="line"/>
      <point x="1732.0" y="402.0"/>
      <point x="1804.0" y="494.0"/>
      <point x="1804.0" y="624.0" type="curve" smooth="yes"/>
      <point x="1804.0" y="782.0"/>
      <point x="1688.0" y="876.0"/>
      <point x="1488.0" y="876.0" type="curve" smooth="yes"/>
      <point x="1290.0" y="876.0"/>
      <point x="1176.0" y="780.0"/>
      <point x="1176.0" y="620.0" type="curve" smooth="yes"/>
      <point x="1176.0" y="470.0"/>
      <point x="1264.0" y="378.0"/>
      <point x="1502.0" y="334.0" type="curve" smooth="yes"/>
      <point x="1700.0" y="298.0"/>
      <point x="1776.0" y="236.0"/>
      <point x="1776.0" y="118.0" type="curve" smooth="yes"/>
      <point x="1776.0" y="-16.0"/>
      <point x="1678.0" y="-90.0"/>
      <point x="1498.0" y="-90.0" type="curve" smooth="yes"/>
      <point x="1306.0" y="-90.0"/>
      <point x="1204.0" y="-16.0"/>
      <point x="1204.0" y="124.0" type="curve" smooth="yes"/>
      <point x="1204.0" y="238.0"/>
      <point x="1274.0" y="330.0"/>
      <point x="1412.0" y="368.0" type="curve"/>
      <point x="1354.0" y="396.0" type="line"/>
      <point x="1218.0" y="350.0"/>
      <point x="1140.0" y="256.0"/>
      <point x="1140.0" y="118.0" type="curve" smooth="yes"/>
      <point x="1140.0" y="-54.0"/>
      <point x="1264.0" y="-148.0"/>
    </contour>
  </outline>
</glyph>
<glyph name="partialdiff" format="2">
  <advance width="1234.0"/>
  <unicode hex="2202"/>
  <outline>
    <contour>
      <point x="538.0" y="-18.0" type="curve" smooth="yes"/>
      <point x="876.0" y="-18.0"/>
      <point x="1080.0" y="186.0"/>
      <point x="1080.0" y="694.0" type="curve" smooth="yes"/>
      <point x="1080.0" y="1234.0"/>
      <point x="856.0" y="1498.0"/>
      <point x="438.0" y="1498.0" type="curve" smooth="yes"/>
      <point x="340.0" y="1498.0"/>
      <point x="232.0" y="1486.0"/>
      <point x="146.0" y="1452.0" type="curve"/>
      <point x="146.0" y="1384.0" type="line"/>
      <point x="234.0" y="1420.0"/>
      <point x="350.0" y="1432.0"/>
      <point x="436.0" y="1432.0" type="curve" smooth="yes"/>
      <point x="816.0" y="1432.0"/>
      <point x="1010.0" y="1198.0"/>
      <point x="1010.0" y="704.0" type="curve" smooth="yes"/>
      <point x="1010.0" y="692.0" type="line" smooth="yes"/>
      <point x="1010.0" y="224.0"/>
      <point x="836.0" y="48.0"/>
      <point x="538.0" y="48.0" type="curve" smooth="yes"/>
      <point x="308.0" y="48.0"/>
      <point x="148.0" y="158.0"/>
      <point x="148.0" y="460.0" type="curve" smooth="yes"/>
      <point x="148.0" y="764.0"/>
      <point x="304.0" y="882.0"/>
      <point x="588.0" y="882.0" type="curve" smooth="yes"/>
      <point x="724.0" y="882.0"/>
      <point x="912.0" y="840.0"/>
      <point x="1026.0" y="742.0" type="curve"/>
      <point x="1026.0" y="816.0" type="line"/>
      <point x="916.0" y="898.0"/>
      <point x="742.0" y="948.0"/>
      <point x="584.0" y="948.0" type="curve" smooth="yes"/>
      <point x="264.0" y="948.0"/>
      <point x="78.0" y="804.0"/>
      <point x="78.0" y="462.0" type="curve" smooth="yes"/>
      <point x="78.0" y="122.0"/>
      <point x="270.0" y="-18.0"/>
    </contour>
  </outline>
</glyph>
<glyph name="summation" format="2">
  <advance width="1256.0"/>
  <unicode hex="2211"/>
  <outline>
    <contour>
      <point x="70.0" y="-440.0" type="line"/>
      <point x="1058.0" y="-440.0" type="line"/>
      <point x="1058.0" y="-376.0" type="line"/>
      <point x="168.0" y="-376.0" type="line"/>
      <point x="796.0" y="520.0" type="line"/>
      <point x="168.0" y="1416.0" type="line"/>
      <point x="1058.0" y="1416.0" type="line"/>
      <point x="1058.0" y="1480.0" type="line"/>
      <point x="70.0" y="1480.0" type="line"/>
      <point x="70.0" y="1440.0" type="line"/>
      <point x="732.0" y="494.0" type="line"/>
      <point x="732.0" y="546.0" type="line"/>
      <point x="70.0" y="-400.0" type="line"/>
    </contour>
  </outline>
</glyph>
<glyph name="minus" format="2">
  <advance width="1108.0"/>
  <unicode hex="2212"/>
  <outline>
    <contour>
      <point x="190.0" y="728.0" type="line"/>
      <point x="918.0" y="728.0" type="line"/>
      <point x="918.0" y="792.0" type="line"/>
      <point x="190.0" y="792.0" type="line"/>
    </contour>
  </outline>
</glyph>
<glyph name="radical" format="2">
  <advance width="1464.0"/>
  <unicode hex="221A"/>
  <outline>
    <contour>
      <point x="800.0" y="0.0" type="line"/>
      <point x="894.0" y="0.0" type="line"/>
      <point x="1440.0" y="1480.0" type="line"/>
      <point x="1368.0" y="1480.0" type="line"/>
      <point x="840.0" y="40.0" type="line"/>
      <point x="856.0" y="40.0" type="line"/>
      <point x="464.0" y="1080.0" type="line"/>
      <point x="150.0" y="1080.0" type="line"/>
      <point x="150.0" y="1016.0" type="line"/>
      <point x="414.0" y="1016.0" type="line"/>
    </contour>
  </outline>
</glyph>
<glyph name="lessequal" format="2">
  <advance width="1108.0"/>
  <unicode hex="2264"/>
  <outline>
    <contour>
      <point x="918.0" y="406.0" type="line"/>
      <point x="918.0" y="478.0" type="line"/>
      <point x="254.0" y="772.0" type="line"/>
      <point x="254.0" y="748.0" type="line"/>
      <point x="918.0" y="1042.0" type="line"/>
      <point x="918.0" y="1114.0" type="line"/>
      <point x="190.0" y="786.0" type="line"/>
      <point x="190.0" y="734.0" type="line"/>
    </contour>
    <contour>
      <point x="190.0" y="0.0" type="line"/>
      <point x="918.0" y="0.0" type="line"/>
      <point x="918.0" y="64.0" type="line"/>
      <point x="190.0" y="64.0" type="line"/>
    </contour>
  </outline>
</glyph>
<glyph name="Iacute_J.loclNLD" format="2">
  <advance width="1000.0"/>
  <anchor x="250.0" y="1520.0" name="_top"/>
  <anchor x="250.0" y="0.0" name="bottom"/>
  <anchor x="284.0" y="0.0" name="ogonek"/>
  <anchor x="250.0" y="1520.0" name="top"/>
  <outline>
    <contour>
      <point x="216.0" y="0.0" type="line"/>
      <point x="284.0" y="0.0" type="line"/>
      <point x="284.0" y="1480.0" type="line"/>
      <point x="216.0" y="1480.0" type="line"/>
    </contour>
    <contour>
      <point x="214.0" y="1616.0" type="line"/>
      <point x="286.0" y="1616.0" type="line"/>
      <point x="522.0" y="1888.0" type="line"/>
      <point x="436.0" y="1888.0" type="line"/>
    </contour>
    <contour>
      <point x="552.0" y="-340.0" type="line"/>
      <point x="712.0" y="-148.0"/>
      <point x="770.0" y="22.0"/>
      <point x="784.0" y="250.0" type="curve"/>
      <point x="784.0" y="1480.0" type="line"/>
      <point x="716.0" y="1480.0" type="line"/>
      <point x="716.0" y="286.0" type="line" smooth="yes"/>
      <point x="716.0" y="56.0"/>
      <point x="650.0" y="-128.0"/>
      <point x="504.0" y="-304.0" type="curve"/>
    </contour>
    <contour>
      <point x="714.0" y="1616.0" type="line"/>
      <point x="786.0" y="1616.0" type="line"/>
      <point x="1022.0" y="1888.0" type="line"/>
      <point x="936.0" y="1888.0" type="line"/>
    </contour>
  </outline>
</glyph>
